<svg width="15" height="14" viewBox="0 0 15 14" fill="none" xmlns="http://www.w3.org/2000/svg">
<path d="M6.99992 13.6666C6.0777 13.6666 5.21103 13.4916 4.39992 13.1416C3.58881 12.7916 2.88325 12.3166 2.28325 11.7166C1.68325 11.1166 1.20825 10.4111 0.858252 9.59998C0.508252 8.78887 0.333252 7.9222 0.333252 6.99998C0.333252 6.07776 0.508252 5.21109 0.858252 4.39998C1.20825 3.58887 1.68325 2.88331 2.28325 2.28331C2.88325 1.68331 3.58881 1.20831 4.39992 0.858313C5.21103 0.508313 6.0777 0.333313 6.99992 0.333313C7.53325 0.333313 8.0527 0.394424 8.55825 0.516646C9.06381 0.638869 9.54992 0.816646 10.0166 1.04998C10.1833 1.13887 10.2916 1.2722 10.3416 1.44998C10.3916 1.62776 10.361 1.79442 10.2499 1.94998C10.1388 2.10554 9.99159 2.20554 9.80825 2.24998C9.62492 2.29442 9.44436 2.2722 9.26659 2.18331C8.91103 2.01665 8.54159 1.88887 8.15825 1.79998C7.77492 1.71109 7.38881 1.66665 6.99992 1.66665C5.51103 1.66665 4.24992 2.18331 3.21659 3.21665C2.18325 4.24998 1.66659 5.51109 1.66659 6.99998C1.66659 8.48887 2.18325 9.74998 3.21659 10.7833C4.24992 11.8166 5.51103 12.3333 6.99992 12.3333C7.28881 12.3333 7.57214 12.3111 7.84992 12.2666C8.1277 12.2222 8.40547 12.1555 8.68325 12.0666C8.87214 12.0111 9.05547 12.0083 9.23325 12.0583C9.41103 12.1083 9.54992 12.2166 9.64992 12.3833C9.73881 12.5389 9.75825 12.7055 9.70825 12.8833C9.65825 13.0611 9.54436 13.1833 9.36659 13.25C8.98881 13.3944 8.59992 13.5 8.19992 13.5666C7.79992 13.6333 7.39992 13.6666 6.99992 13.6666ZM11.6666 10.3333H10.3333C10.1444 10.3333 9.98603 10.2694 9.85825 10.1416C9.73047 10.0139 9.66659 9.85553 9.66659 9.66665C9.66659 9.47776 9.73047 9.31942 9.85825 9.19165C9.98603 9.06387 10.1444 8.99998 10.3333 8.99998H11.6666V7.66665C11.6666 7.47776 11.7305 7.31942 11.8583 7.19165C11.986 7.06387 12.1444 6.99998 12.3333 6.99998C12.5221 6.99998 12.6805 7.06387 12.8083 7.19165C12.936 7.31942 12.9999 7.47776 12.9999 7.66665V8.99998H14.3333C14.5221 8.99998 14.6805 9.06387 14.8083 9.19165C14.936 9.31942 14.9999 9.47776 14.9999 9.66665C14.9999 9.85553 14.936 10.0139 14.8083 10.1416C14.6805 10.2694 14.5221 10.3333 14.3333 10.3333H12.9999V11.6666C12.9999 11.8555 12.936 12.0139 12.8083 12.1416C12.6805 12.2694 12.5221 12.3333 12.3333 12.3333C12.1444 12.3333 11.986 12.2694 11.8583 12.1416C11.7305 12.0139 11.6666 11.8555 11.6666 11.6666V10.3333ZM6.06659 8.19998L12.2666 1.98331C12.3888 1.86109 12.5444 1.79998 12.7333 1.79998C12.9221 1.79998 13.0777 1.86109 13.1999 1.98331C13.3221 2.10554 13.3833 2.26109 13.3833 2.44998C13.3833 2.63887 13.3221 2.79442 13.1999 2.91665L6.53325 9.59998C6.39992 9.73331 6.24436 9.79998 6.06659 9.79998C5.88881 9.79998 5.73325 9.73331 5.59992 9.59998L3.69992 7.69998C3.5777 7.57776 3.51659 7.4222 3.51659 7.23331C3.51659 7.04442 3.5777 6.88887 3.69992 6.76665C3.82214 6.64442 3.9777 6.58331 4.16659 6.58331C4.35547 6.58331 4.51103 6.64442 4.63325 6.76665L6.06659 8.19998Z" fill="#A35706"/>
</svg>
