<svg width="28" height="28" viewBox="0 0 28 28" fill="none" xmlns="http://www.w3.org/2000/svg">
<circle cx="14" cy="14" r="14" fill="#FFFDFA"/>
<g clip-path="url(#clip0_290_14070)">
<path d="M10.0272 14.5484H11.8687V22.1297C11.8687 22.2794 11.99 22.4007 12.1397 22.4007H15.2621C15.4118 22.4007 15.5331 22.2794 15.5331 22.1297V14.5841H17.6501C17.7878 14.5841 17.9036 14.4808 17.9193 14.3441L18.2408 11.553C18.2497 11.4762 18.2253 11.3993 18.1739 11.3417C18.1225 11.284 18.0489 11.251 17.9717 11.251H15.5332V9.50145C15.5332 8.97404 15.8172 8.70659 16.3773 8.70659C16.4571 8.70659 17.9717 8.70659 17.9717 8.70659C18.1214 8.70659 18.2427 8.58525 18.2427 8.43563V5.87368C18.2427 5.724 18.1214 5.60271 17.9717 5.60271H15.7744C15.7589 5.60195 15.7245 5.60071 15.6738 5.60071C15.2925 5.60071 13.9673 5.67555 12.9205 6.63857C11.7607 7.70575 11.9219 8.98352 11.9604 9.20507V11.251H10.0272C9.87751 11.251 9.75623 11.3723 9.75623 11.5219V14.2774C9.75623 14.427 9.87751 14.5484 10.0272 14.5484Z" fill="black"/>
</g>
<defs>
<clipPath id="clip0_290_14070">
<rect width="16.8" height="16.8" fill="white" transform="translate(5.59998 5.59998)"/>
</clipPath>
</defs>
</svg>
