<svg width="209" height="210" viewBox="0 0 209 210" fill="none" xmlns="http://www.w3.org/2000/svg">
<path d="M102.118 209.924C158.062 209.924 203.414 183.74 203.414 151.44C203.414 119.14 158.062 92.9561 102.118 92.9561C46.173 92.9561 0.821045 119.14 0.821045 151.44C0.821045 183.74 46.173 209.924 102.118 209.924Z" fill="#F5F5F5"/>
<path d="M156.208 196.11C167.391 196.11 176.456 190.426 176.456 183.414C176.456 176.402 167.391 170.718 156.208 170.718C145.024 170.718 135.959 176.402 135.959 183.414C135.959 190.426 145.024 196.11 156.208 196.11Z" fill="#E6E6E6"/>
<path d="M192.981 137.881L188.78 135.524C188.78 135.524 188.384 127.853 188.987 121.734C189.831 113.134 195.385 102.781 202.014 105.233C208.642 107.684 198.973 116.42 196.828 123.719C194.683 131.017 192.981 137.881 192.981 137.881Z" fill="#37474F"/>
<path d="M191.024 136.981C191.054 136.98 191.083 136.973 191.11 136.961C191.137 136.949 191.161 136.932 191.181 136.911C191.201 136.889 191.217 136.864 191.227 136.836C191.238 136.809 191.242 136.779 191.241 136.75C190.59 117.642 200.104 108.024 200.199 107.93C200.241 107.888 200.264 107.832 200.265 107.773C200.265 107.715 200.242 107.658 200.201 107.616C200.16 107.574 200.104 107.55 200.045 107.55C199.986 107.55 199.929 107.572 199.887 107.614C199.788 107.708 190.138 117.462 190.793 136.768C190.794 136.798 190.801 136.826 190.814 136.853C190.826 136.879 190.843 136.903 190.865 136.922C190.886 136.942 190.911 136.957 190.939 136.967C190.966 136.977 190.995 136.982 191.024 136.981Z" fill="white"/>
<path d="M195.286 139.211L192.66 137.692C192.66 137.692 192.212 132.271 194.871 125.68C197.186 119.942 202.933 115.185 205.818 116.185C208.704 117.184 208.647 119.235 207.233 121.371C205.818 123.506 197.252 128.655 195.286 139.211Z" fill="#455A64"/>
<path d="M193.924 138.631C193.953 138.631 193.982 138.626 194.01 138.615C194.037 138.604 194.062 138.588 194.083 138.567C194.104 138.547 194.121 138.522 194.133 138.495C194.144 138.468 194.15 138.439 194.15 138.409C194.098 126.326 205.441 118.137 205.559 118.075C205.606 118.04 205.638 117.988 205.648 117.93C205.658 117.872 205.644 117.813 205.611 117.764C205.594 117.74 205.572 117.72 205.548 117.704C205.523 117.689 205.495 117.678 205.466 117.673C205.437 117.668 205.408 117.669 205.379 117.676C205.35 117.683 205.323 117.695 205.3 117.712C205.182 117.792 193.65 126.095 193.702 138.409C193.702 138.438 193.708 138.467 193.719 138.494C193.73 138.521 193.746 138.545 193.767 138.566C193.787 138.586 193.812 138.603 193.839 138.614C193.866 138.625 193.894 138.631 193.924 138.631Z" fill="white"/>
<path d="M117.52 102.697L114.79 101.136C114.669 101.046 114.574 100.926 114.513 100.788C114.452 100.65 114.427 100.499 114.441 100.349V82.1601C114.468 81.6724 114.632 81.202 114.913 80.8024L117.628 82.3676C117.356 82.7663 117.203 83.2337 117.185 83.7159V101.919C117.168 102.066 117.19 102.216 117.248 102.352C117.307 102.489 117.401 102.608 117.52 102.697Z" fill="#05338F" fill-opacity="0.75"/>
<path opacity="0.55" d="M117.52 102.697L114.79 101.136C114.669 101.046 114.574 100.926 114.513 100.788C114.452 100.65 114.427 100.499 114.441 100.349V82.1601C114.468 81.6724 114.632 81.202 114.913 80.8024L117.628 82.3676C117.356 82.7663 117.203 83.2337 117.185 83.7159V101.919C117.168 102.066 117.19 102.216 117.248 102.352C117.307 102.489 117.401 102.608 117.52 102.697Z" fill="white"/>
<path d="M118.387 81.5755L156.471 59.5916C157.155 59.1956 157.706 59.5162 157.706 60.3035V78.5299C157.684 78.9582 157.56 79.3749 157.345 79.7461C157.131 80.1174 156.831 80.4324 156.471 80.6656L118.387 102.616C117.708 103.008 117.152 102.687 117.152 101.9V83.7159C117.176 83.2874 117.3 82.8705 117.515 82.4988C117.73 82.1271 118.028 81.8108 118.387 81.5755Z" fill="#05338F" fill-opacity="0.75"/>
<path opacity="0.7" d="M118.387 81.5755L156.471 59.5916C157.155 59.1956 157.706 59.5162 157.706 60.3035V78.5299C157.684 78.9582 157.56 79.3749 157.345 79.7461C157.131 80.1174 156.831 80.4324 156.471 80.6656L118.387 102.616C117.708 103.008 117.152 102.687 117.152 101.9V83.7159C117.176 83.2874 117.3 82.8705 117.515 82.4988C117.73 82.1271 118.028 81.8108 118.387 81.5755Z" fill="white"/>
<path d="M154.614 57.9463L157.301 59.4785C157.164 59.4277 157.017 59.411 156.873 59.4299C156.728 59.4488 156.59 59.5027 156.471 59.587L118.387 81.5756C118.065 81.7747 117.794 82.0458 117.595 82.3676L114.88 80.8024C115.073 80.4836 115.34 80.2154 115.658 80.0198L153.742 58.0312C153.908 57.9287 154.098 57.8718 154.293 57.8662C154.405 57.8653 154.515 57.8929 154.614 57.9463Z" fill="#05338F" fill-opacity="0.75"/>
<path opacity="0.85" d="M154.614 57.9463L157.301 59.4785C157.164 59.4277 157.017 59.411 156.873 59.4299C156.728 59.4488 156.59 59.5027 156.471 59.587L118.387 81.5756C118.065 81.7747 117.794 82.0458 117.595 82.3676L114.88 80.8024C115.073 80.4836 115.34 80.2154 115.658 80.0198L153.742 58.0312C153.908 57.9287 154.098 57.8718 154.293 57.8662C154.405 57.8653 154.515 57.8929 154.614 57.9463Z" fill="white"/>
<path d="M121.367 83.2586L153.492 64.6739C153.822 64.4853 154.086 64.6173 154.086 64.9709C154.071 65.1704 154.01 65.3636 153.907 65.5348C153.804 65.7061 153.661 65.8505 153.492 65.9563L121.367 84.5315C121.042 84.7201 120.773 84.5881 120.773 84.2345C120.789 84.0368 120.851 83.8456 120.954 83.6762C121.057 83.5067 121.199 83.3637 121.367 83.2586Z" fill="#05338F" fill-opacity="0.75"/>
<path d="M121.367 96.2614L153.492 77.6862C153.822 77.4976 154.086 77.6296 154.086 77.9879C154.071 78.1867 154.01 78.3793 153.907 78.5498C153.804 78.7202 153.661 78.8638 153.492 78.9685L121.367 97.5249C121.042 97.7135 120.773 97.5768 120.773 97.2232C120.792 97.0282 120.855 96.8401 120.958 96.6733C121.061 96.5066 121.201 96.3657 121.367 96.2614Z" fill="#05338F" fill-opacity="0.75"/>
<path d="M121.367 89.7505L153.492 71.1705C153.822 70.982 154.086 71.1187 154.086 71.4723C154.071 71.6715 154.009 71.8645 153.906 72.0356C153.803 72.2067 153.661 72.3513 153.492 72.4576L121.367 91.0329C121.042 91.2215 120.773 91.0847 120.773 90.7311C120.788 90.5326 120.85 90.3405 120.953 90.1702C121.056 89.9999 121.198 89.8561 121.367 89.7505Z" fill="#05338F" fill-opacity="0.75"/>
<path d="M121.367 92.9941L153.492 74.4189C153.822 74.2303 154.086 74.3623 154.086 74.7159C154.071 74.9153 154.01 75.1085 153.907 75.2798C153.804 75.451 153.661 75.5954 153.492 75.7012L121.367 94.2765C121.042 94.465 120.773 94.333 120.773 93.9795C120.788 93.7801 120.849 93.587 120.952 93.4158C121.055 93.2447 121.197 93.1002 121.367 92.9941Z" fill="#05338F" fill-opacity="0.75"/>
<path d="M121.367 86.5023L153.492 67.927C153.822 67.7384 154.086 67.8704 154.086 68.2287C154.071 68.4276 154.01 68.6201 153.907 68.7906C153.804 68.9611 153.661 69.1046 153.492 69.2094L121.367 87.7752C121.042 87.9638 120.773 87.8271 120.773 87.4735C120.79 87.2768 120.853 87.0868 120.956 86.9183C121.059 86.7499 121.2 86.6075 121.367 86.5023Z" fill="#05338F" fill-opacity="0.75"/>
<path d="M117.312 74.9375L114.719 73.4618C114.598 73.3717 114.503 73.2519 114.442 73.1139C114.381 72.976 114.356 72.8246 114.371 72.6745V24.2939C114.396 23.8058 114.559 23.3349 114.842 22.9362L117.369 24.3977C117.112 24.788 116.967 25.2413 116.949 25.7083V74.1407C116.932 74.294 116.956 74.4491 117.02 74.5895C117.084 74.7299 117.185 74.8502 117.312 74.9375Z" fill="#263238"/>
<path d="M156.914 1.4191C156.686 1.39871 156.457 1.45512 156.264 1.57939L118.18 23.568C117.846 23.7765 117.567 24.0608 117.364 24.3977L114.833 22.9362C115.029 22.6199 115.295 22.3524 115.61 22.1536L153.694 0.169745C153.86 0.0645954 154.05 0.00596183 154.246 2.13583e-05C154.358 -0.000879014 154.468 0.0267011 154.567 0.0801685L156.914 1.4191Z" fill="#37474F"/>
<path d="M118.18 23.5678L156.264 1.58396C156.947 1.18794 157.499 1.50852 157.499 2.29585V50.7707C157.476 51.1989 157.353 51.6157 157.138 51.9869C156.923 52.3581 156.624 52.6732 156.264 52.9064L118.185 74.8573C117.501 75.2486 116.945 74.928 116.945 74.1406V25.7082C116.969 25.2797 117.093 24.8628 117.308 24.4911C117.522 24.1194 117.821 23.8031 118.18 23.5678Z" fill="#455A64"/>
<path d="M120.292 25.1472L154.472 5.41212C155.085 5.05853 155.58 5.34612 155.58 6.0533V49.5873C155.56 49.9718 155.448 50.3459 155.256 50.6793C155.063 51.0127 154.795 51.296 154.472 51.5061L120.292 71.2034C119.679 71.557 119.184 71.2695 119.184 70.5623V27.066C119.205 26.6815 119.316 26.3074 119.508 25.974C119.701 25.6406 119.969 25.3573 120.292 25.1472Z" fill="#F0F0F0"/>
<mask id="mask0_140_10529" style="mask-type:luminance" maskUnits="userSpaceOnUse" x="119" y="5" width="37" height="67">
<path d="M120.292 25.1464L154.472 5.41139C155.085 5.0578 155.58 5.34539 155.58 6.05257V49.5866C155.56 49.971 155.448 50.3452 155.256 50.6786C155.063 51.012 154.795 51.2953 154.472 51.5054L120.292 71.2027C119.679 71.5563 119.184 71.2687 119.184 70.5615V27.0652C119.205 26.6808 119.316 26.3067 119.508 25.9732C119.701 25.6398 119.969 25.3566 120.292 25.1464Z" fill="white"/>
</mask>
<g mask="url(#mask0_140_10529)">
<path d="M148.706 42.9869C148.106 41.9381 147.153 41.137 146.016 40.7267C144.879 40.3165 143.634 40.3238 142.502 40.7475C142.502 40.7475 142.304 44.3919 144.171 49.625C144.171 49.625 152.304 61.4773 153.925 62.5805L156.174 55.1221C156.174 55.1221 150.239 45.3866 148.706 42.9869Z" fill="#B16668"/>
<path d="M128.778 45.5185C126.859 46.2492 127.147 48.3472 127.208 50.2095C127.241 51.3551 127.43 53.2975 127.552 55.9612L128.099 64.5369L127.977 83.1405C134.214 85.2667 142.149 83.3951 148.805 75.998C148.805 75.998 148.433 52.1896 148.433 48.2812C148.433 48.1021 148.433 47.9276 148.433 47.7485C148.197 42.4022 145.543 40.1156 142.512 40.7568C141.54 40.9643 139.438 41.6337 138.047 42.0675L134.228 43.3027C134.228 43.3027 130.692 44.7877 128.778 45.5185Z" fill="#05338F" fill-opacity="0.75"/>
<path opacity="0.2" d="M128.778 45.5185C126.859 46.2492 127.147 48.3472 127.208 50.2095C127.241 51.3551 127.43 53.2975 127.552 55.9612L128.099 64.5369L127.977 83.1405C134.214 85.2667 142.149 83.3951 148.805 75.998C148.805 75.998 148.433 52.1896 148.433 48.2812C148.433 48.1021 148.433 47.9276 148.433 47.7485C148.197 42.4022 145.543 40.1156 142.512 40.7568C141.54 40.9643 139.438 41.6337 138.047 42.0675L134.228 43.3027C134.228 43.3027 130.692 44.7877 128.778 45.5185Z" fill="black"/>
<path d="M143.224 26.9952C143.224 25.2744 143.492 23.0161 145.241 22.1911C146.128 21.7715 147.391 21.5971 148.235 22.1439C149.079 22.6908 149.616 23.464 149.466 24.5389C149.318 25.3415 148.916 26.0753 148.32 26.6322C148.217 26.7116 148.14 26.8199 148.098 26.9433C148.083 27.0428 148.091 27.1446 148.122 27.2404C148.348 28.3011 148.334 29.5175 147.613 30.3284C147.365 30.6042 147.051 30.8131 146.701 30.9359C146.351 31.0586 145.975 31.0913 145.609 31.0308C145.198 30.9336 144.814 30.7437 144.487 30.4758C144.161 30.2078 143.899 29.8687 143.723 29.4845C143.364 28.7054 143.193 27.8527 143.224 26.9952Z" fill="#263238"/>
<path d="M131.692 33.0393C131.692 33.0393 132.663 38.0414 133.049 38.8005C133.166 39.0214 133.336 39.2094 133.545 39.3471C133.753 39.4847 133.993 39.5675 134.242 39.5878L134.176 35.9105L131.692 33.0393Z" fill="#263238"/>
<path d="M132.885 25.1801C132.885 25.1801 131.984 25.4016 131.942 25.4252C131.526 25.5801 131.153 25.8304 130.853 26.156C130.619 26.4043 130.449 26.7056 130.357 27.034C130.265 27.3624 130.254 27.7082 130.325 28.0418C130.476 28.5278 130.75 28.9663 131.121 29.3147C130.836 29.606 130.613 29.9525 130.466 30.333C130.322 30.7176 130.322 31.1412 130.466 31.5258C130.566 31.7496 130.696 31.9589 130.853 32.1481C131.197 32.5866 131.602 33.0156 132.196 32.9496C132.63 32.9025 133.068 32.8317 133.502 32.7752L132.885 25.1801Z" fill="#263238"/>
<path d="M134.049 32.6478C133.686 33.0014 133.163 32.3272 132.71 31.9029C132.257 31.4786 130.786 31.1297 130.051 33.1145C129.316 35.0993 130.702 37.169 131.861 37.2822C133.86 37.4707 134.162 35.9102 134.162 35.9102L134.228 44.123C136.411 48.6913 145.406 46.9517 140.828 42.2089V39.6866C141.745 39.6067 142.649 39.4168 143.52 39.1208C144.991 38.4655 145.92 36.8767 146.349 34.9202C147.066 31.7756 147.004 29.9133 146.764 24.2418C146.599 20.3476 139.654 19.1454 136.194 22.587C132.734 26.0286 134.049 32.6478 134.049 32.6478Z" fill="#B16668"/>
<path d="M132.701 31.9029C132.465 31.7191 132.488 31.1816 132.474 30.9223C132.45 30.2936 132.461 29.664 132.507 29.0365C132.569 28.0465 132.842 27.0093 132.616 26.0381C132.503 25.685 132.47 25.3117 132.517 24.9443C132.544 24.7603 132.628 24.5897 132.759 24.4574C132.89 24.3251 133.059 24.238 133.243 24.2088C133.026 23.6416 132.966 23.0263 133.069 22.4279C133.173 21.8295 133.436 21.27 133.831 20.8086C134.226 20.3472 134.738 20.0008 135.313 19.806C135.888 19.6112 136.505 19.5752 137.099 19.7017C137.258 19.1585 137.562 18.6683 137.977 18.2833C138.391 17.8982 138.903 17.6324 139.456 17.5142C140.09 17.3804 140.747 17.403 141.371 17.5802C141.688 17.666 141.983 17.8208 142.234 18.0335C142.485 18.2462 142.686 18.5115 142.823 18.8107C143.214 17.9715 144.567 17.2172 145.802 17.3586C146.839 17.4812 147.905 18.1224 148.259 18.9615C148.5 19.5065 148.624 20.0959 148.624 20.6918C148.624 21.2877 148.5 21.877 148.259 22.422C148.065 22.8008 147.793 23.1335 147.459 23.3971C147.125 23.6608 146.739 23.8492 146.326 23.9495C145.483 24.1533 144.595 24.0143 143.855 23.5629C143.853 24.0087 143.708 24.4421 143.44 24.7987C143.173 25.1554 142.798 25.4164 142.37 25.543C141.776 25.7349 141.141 25.7658 140.531 25.6326C139.958 25.4134 139.436 25.078 138.999 24.6473C138.961 25.0501 138.813 25.4346 138.571 25.7589C138.329 26.0832 138.003 26.3347 137.627 26.4859C137.25 26.6273 136.847 26.685 136.446 26.6549C136.044 26.6247 135.654 26.5076 135.303 26.3115C135.478 26.8723 135.577 27.4544 135.595 28.0417C135.621 28.3469 135.575 28.654 135.459 28.9375C135.396 29.0756 135.295 29.193 135.168 29.2764C135.041 29.3598 134.894 29.4058 134.742 29.409C135.082 30.2678 135.203 31.1977 135.096 32.1151C135.085 32.482 134.941 32.8325 134.69 33.1004C133.874 33.8548 133.205 32.299 132.701 31.9029Z" fill="#263238"/>
<path d="M132.889 25.6469L130.673 24.869C130.989 24.0534 131.739 23.5678 132.352 23.7799C132.965 23.9921 133.2 24.8313 132.889 25.6469Z" fill="#263238"/>
<path d="M140.805 39.6868C140.805 39.6868 137.505 39.8 136.373 39.404C135.685 39.1639 135.115 38.6674 134.784 38.0179C134.946 38.7046 135.255 39.3481 135.689 39.9037C136.529 40.9173 140.805 40.6863 140.805 40.6863V39.6868Z" fill="#9A4A4D"/>
<path d="M139.956 30.7712C139.956 30.9769 139.892 31.1775 139.774 31.346C139.656 31.5146 139.489 31.643 139.296 31.7141C138.933 31.8131 138.636 31.535 138.636 31.1012C138.638 30.8957 138.702 30.6954 138.819 30.527C138.937 30.3586 139.104 30.23 139.296 30.1583C139.659 30.0593 139.956 30.3375 139.956 30.7712Z" fill="#263238"/>
<path d="M139.456 28.6123L137.854 29.6306C137.784 29.3882 137.792 29.1301 137.876 28.8925C137.961 28.6549 138.118 28.4497 138.325 28.3059C138.416 28.2392 138.52 28.1939 138.631 28.1732C138.742 28.1526 138.856 28.1571 138.965 28.1866C139.073 28.216 139.174 28.2696 139.259 28.3433C139.344 28.417 139.412 28.5089 139.456 28.6123Z" fill="#263238"/>
<path d="M140.508 35.2171L142.007 35.4623C141.965 35.7011 141.839 35.9174 141.653 36.0727C141.467 36.228 141.231 36.3124 140.989 36.3109C140.574 36.2449 140.357 35.7546 140.508 35.2171Z" fill="#9A4A4D"/>
<path d="M145.915 28.2962L144.633 27.4994C144.892 27.0044 145.392 26.7828 145.746 26.9997C145.927 27.1583 146.044 27.3773 146.075 27.616C146.106 27.8546 146.05 28.0964 145.915 28.2962Z" fill="#263238"/>
<path d="M145.581 29.4468C145.58 29.652 145.517 29.8521 145.4 30.0206C145.283 30.189 145.118 30.3178 144.925 30.3897C144.562 30.4887 144.265 30.2106 144.265 29.7768C144.267 29.5714 144.332 29.3715 144.449 29.2032C144.567 29.0349 144.733 28.9062 144.925 28.8339C145.288 28.7349 145.581 29.0084 145.581 29.4468Z" fill="#263238"/>
<path d="M142.007 29.6307L142.083 34.2132L144.44 32.9827L142.007 29.6307Z" fill="#9A4A4D"/>
<path d="M127.585 84.7577C127.693 85.9954 128.05 87.1983 128.637 88.2936C129.286 89.3126 130.08 90.2321 130.994 91.0233C131.091 91.0981 131.162 91.2022 131.197 91.3203C131.23 91.5655 130.951 91.7352 130.725 91.7918C130.21 91.8684 129.684 91.7652 129.235 91.4995C128.899 91.3031 128.59 91.0638 128.316 90.7876C128.222 90.7027 127.637 90.2878 127.637 90.1935C127.822 91.1864 128.169 92.1421 128.665 93.0223C129.152 93.7797 129.592 94.567 129.98 95.3795C130.202 95.9123 130.306 96.6006 129.895 97.006C129.722 97.1528 129.517 97.2576 129.297 97.3125C128.55 97.5229 127.761 97.5316 127.01 97.3378C126.259 97.144 125.572 96.7546 125.021 96.2093C124.537 95.6835 124.133 95.0894 123.823 94.4461C123.634 94.0922 123.464 93.7287 123.314 93.357C123.063 92.7088 122.869 92.0399 122.734 91.358C122.371 89.7221 122.234 88.0579 121.984 86.4172C121.242 81.192 120.946 75.9131 121.098 70.6377C121.947 53.1656 123.139 47.2583 128.787 45.5186C130.386 46.7067 131.102 51.7937 129.419 56.329C128.584 61.3951 128.036 66.5044 127.779 71.6324C127.675 74.0557 127.284 78.9399 127.397 81.3632C127.449 82.4476 127.449 83.5319 127.585 84.7577Z" fill="#B16668"/>
</g>
<path d="M14.2385 162.288L11.5088 160.728C11.3882 160.637 11.2928 160.517 11.2317 160.38C11.1706 160.242 11.1459 160.091 11.1599 159.94V141.756C11.187 141.269 11.3504 140.798 11.6314 140.399L14.2998 141.964C14.028 142.363 13.8743 142.83 13.8567 143.312V161.492C13.841 161.647 13.8684 161.803 13.9357 161.944C14.0031 162.084 14.1079 162.203 14.2385 162.288Z" fill="#05338F" fill-opacity="0.75"/>
<path opacity="0.55" d="M14.2385 162.288L11.5088 160.728C11.3882 160.637 11.2928 160.517 11.2317 160.38C11.1706 160.242 11.1459 160.091 11.1599 159.94V141.756C11.187 141.269 11.3504 140.798 11.6314 140.399L14.2998 141.964C14.028 142.363 13.8743 142.83 13.8567 143.312V161.492C13.841 161.647 13.8684 161.803 13.9357 161.944C14.0031 162.084 14.1079 162.203 14.2385 162.288Z" fill="white"/>
<path d="M15.1061 141.172L53.1901 119.184C53.869 118.788 54.4253 119.108 54.4253 119.896V138.122C54.401 138.551 54.2761 138.968 54.0607 139.34C53.8453 139.712 53.5454 140.028 53.1853 140.262L15.1061 162.208C14.4224 162.6 13.8708 162.279 13.8708 161.492V143.308C13.8935 142.88 14.0172 142.463 14.2319 142.092C14.4466 141.72 14.7462 141.405 15.1061 141.172Z" fill="#05338F" fill-opacity="0.75"/>
<path opacity="0.7" d="M15.1061 141.172L53.1901 119.184C53.869 118.788 54.4253 119.108 54.4253 119.896V138.122C54.401 138.551 54.2761 138.968 54.0607 139.34C53.8453 139.712 53.5454 140.028 53.1853 140.262L15.1061 162.208C14.4224 162.6 13.8708 162.279 13.8708 161.492V143.308C13.8935 142.88 14.0172 142.463 14.2319 142.092C14.4466 141.72 14.7462 141.405 15.1061 141.172Z" fill="white"/>
<path d="M51.3325 117.543L54.0198 119.075C53.8831 119.024 53.736 119.008 53.5914 119.026C53.4468 119.045 53.309 119.099 53.19 119.184L15.106 141.172C14.779 141.369 14.5029 141.641 14.2998 141.964L11.5842 140.399C11.7843 140.085 12.0557 139.824 12.3763 139.635L50.4603 117.647C50.6265 117.544 50.8167 117.487 51.0119 117.482C51.1222 117.475 51.2324 117.496 51.3325 117.543Z" fill="#05338F" fill-opacity="0.75"/>
<path opacity="0.85" d="M51.3325 117.543L54.0198 119.075C53.8831 119.024 53.736 119.008 53.5914 119.026C53.4468 119.045 53.309 119.099 53.19 119.184L15.106 141.172C14.779 141.369 14.5029 141.641 14.2998 141.964L11.5842 140.399C11.7843 140.085 12.0557 139.824 12.3763 139.635L50.4603 117.647C50.6265 117.544 50.8167 117.487 51.0119 117.482C51.1222 117.475 51.2324 117.496 51.3325 117.543Z" fill="white"/>
<path d="M18.0713 142.851L50.1962 124.275C50.5215 124.087 50.7902 124.219 50.7902 124.577C50.7748 124.776 50.713 124.968 50.6098 125.138C50.5067 125.308 50.365 125.452 50.1962 125.558L18.0713 144.133C17.7413 144.321 17.4773 144.189 17.4773 143.836C17.4916 143.636 17.5529 143.443 17.6561 143.272C17.7594 143.101 17.9016 142.956 18.0713 142.851Z" fill="#05338F" fill-opacity="0.75"/>
<path d="M18.0713 155.834L50.2103 137.278C50.5356 137.089 50.8043 137.226 50.8043 137.58C50.7889 137.778 50.7271 137.97 50.624 138.141C50.5208 138.311 50.3791 138.455 50.2103 138.56L18.0713 157.117C17.7413 157.305 17.4773 157.169 17.4773 156.815C17.4916 156.616 17.5529 156.424 17.6562 156.253C17.7595 156.083 17.9017 155.939 18.0713 155.834Z" fill="#05338F" fill-opacity="0.75"/>
<path d="M18.0713 149.342L50.1962 130.767C50.5215 130.579 50.7902 130.711 50.7902 131.064C50.7748 131.263 50.713 131.456 50.6099 131.627C50.5067 131.798 50.3651 131.943 50.1962 132.05L18.0713 150.625C17.7413 150.813 17.4773 150.681 17.4773 150.328C17.4909 150.128 17.5518 149.935 17.6551 149.763C17.7585 149.592 17.9011 149.448 18.0713 149.342Z" fill="#05338F" fill-opacity="0.75"/>
<path d="M18.0713 152.586L50.1962 134.011C50.5215 133.822 50.7902 133.954 50.7902 134.308C50.7755 134.507 50.7141 134.7 50.6109 134.871C50.5077 135.043 50.3656 135.187 50.1962 135.293L18.0713 153.868C17.7413 154.057 17.4773 153.925 17.4773 153.571C17.4916 153.372 17.5529 153.179 17.6561 153.008C17.7594 152.836 17.9016 152.692 18.0713 152.586Z" fill="#05338F" fill-opacity="0.75"/>
<path d="M18.0713 146.099L50.1962 127.519C50.5215 127.33 50.7902 127.467 50.7902 127.821C50.7748 128.019 50.713 128.211 50.6098 128.382C50.5067 128.552 50.365 128.696 50.1962 128.801L18.0713 147.381C17.7413 147.57 17.4773 147.433 17.4773 147.079C17.4916 146.881 17.5529 146.688 17.6562 146.518C17.7595 146.347 17.9017 146.204 18.0713 146.099Z" fill="#05338F" fill-opacity="0.75"/>
<path d="M14.0782 134.449L11.4711 132.992C11.3501 132.902 11.2545 132.782 11.1933 132.644C11.1322 132.506 11.1077 132.355 11.1222 132.205V83.8243C11.1475 83.3361 11.311 82.8653 11.5937 82.4665L14.1207 83.928C13.8636 84.3183 13.7184 84.7716 13.7011 85.2386V133.671C13.6885 133.823 13.7168 133.975 13.7832 134.112C13.8495 134.248 13.9514 134.365 14.0782 134.449Z" fill="#263238"/>
<path d="M53.6803 60.9494C53.4517 60.9291 53.2227 60.9855 53.0297 61.1097L14.9457 83.0983C14.6123 83.3069 14.3329 83.5912 14.1301 83.9281L11.5984 82.4666C11.7952 82.1503 12.0612 81.8827 12.3763 81.684L50.4603 59.7001C50.6255 59.5949 50.8161 59.5363 51.0119 59.5304C51.1238 59.5295 51.2341 59.557 51.3325 59.6105L53.6803 60.9494Z" fill="#37474F"/>
<path d="M14.9458 83.0938L53.0298 61.1099C53.7087 60.7139 54.265 61.0345 54.265 61.8218V110.297C54.2409 110.725 54.1165 111.142 53.902 111.514C53.6875 111.886 53.3887 112.202 53.0298 112.437L14.9458 134.383C14.2622 134.774 13.7106 134.459 13.7106 133.671V85.2342C13.734 84.8055 13.858 84.3883 14.0726 84.0165C14.2872 83.6446 14.5863 83.3285 14.9458 83.0938Z" fill="#455A64"/>
<path d="M16.8975 84.5976L51.0731 64.8626C51.686 64.509 52.181 64.7966 52.181 65.5037V108.991C52.1611 109.375 52.0503 109.75 51.8577 110.083C51.6651 110.417 51.3963 110.7 51.0731 110.909L16.8975 130.63C16.2846 130.984 15.7896 130.696 15.7896 129.989V86.5164C15.8102 86.132 15.9214 85.7578 16.1139 85.4244C16.3064 85.091 16.5749 84.8077 16.8975 84.5976Z" fill="#F0F0F0"/>
<mask id="mask1_140_10529" style="mask-type:luminance" maskUnits="userSpaceOnUse" x="15" y="64" width="38" height="67">
<path d="M16.8975 84.5976L51.0731 64.8626C51.686 64.509 52.181 64.7966 52.181 65.5037V108.991C52.1611 109.375 52.0503 109.75 51.8577 110.083C51.6651 110.417 51.3963 110.7 51.0731 110.909L16.8975 130.63C16.2846 130.984 15.7896 130.696 15.7896 129.989V86.5164C15.8102 86.132 15.9214 85.7578 16.1139 85.4244C16.3064 85.091 16.5749 84.8077 16.8975 84.5976Z" fill="white"/>
</mask>
<g mask="url(#mask1_140_10529)">
<path d="M44.3407 102.744C41.6723 99.2785 37.2689 99.7688 37.2689 99.7688C37.6572 102.781 38.3896 105.739 39.4517 108.585C39.4517 108.585 47.589 120.433 49.2108 121.541L51.4597 114.077C51.4597 114.077 46.071 104.997 44.3407 102.744Z" fill="#FFBDA7"/>
<path d="M36.3165 99.9388C37.4698 99.5684 38.6803 99.4087 39.8901 99.4673C41.809 99.5899 44.1709 101.763 45.5806 104.026C47.4664 107.053 48.7205 109.212 48.7205 109.212C48.7205 109.212 48.0934 112.767 43.2422 114.299L38.7539 108.444L36.3165 99.9388Z" fill="#05338F" fill-opacity="0.75"/>
<path opacity="0.5" d="M36.3165 99.9388C37.4698 99.5684 38.6803 99.4087 39.8901 99.4673C41.809 99.5899 44.1709 101.763 45.5806 104.026C47.4664 107.053 48.7205 109.212 48.7205 109.212C48.7205 109.212 48.0934 112.767 43.2422 114.299L38.7539 108.444L36.3165 99.9388Z" fill="black"/>
<path d="M23.9362 113.828L23.3092 123.728L23.8137 142.252C30.051 144.378 37.9855 142.506 44.6425 135.109C44.6425 135.109 44.369 110.509 43.5016 106.308C42.4596 101.249 39.9751 98.4818 34.94 100.283L30.0038 102.253L24.9263 104.276C24.9263 104.276 23.9362 111.914 23.9362 113.828Z" fill="#05338F" fill-opacity="0.75"/>
<path opacity="0.4" d="M23.9362 113.828L23.3092 123.728L23.8137 142.252C30.051 144.378 37.9855 142.506 44.6425 135.109C44.6425 135.109 44.369 110.509 43.5016 106.308C42.4596 101.249 39.9751 98.4818 34.94 100.283L30.0038 102.253L24.9263 104.276C24.9263 104.276 23.9362 111.914 23.9362 113.828Z" fill="black"/>
<path d="M30.4518 86.2195C30.4518 90.4155 33.3984 93.0273 37.0521 92.0514C40.7059 91.0755 43.6525 86.889 43.6525 82.693C43.6525 78.4971 40.5173 78.4971 36.8824 79.473C33.2475 80.4489 30.4518 82.0236 30.4518 86.2195Z" fill="#263238"/>
<path d="M29.3862 94.9979L28.283 93.7203L28.7309 91.8816L27.788 84.6165C27.4046 84.5525 27.0108 84.6132 26.6645 84.7898C26.3183 84.9663 26.0378 85.2493 25.8644 85.5972C24.2851 88.4636 27.9671 97.2751 28.283 97.888C28.3993 98.1095 28.5695 98.2982 28.778 98.4367C28.9864 98.5751 29.2264 98.6588 29.4758 98.68L29.3862 94.9979Z" fill="#263238"/>
<path d="M29.259 91.7353C28.896 92.0889 28.3726 91.4147 27.92 90.9904C27.4674 90.5661 25.9965 90.2172 25.261 92.2021C24.5256 94.1869 25.9069 96.2613 27.0667 96.3697C29.0704 96.5583 29.3674 94.9978 29.3674 94.9978L29.4381 103.531C32.7902 107.091 40.5126 105.351 36.0385 101.32V98.7883C36.9564 98.7085 37.8616 98.5202 38.7352 98.2272C40.2061 97.5672 41.1302 95.9831 41.5639 94.0219C42.2805 90.882 42.554 88.4257 41.9458 82.7824C41.2763 76.5969 34.874 78.247 31.4041 81.6886C27.9342 85.1302 29.259 91.7353 29.259 91.7353Z" fill="#FFBDA7"/>
<path d="M29.193 92.3341C28.5802 92.1738 28.1794 91.1932 27.9201 90.9904C27.6608 90.7877 27.7033 90.2691 27.6938 90.0098C27.7161 89.373 27.7003 88.7354 27.6467 88.1004C27.5155 87.4323 27.443 86.754 27.4298 86.0732C27.4298 84.6588 27.4628 82.6882 28.0427 81.3822C29.1129 78.9731 30.7818 78.3649 32.795 77.719C34.3413 77.2476 36.0338 77.2947 37.5519 76.7196C38.7937 76.1633 39.9307 75.3978 40.9134 74.4566C41.2858 74.1407 41.8044 73.8107 42.2146 74.07C42.4088 74.2213 42.5426 74.437 42.5918 74.6782C42.8164 75.4036 42.8855 76.1683 42.7945 76.9223C42.97 76.935 43.146 76.9077 43.3094 76.8424C43.4728 76.777 43.6191 76.6754 43.7374 76.5451C43.8081 76.4602 43.8835 76.3612 43.992 76.3612C44.1004 76.3612 44.2183 76.5357 44.2418 76.6818C44.3307 77.3148 44.2743 77.9597 44.0768 78.5676C43.2094 81.6038 40.1921 83.4425 37.1135 84.1497C35.3902 84.6212 33.5809 84.6858 31.8285 84.3382C31.6178 84.2935 31.3981 84.3324 31.2156 84.4467C31.0591 84.5656 30.9438 84.7304 30.8856 84.9181C30.5508 85.7809 30.8856 87.5441 30.8007 88.7322C30.6734 90.1795 30.4518 91.4053 29.9049 92.0889C29.8305 92.2032 29.72 92.2893 29.5911 92.3337C29.4621 92.3781 29.3221 92.3782 29.193 92.3341Z" fill="#263238"/>
<path d="M27.5948 84.7389L25.3837 83.9563C25.6948 83.1407 26.4444 82.6551 27.0573 82.8719C27.6702 83.0888 27.9107 83.9186 27.5948 84.7389Z" fill="#263238"/>
<path d="M36.0197 98.7884C36.0197 98.7884 32.7195 98.9063 31.5927 98.5056C30.9043 98.2656 30.3351 97.769 30.0039 97.1195C30.1649 97.8056 30.4721 98.4488 30.9044 99.0053C31.7436 100.019 36.0197 99.7879 36.0197 99.7879V98.7884Z" fill="#F0997A"/>
<path d="M35.2323 89.8308C35.2319 90.036 35.169 90.2361 35.0519 90.4046C34.9348 90.5731 34.7692 90.7018 34.577 90.7737C34.2093 90.868 33.917 90.5946 33.917 90.1561C33.9184 89.9506 33.9823 89.7503 34.1002 89.5819C34.2181 89.4135 34.3844 89.2849 34.577 89.2132C34.94 89.1189 35.2323 89.3924 35.2323 89.8308Z" fill="#263238"/>
<path d="M34.1762 86.9691L32.7618 88.242C32.6694 88.0056 32.6515 87.7465 32.7105 87.4996C32.7694 87.2527 32.9025 87.0298 33.0918 86.8606C33.159 86.7753 33.2466 86.7082 33.3466 86.6656C33.4466 86.6231 33.5557 86.6065 33.6638 86.6173C33.7719 86.6281 33.8755 86.666 33.9651 86.7275C34.0546 86.789 34.1273 86.8721 34.1762 86.9691Z" fill="#263238"/>
<path d="M35.7226 94.2814L37.2266 94.5312C37.1814 94.7692 37.0544 94.9839 36.8675 95.1381C36.6807 95.2922 36.4457 95.3761 36.2035 95.3751C35.7933 95.3186 35.5765 94.8188 35.7226 94.2814Z" fill="#F0997A"/>
<path d="M41.267 85.7339L39.9846 84.9466C40.2439 84.4751 40.7437 84.23 41.0972 84.4751C41.2703 84.6307 41.3824 84.8427 41.4135 85.0733C41.4445 85.3039 41.3926 85.5381 41.267 85.7339Z" fill="#263238"/>
<path d="M40.9887 88.0673C40.9873 88.2728 40.9234 88.4731 40.8055 88.6415C40.6876 88.8099 40.5214 88.9385 40.3287 89.0102C39.9657 89.1092 39.6734 88.831 39.6734 88.3973C39.6696 88.1883 39.7306 87.9832 39.8479 87.8102C39.9652 87.6372 40.1331 87.5047 40.3287 87.4308C40.7012 87.3554 40.9887 87.6288 40.9887 88.0673Z" fill="#263238"/>
<path d="M37.4529 88.1053L37.5283 92.6925L39.8856 91.4573L37.4529 88.1053Z" fill="#F0997A"/>
<path d="M16.129 132.973C18.2034 110.843 21.0227 105.436 25.0866 104.879C26.6801 106.067 27.1846 111.15 26.0578 116.421C26.0578 116.421 23.7571 128.353 23.5544 132.648C23.3752 136.42 22.3333 141.04 22.7953 144.01C22.8802 144.533 23.1536 146.061 23.4365 146.414C24.3794 147.574 24.1484 148.112 24.8509 149.017C25.4166 149.724 26.3548 150.148 26.2652 150.431C26.1285 150.771 25.5109 151.209 24.5303 150.756C23.96 150.451 23.4741 150.008 23.1159 149.469C23.1159 149.469 23.2196 150.884 24.5303 153.034C25.7608 155.094 26.1238 157.244 22.6963 156.848C20.7586 156.626 19.3349 156.079 18.0808 151.082C17.7319 149.7 17.449 147.192 17.1756 145.387C16.3694 140.177 15.8414 136.019 16.129 132.973Z" fill="#FFBDA7"/>
<path d="M25.1432 104.206C25.1432 104.206 21.0368 105.012 19.8912 108.83C18.9483 112.055 18.1657 114.959 17.1473 121.729C18.2167 122.707 19.5433 123.359 20.9708 123.608C22.3983 123.857 23.8673 123.693 25.2045 123.134C25.2045 123.134 27.3732 114.304 27.59 110.334C27.8258 105.988 25.1432 104.206 25.1432 104.206Z" fill="#05338F" fill-opacity="0.75"/>
<path opacity="0.5" d="M25.1432 104.206C25.1432 104.206 21.0368 105.012 19.8912 108.83C18.9483 112.055 18.1657 114.959 17.1473 121.729C18.2167 122.707 19.5433 123.359 20.9708 123.608C22.3983 123.857 23.8673 123.693 25.2045 123.134C25.2045 123.134 27.3732 114.304 27.59 110.334C27.8258 105.988 25.1432 104.206 25.1432 104.206Z" fill="black"/>
</g>
<path d="M65.9239 132.04L63.1942 130.479C63.0742 130.388 62.9793 130.268 62.9183 130.131C62.8573 129.993 62.8322 129.842 62.8453 129.692V111.508C62.8724 111.02 63.0357 110.55 63.3168 110.15L66.0323 111.715C65.7619 112.115 65.6099 112.582 65.5939 113.064V131.243C65.5727 131.393 65.5921 131.546 65.6501 131.687C65.7082 131.827 65.8027 131.949 65.9239 132.04Z" fill="#05338F" fill-opacity="0.75"/>
<path opacity="0.55" d="M65.9239 132.04L63.1942 130.479C63.0742 130.388 62.9793 130.268 62.9183 130.131C62.8573 129.993 62.8322 129.842 62.8453 129.692V111.508C62.8724 111.02 63.0357 110.55 63.3168 110.15L66.0323 111.715C65.7619 112.115 65.6099 112.582 65.5939 113.064V131.243C65.5727 131.393 65.5921 131.546 65.6501 131.687C65.7082 131.827 65.8027 131.949 65.9239 132.04Z" fill="white"/>
<path d="M66.796 110.923L104.875 88.9348C105.559 88.5388 106.11 88.8594 106.11 89.6467V107.873C106.088 108.301 105.964 108.718 105.749 109.089C105.535 109.46 105.235 109.776 104.875 110.009L66.796 131.96C66.1124 132.351 65.5608 132.03 65.5608 131.243V113.059C65.5834 112.631 65.7072 112.214 65.9219 111.843C66.1366 111.472 66.4361 111.157 66.796 110.923Z" fill="#05338F" fill-opacity="0.75"/>
<path opacity="0.7" d="M66.796 110.923L104.875 88.9348C105.559 88.5388 106.11 88.8594 106.11 89.6467V107.873C106.088 108.301 105.964 108.718 105.749 109.089C105.535 109.46 105.235 109.776 104.875 110.009L66.796 131.96C66.1124 132.351 65.5608 132.03 65.5608 131.243V113.059C65.5834 112.631 65.7072 112.214 65.9219 111.843C66.1366 111.472 66.4361 111.157 66.796 110.923Z" fill="white"/>
<path d="M103.018 87.3037L105.705 88.8359C105.568 88.7851 105.421 88.7684 105.277 88.7873C105.132 88.8062 104.994 88.8601 104.875 88.9443L66.7913 110.924C66.4695 111.123 66.1984 111.394 65.9993 111.716L63.2837 110.15C63.4774 109.832 63.744 109.563 64.0616 109.368L102.146 87.3791C102.314 87.2767 102.505 87.2198 102.702 87.2141C102.813 87.2154 102.922 87.2463 103.018 87.3037Z" fill="#05338F" fill-opacity="0.75"/>
<path opacity="0.85" d="M103.018 87.3037L105.705 88.8359C105.568 88.7851 105.421 88.7684 105.277 88.7873C105.132 88.8062 104.994 88.8601 104.875 88.9443L66.7913 110.924C66.4695 111.123 66.1984 111.394 65.9993 111.716L63.2837 110.15C63.4774 109.832 63.744 109.563 64.0616 109.368L102.146 87.3791C102.314 87.2767 102.505 87.2198 102.702 87.2141C102.813 87.2154 102.922 87.2463 103.018 87.3037Z" fill="white"/>
<path d="M69.7711 112.602L101.901 94.0267C102.226 93.8381 102.49 93.9701 102.49 94.3237C102.476 94.5227 102.416 94.7157 102.313 94.8869C102.211 95.0581 102.069 95.2027 101.901 95.3091L69.7711 113.884C69.4458 114.073 69.1818 113.941 69.1818 113.587C69.1963 113.388 69.2572 113.196 69.3595 113.025C69.4618 112.854 69.6028 112.709 69.7711 112.602Z" fill="#05338F" fill-opacity="0.75"/>
<path d="M69.7711 125.586L101.901 107.006C102.226 106.817 102.49 106.954 102.49 107.307C102.475 107.506 102.415 107.698 102.312 107.868C102.21 108.038 102.069 108.182 101.901 108.288L69.7711 126.868C69.4458 127.057 69.1818 126.92 69.1818 126.566C69.1963 126.368 69.2572 126.176 69.3596 126.006C69.4619 125.835 69.6029 125.692 69.7711 125.586Z" fill="#05338F" fill-opacity="0.75"/>
<path d="M69.7711 119.094L101.901 100.504C102.226 100.316 102.49 100.448 102.49 100.801C102.475 101 102.415 101.193 102.312 101.364C102.21 101.535 102.069 101.68 101.901 101.787L69.7711 120.362C69.4458 120.551 69.1818 120.419 69.1818 120.06C69.1984 119.865 69.2603 119.675 69.3626 119.508C69.4649 119.34 69.6047 119.198 69.7711 119.094Z" fill="#05338F" fill-opacity="0.75"/>
<path d="M69.7711 122.338L101.901 103.762C102.226 103.574 102.49 103.706 102.49 104.059C102.476 104.258 102.416 104.451 102.313 104.623C102.211 104.794 102.069 104.938 101.901 105.045L69.7711 123.606C69.4458 123.794 69.1818 123.662 69.1818 123.309C69.1984 123.113 69.2603 122.923 69.3625 122.754C69.4648 122.586 69.6046 122.443 69.7711 122.338Z" fill="#05338F" fill-opacity="0.75"/>
<path d="M69.7711 115.85L101.901 97.2705C102.226 97.0819 102.49 97.2186 102.49 97.5722C102.475 97.7704 102.415 97.9624 102.312 98.1327C102.21 98.3031 102.069 98.447 101.901 98.5528L69.7711 117.133C69.4458 117.321 69.1818 117.185 69.1818 116.831C69.1963 116.633 69.2572 116.441 69.3596 116.271C69.4619 116.1 69.6029 115.956 69.7711 115.85Z" fill="#05338F" fill-opacity="0.75"/>
<path d="M65.872 104.795L63.2837 103.333C63.1627 103.243 63.0671 103.123 63.006 102.985C62.9449 102.847 62.9204 102.696 62.9348 102.546V54.1511C62.9601 53.663 63.1236 53.1921 63.4063 52.7933L65.9333 54.2548C65.6762 54.6451 65.5311 55.0984 65.5137 55.5655V103.998C65.4956 104.151 65.5193 104.306 65.5824 104.446C65.6455 104.586 65.7456 104.707 65.872 104.795Z" fill="#263238"/>
<path d="M105.474 31.2763C105.245 31.256 105.016 31.3124 104.823 31.4366L66.7394 53.4252C66.406 53.6338 66.1266 53.9181 65.9238 54.255L63.3921 52.7935C63.5889 52.4772 63.8549 52.2096 64.17 52.0109L102.254 30.027C102.419 29.9218 102.61 29.8632 102.806 29.8573C102.918 29.8564 103.028 29.8839 103.126 29.9374L105.474 31.2763Z" fill="#37474F"/>
<path d="M66.7396 53.4252L104.819 31.4366C105.502 31.0453 106.054 31.3611 106.054 32.1532V80.628C106.031 81.0562 105.908 81.473 105.693 81.8442C105.478 82.2154 105.179 82.5305 104.819 82.7637L66.7348 104.71C66.0559 105.106 65.4996 104.785 65.4996 103.998V55.5656C65.5239 55.1365 65.6488 54.7193 65.8642 54.3474C66.0796 53.9756 66.3795 53.6597 66.7396 53.4252Z" fill="#455A64"/>
<path d="M68.6961 54.9245L102.876 35.1894C103.489 34.8358 103.984 35.1234 103.984 35.8306V79.341C103.964 79.7255 103.853 80.0996 103.66 80.433C103.468 80.7664 103.199 81.0497 102.876 81.2598L68.6961 100.976C68.0832 101.33 67.5881 101.042 67.5881 100.335V56.848C67.6088 56.4629 67.7199 56.0881 67.9124 55.7539C68.1049 55.4197 68.3733 55.1356 68.6961 54.9245Z" fill="#F0F0F0"/>
<mask id="mask2_140_10529" style="mask-type:luminance" maskUnits="userSpaceOnUse" x="67" y="35" width="37" height="67">
<path d="M68.6961 54.9245L102.876 35.1894C103.489 34.8358 103.984 35.1234 103.984 35.8306V79.341C103.964 79.7255 103.853 80.0996 103.66 80.433C103.468 80.7664 103.199 81.0497 102.876 81.2598L68.6961 100.976C68.0832 101.33 67.5881 101.042 67.5881 100.335V56.8433C67.6092 56.4589 67.7205 56.0849 67.9129 55.7516C68.1054 55.4182 68.3737 55.1348 68.6961 54.9245Z" fill="white"/>
</mask>
<g mask="url(#mask2_140_10529)">
<path d="M97.3322 93.7394C92.2735 75.9043 92.217 72.9954 92.5187 70.8927C97.1106 69.7848 99.119 72.9341 100.345 78.2427C100.934 80.7933 102.631 90.5005 103.683 94.5597C104.626 98.1192 105.767 101.938 107.153 104.46C107.265 104.674 107.427 104.857 107.624 104.996C107.822 105.135 108.05 105.224 108.289 105.257C109.576 105.441 109.958 106.162 111.004 106.7C111.825 107.115 112.419 107.011 112.395 107.298C112.334 107.618 112.178 107.912 111.946 108.141C111.715 108.37 111.419 108.523 111.099 108.581C110.583 108.636 110.061 108.603 109.557 108.482C110.178 109.294 110.937 109.99 111.801 110.537C113.819 111.843 114.446 113.837 110.953 114.823C109.581 115.205 107.025 114.771 103.984 110.665C102.972 109.194 102.132 107.612 101.481 105.95C99.7508 101.57 98.3411 97.3036 97.3322 93.7394Z" fill="#FFA8A7"/>
<path d="M85.0509 72.9435C85.0509 72.9435 80.0441 74.7208 78.7523 75.329C82.0525 79.2892 78.1017 90.0949 78.1017 90.0949L80.2091 97.3742L96.0499 91.8252C98.6712 85.2248 99.1851 82.2311 98.9541 80.4207C98.4308 76.3191 95.9792 73.6271 92.5187 70.8926L85.0509 72.9435Z" fill="#05338F" fill-opacity="0.75"/>
<path d="M96.9458 68.5496L88.6859 71.1426C87.4266 71.5382 86.092 71.6321 84.7897 71.4166C83.4875 71.2011 82.2542 70.6824 81.1896 69.9022C80.1249 69.122 79.2586 68.1024 78.6608 66.9256C78.063 65.7488 77.7503 64.4479 77.7482 63.1279V61.3741C77.7482 55.4527 81.9064 49.5406 87.0358 48.1734L87.7288 47.9896C92.8583 46.6129 97.0165 50.2997 97.0165 56.2211V57.8759C97.0165 63.1751 96.9458 68.5496 96.9458 68.5496Z" fill="#37474F"/>
<path d="M80.9445 50.6297C80.4354 50.13 79.582 50.3185 79.0352 51.0493L80.0535 52.0582C79.8123 52.0296 79.5683 52.0774 79.3557 52.1949C78.9869 52.4021 78.6894 52.7161 78.5026 53.0957C78.3157 53.4753 78.2483 53.9025 78.3091 54.3212L80.954 52.9681C80.9401 52.9075 80.9228 52.8476 80.9021 52.789C81.4019 52.0629 81.4349 51.1153 80.9445 50.6297Z" fill="#37474F"/>
<path d="M93.4004 52.6051C94.3433 53.2227 95.6634 54.3306 95.5408 60.5585C95.4371 65.8341 93.9614 67.5266 93.2212 68.1018C92.4811 68.677 91.0526 68.8278 89.6665 68.9315V72.26C89.6665 72.26 92.0662 74.5324 91.9436 76.0316C91.821 77.5308 89.6665 78.7613 86.4135 76.7671C85.2681 76.0036 84.3028 74.9997 83.5847 73.8252L83.613 66.7063C83.613 66.7063 82.7974 67.8378 81.4161 66.81C80.8328 66.3479 80.4435 65.6843 80.3249 64.9496C80.2062 64.215 80.3667 63.4626 80.7749 62.8404C80.9535 62.5633 81.1894 62.3278 81.4667 62.1497C81.744 61.9716 82.0563 61.8551 82.3825 61.8079C82.5737 61.7989 82.7648 61.8289 82.9441 61.896C83.1234 61.9631 83.2872 62.0658 83.4256 62.1981C83.564 62.3303 83.6741 62.4892 83.7493 62.6653C83.8245 62.8413 83.8631 63.0308 83.8629 63.2222V63.6135C83.8629 63.6135 84.8718 63.7691 84.9378 61.7984C84.9755 60.7047 86.2815 58.9697 87.5591 57.876C89.7325 56.0043 92.4999 55.9807 93.4004 52.6051Z" fill="#FFA8A7"/>
<path d="M89.888 60.2332C89.8964 60.4146 89.8489 60.5941 89.7519 60.7475C89.655 60.901 89.5132 61.021 89.3458 61.0913C89.03 61.195 88.7612 60.9734 88.7471 60.6198C88.7384 60.4378 88.7858 60.2576 88.8827 60.1033C88.9796 59.949 89.1215 59.8282 89.2893 59.7571C89.6004 59.6392 89.8739 59.8561 89.888 60.2332Z" fill="#263238"/>
<path d="M90.2699 64.7544L91.953 64.9241C91.9112 65.1901 91.7792 65.4336 91.5792 65.6139C91.3792 65.7941 91.1233 65.9001 90.8545 65.9142C90.3925 65.867 90.1284 65.3484 90.2699 64.7544Z" fill="#F28F8F"/>
<path d="M94.8383 57.3668L93.6832 56.7492C93.8907 56.3108 94.3244 56.0939 94.6261 56.2778C94.7906 56.4004 94.9034 56.58 94.9426 56.7813C94.9818 56.9827 94.9446 57.1914 94.8383 57.3668Z" fill="#263238"/>
<path d="M88.252 59.0781L89.4071 57.8382C89.195 57.5176 88.7659 57.527 88.4642 57.8712C88.3065 58.0246 88.2011 58.2237 88.163 58.4404C88.1249 58.657 88.1561 58.8802 88.252 59.0781Z" fill="#263238"/>
<path d="M94.7017 59.2479C94.7117 59.4302 94.665 59.611 94.5678 59.7656C94.4707 59.9201 94.328 60.0407 94.1595 60.1107C93.8436 60.2144 93.5749 59.9928 93.5607 59.6392C93.5514 59.4571 93.5984 59.2766 93.6954 59.1222C93.7925 58.9678 93.9348 58.847 94.1029 58.7765C94.4141 58.6539 94.6875 58.8755 94.7017 59.2479Z" fill="#263238"/>
<path d="M91.953 59.4363L92.0426 63.3871L93.853 62.2556L91.953 59.4363Z" fill="#F28F8F"/>
<path d="M89.6664 68.9172C88.2049 69.0869 85.197 68.9172 84.7256 67.649C84.8906 68.2497 85.2652 68.7715 85.7816 69.1199C86.6821 69.7658 89.6664 69.9685 89.6664 69.9685V68.9172Z" fill="#F28F8F"/>
<path d="M70.1248 103.833C71.6853 86.79 72.5763 77.1865 78.7524 75.329C79.6717 75.6637 80.525 77.6862 80.6853 79.1525C80.9635 81.6323 80.6287 85.9131 79.0918 88.1101C79.0918 88.1101 77.1541 98.3218 76.4045 104.201C75.8859 108.269 74.7686 114.13 75.0279 117.43C75.1506 118.026 75.4123 118.585 75.7916 119.061L76.8382 120.801C77.0444 121.166 77.2809 121.513 77.5454 121.838C77.7859 122.116 78.064 122.356 78.3233 122.616C78.5166 122.804 78.7052 123.087 78.5449 123.314C78.4828 123.387 78.401 123.441 78.3092 123.469C78.002 123.585 77.6724 123.629 77.3455 123.598C77.0186 123.567 76.7031 123.462 76.4234 123.29C76.0745 123.073 75.7916 122.757 75.4286 122.569C75.4586 123.177 75.6314 123.77 75.9331 124.299C76.1405 124.728 76.3479 125.162 76.579 125.586C76.828 126.011 77.0485 126.452 77.239 126.906C77.4349 127.361 77.4827 127.865 77.3757 128.349C77.2557 128.717 77.035 129.045 76.7384 129.295C76.4418 129.545 76.0812 129.707 75.6973 129.763C74.9261 129.862 74.1436 129.708 73.4674 129.325C71.1431 128.122 70.3652 125.709 70.0729 123.285C69.7891 121.27 69.6316 119.239 69.6014 117.203C69.691 111.819 69.823 107.152 70.1248 103.833Z" fill="#FFA8A7"/>
<path d="M83.6035 73.3348C82.5975 73.5499 81.639 73.9461 80.7748 74.504C80.7748 74.504 83 78.8037 86.8188 79.426C90.6376 80.0483 90.911 77.4789 90.911 77.4789C88.5208 77.5779 86.1069 76.5407 83.6035 73.3348Z" fill="#455A64"/>
<path d="M89.6664 71.6092V72.2598C91.2882 74.3719 91.7832 76.1965 90.8874 77.4788C90.8874 77.4788 93.5606 78.3887 94.032 76.4275C94.5035 74.4662 91.109 71.2886 91.109 71.2886C90.6151 71.3245 90.129 71.4325 89.6664 71.6092Z" fill="#455A64"/>
</g>
<path d="M54.8451 20.4601L52.0164 22.0961C52.0311 21.9709 52.039 21.845 52.04 21.7189V20.9033C52.04 19.4418 51.0169 18.8525 49.7534 19.5785C49.2076 19.9125 48.7411 20.3614 48.3862 20.8939C48.1835 19.0552 46.7408 18.3763 44.9964 19.3852C43.9991 20.0333 43.1692 20.9079 42.5743 21.9378C41.9795 22.9677 41.6366 24.1237 41.5737 25.3114V26.5372C41.5618 27.0243 41.6601 27.5078 41.8613 27.9515L39.504 29.3093C39.1353 29.551 38.8282 29.8755 38.6072 30.257C38.3862 30.6384 38.2574 31.0662 38.2311 31.5063C38.2311 32.3172 38.8015 32.6472 39.504 32.2418L54.8451 23.3926C55.2129 23.1504 55.5191 22.8256 55.7393 22.4442C55.9595 22.0628 56.0875 21.6353 56.1133 21.1956C56.118 20.3847 55.5523 20.0594 54.8451 20.4601Z" fill="#EBEBEB"/>
<path d="M36.1473 12.9453L34.5727 13.544V10.1071C34.5727 7.38215 32.3993 6.72683 30.042 8.08933C27.6847 9.45654 25.7659 12.7709 25.7659 15.4959V15.9956C25.4337 15.8915 25.082 15.8651 24.7379 15.9182C24.3938 15.9713 24.0665 16.1026 23.7811 16.302C22.8858 16.8857 22.1408 17.6723 21.6067 18.598C21.0726 19.5237 20.7644 20.5623 20.7072 21.6295V21.8558L18.5432 23.1098C17.9535 23.4941 17.4626 24.0119 17.1104 24.6213C16.7581 25.2308 16.5545 25.9146 16.516 26.6174C16.516 27.9092 17.4259 28.4325 18.5432 27.7867L36.1473 17.6221C36.7365 17.2376 37.2267 16.7196 37.5781 16.1102C37.9295 15.5007 38.1322 14.817 38.1698 14.1145C38.1698 12.8133 37.2647 12.2994 36.1473 12.9453Z" fill="#EBEBEB"/>
<path d="M134.374 111.347C133.71 110.801 132.687 110.687 131.461 111.145C129.005 112.055 126.657 114.888 126.214 117.467C125.992 118.759 126.294 119.744 126.954 120.296L172.001 160.661C172.916 161.524 174.396 161.736 176.197 161.072C179.629 159.799 182.915 155.843 183.528 152.232C183.854 150.346 183.373 148.932 182.35 148.182L134.374 111.347Z" fill="#05338F" fill-opacity="0.75"/>
<path opacity="0.15" d="M133.245 117.951C135.294 115.483 135.797 112.522 134.371 111.338C132.944 110.154 130.127 111.196 128.079 113.665C126.03 116.134 125.527 119.095 126.953 120.278C128.38 121.462 131.197 120.42 133.245 117.951Z" fill="black"/>
<path d="M117.412 101.593C116.619 101.935 115.919 102.46 115.369 103.125C114.818 103.789 114.432 104.575 114.243 105.417C114.159 105.715 114.156 106.03 114.233 106.33C114.311 106.63 114.468 106.904 114.687 107.123L128.42 118.518C128.675 118.694 128.973 118.799 129.282 118.821C129.591 118.844 129.901 118.783 130.179 118.646C130.971 118.303 131.672 117.778 132.223 117.114C132.774 116.449 133.161 115.664 133.351 114.822C133.436 114.523 133.439 114.206 133.361 113.905C133.282 113.605 133.124 113.33 132.904 113.111L119.175 101.72C118.919 101.544 118.621 101.439 118.311 101.417C118.001 101.395 117.69 101.455 117.412 101.593Z" fill="#263238"/>
<path opacity="0.1" d="M132.045 119.159L178.55 159.751C177.826 160.289 177.033 160.726 176.192 161.053C174.391 161.717 172.892 161.524 171.992 160.638L126.977 120.305C127.647 120.856 128.66 120.96 129.891 120.508C130.68 120.183 131.409 119.727 132.045 119.159Z" fill="black"/>
<path d="M141.493 57.6019C141.493 57.1304 141.456 56.659 141.418 56.1875C141.38 55.716 141.361 55.2682 141.314 54.8156C141.314 54.5091 141.258 54.2121 141.22 53.9057C141.14 53.1183 141.027 52.3357 140.895 51.5955C140.838 51.2561 140.777 50.9119 140.711 50.5725C140.645 50.233 140.579 49.9313 140.513 49.6296C140.315 48.7715 140.103 47.9324 139.862 47.1262C139.735 46.7443 139.617 46.3624 139.49 45.99C139.465 45.9341 139.446 45.8756 139.433 45.8155C139.296 45.4431 139.164 45.0848 139.023 44.7312C138.882 44.3776 138.702 43.9203 138.514 43.5337C138.382 43.2461 138.259 42.9679 138.108 42.6898C138.023 42.4814 137.922 42.2796 137.807 42.0863C137.69 41.838 137.561 41.5957 137.42 41.3603C137.392 41.3047 137.361 41.2511 137.326 41.2C137.213 40.9926 137.081 40.7804 136.958 40.573C136.835 40.3655 136.784 40.3089 136.703 40.1769C136.11 39.237 135.44 38.3477 134.7 37.5179C134.572 37.3765 134.445 37.2351 134.332 37.0983L134.016 36.7683C133.889 36.6316 133.747 36.5043 133.606 36.3629C133.226 35.9776 132.823 35.6155 132.399 35.2785C132.201 35.1088 131.994 34.9485 131.781 34.8071C131.569 34.6656 131.367 34.4959 131.145 34.3356C130.812 34.0913 130.466 33.8662 130.108 33.6615L129.83 33.487L129.773 33.4399L123.272 29.6211L123.177 29.5645C120.008 27.7989 116.429 26.8997 112.801 26.9574C107.403 26.9574 101.316 28.7253 94.862 32.4404C72.7037 45.2403 54.7366 76.361 54.7366 101.956C54.7366 114.723 59.2012 123.7 66.4192 127.886L66.4852 127.919L72.996 131.729L73.0714 131.771L73.1657 131.823L73.2694 131.879C73.5806 132.059 73.8917 132.224 74.2123 132.379C74.5329 132.535 75.0138 132.752 75.4192 132.907C75.7802 133.065 76.1501 133.202 76.5272 133.317C76.7186 133.386 76.9138 133.444 77.1117 133.492C77.3203 133.571 77.5347 133.634 77.7529 133.68C77.9669 133.745 78.1841 133.798 78.4035 133.841C78.5581 133.886 78.7156 133.921 78.875 133.944C79.1531 134.001 79.4549 134.062 79.7472 134.1C79.8113 134.12 79.878 134.131 79.9452 134.133C80.2893 134.189 80.6429 134.241 80.9871 134.274C86.9651 134.901 93.9143 133.214 101.354 128.923C123.512 116.128 141.498 84.9933 141.498 59.4075C141.526 58.8135 141.512 58.21 141.493 57.6019ZM68.3616 117.995C67.4336 114.572 66.9768 111.038 67.0038 107.491C67.0038 83.2395 84.7493 52.496 105.753 40.3702C108.819 38.5542 112.129 37.1842 115.582 36.3016C117.238 35.8922 118.936 35.6786 120.641 35.6651C121.5 35.6612 122.358 35.7274 123.206 35.8631H123.276C127.576 40.9501 128.208 49.0968 128.208 53.4531C128.208 77.7046 110.481 108.448 89.4685 120.569C84.1223 123.652 78.9834 125.284 74.5753 125.284C73.6604 125.29 72.7488 125.174 71.8645 124.94C70.234 122.889 69.0418 120.525 68.3616 117.995Z" fill="#05338F" fill-opacity="0.75"/>
<path opacity="0.15" d="M135.756 57.7099C135.756 70.5947 130.749 85.3041 122.904 98.0899C122.536 98.6981 122.159 99.2921 121.772 99.8908C121.447 100.405 121.112 100.919 120.764 101.428C120.028 102.522 119.283 103.601 118.501 104.657C118.133 105.162 117.76 105.661 117.379 106.152C116.997 106.642 116.549 107.231 116.124 107.764C115.318 108.782 114.484 109.773 113.635 110.739C113.079 111.385 112.508 112.017 111.933 112.625C107.313 117.594 102.264 121.79 97.0118 124.817C96.0076 125.396 95.0175 125.924 94.0322 126.401C90.8378 128.023 87.3769 129.057 83.8158 129.451C83.2406 129.508 82.6749 129.531 82.128 129.531C81.8357 129.531 81.5575 129.531 81.2794 129.508H81.2463C80.7123 129.485 80.1802 129.43 79.6528 129.343C79.3935 129.305 79.1389 129.262 78.8938 129.206C78.6474 129.158 78.4035 129.099 78.163 129.027C75.6755 128.395 73.4643 126.964 71.8691 124.953C72.7518 125.188 73.6619 125.304 74.5753 125.297C78.9834 125.297 84.1222 123.671 89.4685 120.583C110.481 108.462 128.208 77.7184 128.208 53.4668C128.208 49.1106 127.576 40.9639 123.276 35.8769H123.206C128.684 36.7538 131.8 40.4783 133.554 44.7826C134.052 46.0065 134.452 47.2676 134.752 48.5543C134.752 48.625 134.785 48.6957 134.799 48.7664C134.855 48.9974 134.912 49.2379 134.954 49.4642C134.997 49.6905 135.044 49.9356 135.086 50.1431C135.1 50.2006 135.111 50.2588 135.119 50.3175C135.166 50.5627 135.209 50.8031 135.247 51.0388C135.383 51.9393 135.497 52.8162 135.572 53.6554C135.572 53.9006 135.614 54.1269 135.629 54.3626C135.643 54.5983 135.657 54.7162 135.666 54.8859C135.666 54.9566 135.666 55.032 135.666 55.1028C135.666 55.2913 135.69 55.4752 135.699 55.6591C135.699 55.7109 135.699 55.7581 135.699 55.8147C135.699 56.0457 135.699 56.2861 135.723 56.4983C135.751 56.9037 135.756 57.3186 135.756 57.7099Z" fill="black"/>
<path opacity="0.1" d="M72.4395 131.431L66.4143 127.891C59.1964 123.671 54.7317 114.69 54.7317 101.961C54.7317 90.5422 58.31 78.0345 64.2315 66.5499L71.0911 70.496C65.165 81.9806 61.2377 94.361 61.2377 105.775C61.2377 118.254 65.4855 127.108 72.4395 131.431Z" fill="black"/>
<path opacity="0.4" d="M129.834 33.4871L129.778 33.4399L123.281 29.6211H123.258L123.168 29.5646C120.001 27.8012 116.425 26.9021 112.801 26.9574C107.407 26.9574 101.316 28.7207 94.8619 32.4404C82.6041 39.5122 71.5862 52.2415 64.2174 66.5548L71.0441 70.5716L70.8979 70.8545C78.2761 56.7109 89.2186 43.9203 101.368 36.2639C112.367 29.3336 122.805 29.2393 130.094 33.6709L129.834 33.4871Z" fill="white"/>
<path opacity="0.3" d="M132.262 55.6546C132.262 79.9061 114.517 110.65 93.5135 122.775C90.4467 124.591 87.1369 125.961 83.6837 126.844C82.0283 127.254 80.3304 127.467 78.625 127.48C76.873 127.503 75.1316 127.206 73.4862 126.604C70.879 124.416 69.3044 121.248 68.3615 117.995C67.4335 114.572 66.9767 111.038 67.0037 107.491C67.0037 83.2393 84.7492 52.4958 105.752 40.37C108.819 38.554 112.129 37.184 115.582 36.3014C117.238 35.892 118.936 35.6784 120.641 35.6649C122.393 35.6431 124.134 35.9386 125.78 36.5371C128.392 38.7247 129.966 41.8976 130.909 45.1506C131.834 48.5745 132.289 52.1081 132.262 55.6546Z" fill="white"/>
<mask id="mask3_140_10529" style="mask-type:luminance" maskUnits="userSpaceOnUse" x="67" y="35" width="62" height="91">
<path d="M89.4684 120.592C110.481 108.471 128.208 77.7275 128.208 53.4759C128.208 49.1197 127.576 40.973 123.276 35.886H123.206C122.358 35.7503 121.5 35.684 120.641 35.688C118.936 35.7014 117.238 35.915 115.582 36.3244C112.134 37.2005 108.827 38.5625 105.762 40.3695C84.7586 52.4953 67.0131 83.2388 67.0131 107.49C66.9861 111.037 67.4429 114.571 68.3709 117.994C69.0625 120.581 70.295 122.991 71.9869 125.066C72.8447 125.215 73.714 125.288 74.5846 125.283C78.9833 125.302 84.1221 123.675 89.4684 120.592Z" fill="white"/>
</mask>
<g mask="url(#mask3_140_10529)">
<path d="M122.315 20.5267C121.983 20.5005 121.652 20.5833 121.372 20.7624L65.4103 53.0664C64.9217 53.3729 64.5116 53.7894 64.2128 54.2827L60.5024 52.1376C60.7889 51.6712 61.1794 51.2775 61.6434 50.9873L117.586 18.6927C117.829 18.5381 118.109 18.4518 118.397 18.4428C118.562 18.4415 118.724 18.4821 118.868 18.5607L122.315 20.5267Z" fill="#37474F"/>
<path d="M65.4151 53.0617L121.358 20.7671C122.357 20.1872 123.173 20.654 123.173 21.8138V93.0032C123.138 93.6324 122.956 94.2445 122.64 94.79C122.325 95.3355 121.886 95.799 121.358 96.1431L65.4151 128.405C64.4109 128.98 63.6 128.513 63.6 127.353V56.1874C63.6365 55.5607 63.8198 54.9512 64.1351 54.4083C64.4504 53.8654 64.8888 53.4041 65.4151 53.0617Z" fill="#455A64"/>
<path d="M68.2861 55.2683L118.491 26.2786C119.387 25.76 120.118 26.1796 120.118 27.2215V91.1317C120.089 91.698 119.926 92.2495 119.644 92.7411C119.361 93.2327 118.966 93.6505 118.491 93.9604L68.2814 122.898C67.3809 123.417 66.6501 122.997 66.6501 121.955V58.0734C66.6845 57.5105 66.8504 56.9635 67.1345 56.4763C67.4187 55.9891 67.8131 55.5754 68.2861 55.2683Z" fill="#F0F0F0"/>
<mask id="mask4_140_10529" style="mask-type:luminance" maskUnits="userSpaceOnUse" x="66" y="26" width="55" height="98">
<path d="M68.286 55.2687L118.491 26.279C119.387 25.7604 120.118 26.18 120.118 27.2219V91.1321C120.089 91.6985 119.926 92.2499 119.643 92.7415C119.361 93.2331 118.966 93.6509 118.491 93.9609L68.2813 122.899C67.3808 123.417 66.65 122.998 66.65 121.956V58.0738C66.6844 57.5109 66.8503 56.9639 67.1344 56.4767C67.4185 55.9895 67.8129 55.5758 68.286 55.2687Z" fill="white"/>
</mask>
<g mask="url(#mask4_140_10529)">
<path d="M110.349 112.29C102.919 86.0918 102.839 81.8016 103.277 78.7324C110.024 77.1059 112.961 81.7261 114.771 89.5287C115.644 93.3003 118.133 107.548 119.679 113.497C121.037 118.726 122.739 124.341 124.771 128.075C124.937 128.387 125.175 128.656 125.465 128.858C125.755 129.06 126.089 129.191 126.44 129.239C128.326 129.508 128.891 130.573 130.433 131.356C131.64 131.974 132.531 131.827 132.475 132.242C132.386 132.714 132.156 133.147 131.814 133.484C131.473 133.82 131.037 134.045 130.565 134.128C129.919 134.241 129.42 134.128 128.307 133.977C129.218 135.175 130.335 136.2 131.607 137.004C134.568 138.923 135.492 141.874 130.358 143.298C128.345 143.854 124.587 143.218 120.127 137.193C118.64 135.034 117.406 132.712 116.45 130.272C113.904 123.789 111.839 117.524 110.349 112.29Z" fill="#FFA8A7"/>
<path d="M92.3161 81.7355C92.3161 81.7355 84.9615 84.3473 83.0568 85.2431C87.8751 91.0561 82.1139 106.93 82.1139 106.93L85.2113 117.627C81.8782 123.445 108.006 112.644 108.482 109.471C112.329 99.745 113.079 95.3794 112.725 92.7204C111.962 86.6952 108.36 82.7397 103.296 78.7229L92.3161 81.7355Z" fill="#05338F" fill-opacity="0.75"/>
<path d="M85.2019 117.627C91.4817 117.462 105.639 112.041 108.473 109.471C112.32 99.7451 113.07 95.3795 112.716 92.7205" fill="#05338F" fill-opacity="0.75"/>
<path d="M109.783 75.2766L97.653 79.0859C95.8021 79.6675 93.8403 79.8053 91.9264 79.4881C90.0124 79.1709 88.2 78.4077 86.6357 77.2602C85.0713 76.1127 83.7991 74.613 82.9218 72.8826C82.0445 71.1523 81.5869 69.2397 81.5858 67.2996V64.7679C81.5858 56.0696 87.6911 47.3807 95.225 45.3629L96.2433 45.0894C103.787 43.0669 109.887 48.4839 109.887 57.1869V59.6149C109.887 67.3845 109.783 75.2766 109.783 75.2766Z" fill="#37474F"/>
<path d="M86.2769 48.9554C85.5367 48.2247 84.2779 48.484 83.4717 49.573L84.9709 51.0534C84.6157 51.0156 84.2574 51.0863 83.9432 51.2561C83.4008 51.5602 82.9638 52.022 82.6901 52.5803C82.4165 53.1386 82.3191 53.7669 82.4109 54.3819L86.2957 52.3971C86.2753 52.3057 86.2485 52.2159 86.2156 52.1283C86.9558 51.0628 86.9982 49.6673 86.2769 48.9554Z" fill="#37474F"/>
<path d="M104.574 51.8641C105.988 52.7646 107.902 54.3911 107.719 63.542C107.568 71.2927 105.399 73.7819 104.315 74.6211C103.23 75.4603 101.128 75.6866 99.091 75.8422V80.7312C99.091 80.7312 102.613 84.0738 102.438 86.2425C102.264 88.4111 99.091 90.2498 94.3151 87.3221C92.6385 86.1983 91.2248 84.7251 90.1711 83.0036L90.2135 72.542C90.2135 72.542 89.016 74.211 86.984 72.7023C86.1271 72.0224 85.5553 71.0467 85.3808 69.9669C85.2064 68.887 85.4419 67.7809 86.0411 66.8657C86.3024 66.459 86.6481 66.1133 87.0549 65.8522C87.4616 65.591 87.9199 65.4206 88.3984 65.3524C88.6808 65.3353 88.9637 65.3771 89.2292 65.4749C89.4947 65.5728 89.737 65.7247 89.9408 65.921C90.1446 66.1172 90.3055 66.3537 90.4133 66.6153C90.5211 66.8769 90.5735 67.158 90.5671 67.4409V68.0161C90.5671 68.0161 92.0522 68.2471 92.1512 65.3524C92.2077 63.7447 94.1266 61.2036 96.0029 59.5912C99.1994 56.8521 103.254 56.8191 104.574 51.8641Z" fill="#FFA8A7"/>
<path d="M99.4163 63.0614C99.4296 63.3289 99.3603 63.5942 99.2178 63.821C99.0753 64.0479 98.8664 64.2254 98.6196 64.3296C98.1481 64.4804 97.7615 64.1551 97.7379 63.6035C97.7263 63.3368 97.7963 63.073 97.9387 62.8472C98.0811 62.6214 98.289 62.4444 98.5347 62.34C98.9967 62.1892 99.3927 62.5145 99.4163 63.0614Z" fill="#263238"/>
<path d="M99.9772 69.7087L102.448 69.9586C102.24 70.8308 101.505 71.4814 100.84 71.4107C100.175 71.34 99.7698 70.5809 99.9772 69.7087Z" fill="#F28F8F"/>
<path d="M106.705 58.8559L105.008 57.9508C105.319 57.3049 105.951 57.0078 106.422 57.2389C106.894 57.4699 106.997 58.2101 106.705 58.8559Z" fill="#263238"/>
<path d="M97.0118 61.3733L98.7091 59.5582C98.3979 59.0867 97.7662 59.0867 97.2947 59.6006C97.0678 59.8292 96.9183 60.1233 96.8676 60.4413C96.8168 60.7594 96.8673 61.0854 97.0118 61.3733Z" fill="#263238"/>
<path d="M106.488 61.6186C106.501 61.8862 106.432 62.1514 106.29 62.3783C106.147 62.6051 105.938 62.7827 105.691 62.8868C105.22 63.033 104.833 62.7124 104.81 62.1608C104.798 61.8941 104.868 61.6302 105.01 61.4044C105.153 61.1786 105.361 61.0017 105.606 60.8973C106.069 60.7464 106.465 61.0717 106.488 61.6186Z" fill="#263238"/>
<path d="M102.448 61.8968L102.584 67.7004L105.243 66.0362L102.448 61.8968Z" fill="#F28F8F"/>
<path d="M99.091 75.8423C96.9412 76.0922 92.5236 75.8093 91.8353 73.9801C92.0786 74.8617 92.6286 75.6274 93.3864 76.1394C94.7065 77.0823 99.091 77.3887 99.091 77.3887V75.8423Z" fill="#F28F8F"/>
<path d="M70.403 127.113C72.699 102.074 74.0049 87.9824 83.0757 85.2432C84.4287 85.7147 85.6828 88.7225 85.9044 90.8582C86.3098 94.4979 85.8195 100.792 83.5471 104.031C83.5471 104.031 80.7184 119.032 79.601 127.665C78.8373 133.643 77.1966 142.256 77.5785 147.103C77.6539 148.017 78.2386 148.729 78.7006 149.498L80.2375 152.048C80.541 152.586 80.8895 153.097 81.2794 153.576C81.6283 153.986 82.0385 154.339 82.4203 154.717C82.7032 154.995 82.9814 155.429 82.7456 155.744C82.6552 155.851 82.5356 155.93 82.4015 155.971C81.9475 156.144 81.4597 156.211 80.9757 156.166C80.4918 156.122 80.0246 155.966 79.6105 155.711C79.0966 155.391 78.6676 154.924 78.1443 154.651C78.1888 155.543 78.444 156.412 78.8892 157.187C79.1909 157.823 79.4926 158.46 79.8321 159.073C80.2063 159.691 80.5386 160.334 80.8268 160.996C81.1135 161.667 81.1843 162.41 81.0295 163.123C80.8494 163.662 80.5231 164.14 80.0869 164.505C79.6507 164.87 79.1218 165.106 78.5591 165.188C77.4254 165.329 76.2761 165.101 75.2825 164.537C71.8739 162.774 70.733 159.228 70.2993 155.669C69.8904 152.708 69.6684 149.724 69.6345 146.735C69.7477 138.857 69.9315 131.983 70.403 127.113Z" fill="#FFA8A7"/>
<path d="M90.171 82.3109C88.6862 82.6253 87.2709 83.2068 85.9939 84.0269C85.9939 84.0269 89.2658 90.3444 94.8761 91.259C100.486 92.1737 100.882 88.3973 100.882 88.3973C97.4078 88.5435 93.8577 87.0254 90.171 82.3109Z" fill="#455A64"/>
<path d="M99.0908 79.76V80.7029C101.472 83.8051 102.202 86.483 100.882 88.3688C100.882 88.3688 104.814 89.703 105.503 86.8271C106.191 83.9513 101.212 79.2839 101.212 79.2839C100.486 79.338 99.7709 79.4985 99.0908 79.76Z" fill="#455A64"/>
</g>
</g>
<path d="M164.029 102.39C167.296 102.027 168.55 102.984 169.766 105.69C170.926 108.274 174.481 116.062 174.302 117.878C174.123 119.693 166.692 127.42 166.692 127.42L164.576 124.846L169.168 117.123L165.514 109.33L164.029 102.39Z" fill="#FFA8A7"/>
<path d="M157.466 99.8538L158.079 106.266L163.807 105.907L163.35 98.7977L157.466 99.8538Z" fill="#FFA8A7"/>
<path d="M150.126 87.5299C150.076 87.2286 150.076 86.9213 150.126 86.62C150.198 86.2301 150.353 85.8605 150.582 85.5367C150.811 85.2129 151.107 84.9426 151.45 84.7445C151.794 84.5464 152.176 84.4251 152.571 84.3892C152.965 84.3532 153.363 84.4034 153.737 84.5362C153.626 83.9475 153.716 83.3387 153.992 82.8071C154.268 82.2755 154.714 81.8518 155.26 81.6037C155.683 81.443 156.135 81.3693 156.588 81.3871C157.041 81.405 157.485 81.5139 157.895 81.7074C158.387 81.8802 158.796 82.232 159.041 82.6928C159.331 82.207 159.757 81.8169 160.266 81.5711C160.776 81.3252 161.346 81.2342 161.907 81.3095C162.468 81.3848 162.994 81.623 163.421 81.9946C163.847 82.3662 164.155 82.8549 164.307 83.4C165.179 83.2067 166.41 83.5933 166.801 84.4607C167.244 85.4461 166.702 86.6671 166.905 87.6996C167.037 88.3691 167.324 88.9961 167.447 89.675C167.572 90.4312 167.643 91.1953 167.659 91.9616C167.786 95.125 160.436 97.1805 160.587 99.3539L156.679 94.5875C156.679 94.3895 156.122 93.8945 156 93.7295C155.764 93.4136 155.557 93.0789 155.34 92.7489C154.667 91.7854 153.73 91.0359 152.643 90.5896C151.875 90.236 151.21 89.6925 150.71 89.0103C150.406 88.5675 150.206 88.0613 150.126 87.5299Z" fill="#263238"/>
<path d="M153.214 92.8196C153.214 92.8196 151.945 94.7055 152.11 94.9035C152.407 95.0981 152.736 95.2386 153.082 95.3183L153.214 92.8196Z" fill="#F28F8F"/>
<path d="M157.089 86.8321C155.858 87.4591 153.727 88.6142 153.176 93.0836C152.615 97.6661 153.647 99.2596 154.288 99.8583C154.717 100.264 156.933 100.41 158.088 100.061C159.531 99.6179 162.666 98.0998 164.132 95.7331C165.858 92.9468 166.216 89.2365 164.222 87.7844C161.417 85.7525 158.135 86.3182 157.089 86.8321Z" fill="#FFA8A7"/>
<path d="M154.406 99.9573C154.925 100.24 156.401 100.358 157.499 100.198L157.461 99.3774C156.99 99.5799 156.501 99.7378 156 99.8488C155.477 99.9641 154.94 100.001 154.406 99.9573Z" fill="#F28F8F"/>
<path d="M156.551 86.7094C156.028 86.9006 155.541 87.1814 155.114 87.5392C154.899 87.7172 154.726 87.9391 154.604 88.1898C154.511 88.4231 154.476 88.6753 154.501 88.9252C154.537 89.2692 154.663 89.5976 154.866 89.8779C155.068 90.1583 155.341 90.3808 155.656 90.5235C155.488 90.7491 155.374 91.0093 155.32 91.285C155.266 91.5607 155.274 91.845 155.345 92.117C155.57 92.7503 155.961 93.3118 156.476 93.7435C156.502 93.7735 156.534 93.7976 156.57 93.8142C156.607 93.8201 156.644 93.8177 156.679 93.8071C156.714 93.7965 156.746 93.7779 156.773 93.7529C157.546 93.2343 158.027 92.3386 159.13 92.7016C160.568 93.173 160.498 94.9457 159.371 96.0489C158.969 96.4556 158.436 96.7076 157.867 96.7608C157.578 96.7675 157.296 96.6686 157.075 96.4826C157.075 96.4826 157.117 98.7928 159.126 99.7121C160.526 100.12 162.011 100.138 163.421 99.7639C164.18 98.7975 165.453 97.567 166.499 96.4638C169.945 92.8383 170.143 87.5722 165.056 85.9079C164.882 85.8514 164.708 85.7995 164.528 85.7524C162.893 85.3254 161.179 85.2882 159.526 85.6439C158.712 85.8196 157.921 86.0902 157.169 86.4501L156.551 86.7094Z" fill="#263238"/>
<path d="M156.386 95.3606C156.253 95.3157 156.13 95.2445 156.024 95.1511C155.919 95.0578 155.833 94.9442 155.773 94.8171C155.712 94.69 155.677 94.552 155.671 94.4113C155.665 94.2707 155.687 94.1301 155.736 93.9981C155.836 93.73 156.037 93.5122 156.297 93.3921C156.556 93.272 156.853 93.2594 157.122 93.3569L156.386 95.3606Z" fill="#263238"/>
<path d="M156.952 183.287C157.158 183.916 157.331 184.555 157.471 185.201C157.617 185.913 157.824 187.087 157.574 187.634C157.325 188.181 156.353 188.515 154.849 188.501C153.878 188.501 152.36 189.157 151.318 189.736C150.276 190.316 148.018 190.576 146.877 190.439C145.538 190.283 144.152 189.496 143.935 188.954C143.718 188.412 143.539 187.638 147.16 186.479C147.193 186.479 151.545 185.064 153.072 183.367L156.952 183.287Z" fill="#263238"/>
<path d="M156.952 183.386L156.259 183.301L153.072 183.367C151.545 185.05 147.193 186.469 147.16 186.478L146.58 186.672C145.953 187.181 146.486 188.044 147.995 188.176C149.503 188.308 154.147 186.761 155.179 186.247C155.72 185.993 156.175 185.587 156.49 185.079C156.805 184.571 156.965 183.983 156.952 183.386Z" fill="#FFA8A7"/>
<path d="M156.952 182.019C156.952 182.019 156.952 182.891 156.952 183.386C156.952 183.881 156.367 184.626 154.845 184.574C153.774 184.536 153.03 184.249 153.072 183.367V182.099L156.952 182.019Z" fill="#FFA8A7"/>
<path d="M167.183 177.559C167.456 177.672 167.513 178.2 167.527 179.251C167.527 180.043 167.668 181.434 166.73 181.684C165.792 181.934 164.439 181.759 163.859 180.996C163.142 180.053 162.661 179.204 161.634 178.04C160.738 177.026 159.748 176.078 159.432 174.678C159.13 173.419 159.432 172.882 160.29 172.542C161.148 172.203 161.935 172.481 163.119 173.485C163.453 173.709 163.811 173.897 164.184 174.046C164.981 174.282 166.909 177.446 167.183 177.559Z" fill="#263238"/>
<path d="M167.206 176.587L167.173 177.874C167.173 177.874 166.31 179.562 163.916 177.874C163.864 177.752 163.651 175.258 163.651 175.258L167.206 176.587Z" fill="#FFA8A7"/>
<path d="M164.194 174.051C163.82 173.902 163.463 173.714 163.128 173.49C162.185 173.179 160.13 173.537 161.049 174.937C161.809 176.093 162.782 177.093 163.916 177.884C165 178.417 165.382 177.757 165.382 177.757L164.995 174.735C164.784 174.449 164.51 174.215 164.194 174.051Z" fill="#FFA8A7"/>
<path d="M168.936 158.766C168.714 156.5 168.24 154.266 167.522 152.105C167.522 152.105 168.333 146.419 168.969 140.96C170.469 128.155 169.469 127.952 167.659 123.516C167.659 123.516 151.243 121.404 150.559 128.23C149.701 136.717 150.088 153.217 150.234 156.235C150.38 159.252 150.621 160.615 151.516 166.932C152.2 171.741 152.846 182.25 152.846 182.25C154.996 183.489 157.089 182.037 157.089 182.037C157.089 182.037 159.144 169.11 159.097 165.631C159.064 163.058 158.698 160.5 158.008 158.022C158.008 158.022 159.423 144.165 159.757 141.964C159.757 141.964 160.153 146.381 160.299 149.399C160.446 152.416 161.242 155.311 161.983 160.926C162.605 165.796 163.642 175.96 163.642 175.96C165.797 177.2 167.301 176.639 167.301 176.639C167.301 176.639 169.432 162.991 168.936 158.766Z" fill="#05338F" fill-opacity="0.75"/>
<g opacity="0.4">
<path d="M168.936 158.766C168.714 156.5 168.24 154.266 167.522 152.105C167.522 152.105 168.333 146.419 168.969 140.96C170.469 128.155 169.469 127.952 167.659 123.516C167.659 123.516 151.243 121.404 150.559 128.23C149.701 136.717 150.088 153.217 150.234 156.235C150.38 159.252 150.621 160.615 151.516 166.932C152.2 171.741 152.846 182.25 152.846 182.25C154.996 183.489 157.089 182.037 157.089 182.037C157.089 182.037 159.144 169.11 159.097 165.631C159.064 163.058 158.698 160.5 158.008 158.022C158.008 158.022 159.423 144.165 159.757 141.964C159.757 141.964 160.153 146.381 160.299 149.399C160.446 152.416 161.242 155.311 161.983 160.926C162.605 165.796 163.642 175.96 163.642 175.96C165.797 177.2 167.301 176.639 167.301 176.639C167.301 176.639 169.432 162.991 168.936 158.766Z" fill="black"/>
</g>
<path opacity="0.15" d="M159.757 141.94L160.549 135.953C162.863 135.949 165.108 135.167 166.923 133.732C166.923 133.732 165.849 135.92 161.488 136.877L160.634 143.039L160.328 149.828C160.183 147.175 159.993 144.546 159.757 141.94Z" fill="black"/>
<path d="M168.234 105.059C167.678 103.409 166.541 102.437 164.029 102.409H163.585C163.406 103.352 160.46 104.172 157.787 103.229C157.419 103.295 156.146 103.437 155.561 103.517L154.284 103.701C152.341 104.337 151.483 107.718 151.295 113.069C151.106 118.42 150.309 129.871 150.309 129.871C150.309 129.871 154.491 132.115 161.087 131.248C166.994 130.47 169.615 127.005 169.413 127.439C168.518 124.488 167.39 121.614 166.037 118.844C169.149 111.221 169.064 107.515 168.234 105.059Z" fill="#455A64"/>
<path d="M157.82 131.455C158.912 131.469 160.004 131.404 161.087 131.262C166.475 130.555 169.182 127.604 169.408 127.424C168.525 124.48 167.398 121.614 166.037 118.858C167.612 114.997 168.366 112.145 168.621 109.948C168.366 111.551 165.999 117.755 162.902 119.612C162.902 119.612 164.646 119.886 166.141 121.937C167.635 123.987 166.409 131.017 157.82 131.455Z" fill="#37474F"/>
<path d="M155.561 103.531C152.987 103.856 150.951 104.394 149.824 106.831C147.938 110.994 145.859 114.412 144.36 116.02C142.757 117.736 136.185 120.734 134.704 120.513C133.224 120.291 131.748 118.57 130.985 119.009C130.221 119.447 131.635 121.102 131.541 121.475C131.447 121.847 128.764 121.649 127.496 120.753C126.228 119.857 125.756 121.696 127.397 123.629C129.037 125.562 132.111 125.703 135.473 125.043C138.834 124.383 145.147 122.606 147.731 120.489C150.847 117.924 151.908 115.982 153.232 113.681C158.018 108.741 155.561 103.531 155.561 103.531Z" fill="#FFA8A7"/>
</svg>
