<svg width="208" height="208" viewBox="0 0 208 208" fill="none" xmlns="http://www.w3.org/2000/svg">
<path opacity="0.7" d="M30.8036 191.177C71.1219 212.87 136.491 212.875 176.81 191.177C217.128 169.479 217.128 134.296 176.81 112.598C136.491 90.8998 71.1219 90.8998 30.8036 112.598C-9.51476 134.296 -9.51965 169.479 30.8036 191.177Z" fill="#F0F0F0"/>
<path d="M55.5908 142.501C70.9835 142.501 83.4618 136.6 83.4618 129.322C83.4618 122.043 70.9835 116.143 55.5908 116.143C40.1981 116.143 27.7198 122.043 27.7198 129.322C27.7198 136.6 40.1981 142.501 55.5908 142.501Z" fill="#E0E0E0"/>
<path d="M20.5651 128.463L23.6977 126.688C23.6977 126.688 25.2029 118.475 24.0789 111.415C22.4955 101.485 15.6829 98.0613 13.21 99.0456C10.7372 100.03 10.1556 102.973 14.6224 108.709C17.281 112.084 20.653 119.25 20.5651 128.463Z" fill="#05338F" fill-opacity="0.75"/>
<g opacity="0.1">
<path d="M20.5652 128.463L23.6978 126.688C23.6978 126.688 25.203 118.475 24.079 111.415C22.4956 101.485 15.683 98.0613 13.2102 99.0456C10.7373 100.03 10.1557 102.973 14.6225 108.709C17.2811 112.084 20.6532 119.25 20.5652 128.463Z" fill="black"/>
</g>
<path d="M21.7035 124.521H21.6791C21.6207 124.511 21.5683 124.48 21.5328 124.433C21.4973 124.386 21.4814 124.327 21.4885 124.269C22.7738 114.993 19.0058 104.811 14.7736 100.689C14.7334 100.648 14.7111 100.592 14.7113 100.534C14.7115 100.477 14.7342 100.421 14.7747 100.38C14.8152 100.338 14.8703 100.314 14.9284 100.312C14.9865 100.31 15.0432 100.331 15.0864 100.369C19.3968 104.549 23.2381 114.916 21.9283 124.332C21.9201 124.385 21.8928 124.433 21.8515 124.468C21.8102 124.503 21.7577 124.522 21.7035 124.521Z" fill="white"/>
<path d="M11.8758 133.448C11.3871 133.729 10.3608 133.114 9.96984 132.852C9.29998 132.398 8.75823 131.782 8.3962 131.063C7.99486 130.244 7.8583 129.323 8.00524 128.425C8.08348 127.95 8.19617 127.482 8.34244 127.024L8.7383 125.661C8.89637 125.221 8.96449 124.755 8.93867 124.289C8.81649 123.358 7.96125 122.703 7.22819 122.141C6.38762 121.52 5.51772 120.686 5.5226 119.576C5.57896 118.708 5.92256 117.883 6.50002 117.229C7.0376 116.55 7.6778 115.954 8.16651 115.236C8.54951 114.737 8.75101 114.123 8.7383 113.496C8.68383 113.11 8.55259 112.739 8.35222 112.405C7.89433 111.711 7.49391 110.981 7.15489 110.223C6.87632 109.437 6.91542 108.463 7.53608 107.9C7.81247 107.693 8.12798 107.544 8.46382 107.46C8.79965 107.377 9.14895 107.362 9.49091 107.415C10.133 107.491 10.7504 107.706 11.2991 108.046C13.0927 109.015 14.119 111.139 16.02 111.925C16.7772 112.155 17.5474 112.342 18.3267 112.482C18.7137 112.553 19.0814 112.704 19.4062 112.924C19.7311 113.145 20.0059 113.43 20.2131 113.762C20.912 115.149 19.6169 116.851 20.1105 118.325C20.5455 119.624 21.8161 120.119 22.554 121.292C22.844 121.81 22.9603 122.406 22.8864 122.994C22.8271 123.99 22.5835 124.966 22.168 125.874C21.7013 126.775 21.1688 127.64 20.5748 128.464C20.5357 128.493 11.9491 133.419 11.8758 133.448Z" fill="#05338F" fill-opacity="0.75"/>
<path d="M16.9584 130.757C16.9291 130.756 16.9002 130.75 16.8734 130.738C16.8466 130.726 16.8225 130.709 16.8025 130.688C16.7825 130.667 16.7669 130.642 16.7567 130.614C16.7466 130.587 16.742 130.558 16.7433 130.529C17.1099 121.729 12.9314 112.017 9.90144 109.195C9.88026 109.175 9.86321 109.151 9.85125 109.125C9.8393 109.099 9.83268 109.07 9.83177 109.041C9.83087 109.013 9.83569 108.984 9.84596 108.957C9.85624 108.93 9.87177 108.905 9.89166 108.884C9.91156 108.863 9.93543 108.846 9.96192 108.834C9.9884 108.823 10.017 108.816 10.046 108.815C10.0751 108.814 10.104 108.819 10.1312 108.829C10.1584 108.839 10.1833 108.855 10.2044 108.875C13.3028 111.75 17.5693 121.627 17.1929 130.544C17.1924 130.573 17.1857 130.602 17.1735 130.629C17.1612 130.656 17.1436 130.68 17.1217 130.7C17.0997 130.72 17.074 130.735 17.0459 130.745C17.0178 130.755 16.988 130.759 16.9584 130.757Z" fill="white"/>
<path d="M15.6337 120.366H15.5653C13.4639 119.791 11.3058 119.445 9.12901 119.333C9.0757 119.325 9.02701 119.299 8.99181 119.258C8.95662 119.218 8.93726 119.166 8.93726 119.112C8.93726 119.059 8.95662 119.007 8.99181 118.967C9.02701 118.926 9.0757 118.9 9.12901 118.892C11.3437 119.005 13.5395 119.356 15.6777 119.939C15.7291 119.955 15.7731 119.988 15.8019 120.033C15.8307 120.078 15.8423 120.132 15.8346 120.184C15.827 120.237 15.8005 120.285 15.7601 120.32C15.7196 120.356 15.6679 120.375 15.6141 120.376L15.6337 120.366Z" fill="white"/>
<path d="M173.555 173.232C175.241 169.596 181.374 163.273 187.361 160.286C193.347 157.299 200.917 156.572 204.5 159.947C207.832 163.089 205.022 168.039 198.635 169.266C192.248 170.493 183.065 171.492 178.227 176.428L170.451 181.645L173.555 173.232Z" fill="#05338F" fill-opacity="0.75"/>
<path opacity="0.1" d="M173.555 173.232C175.241 169.596 181.374 163.273 187.361 160.286C193.347 157.299 200.917 156.572 204.5 159.947C207.832 163.089 205.022 168.039 198.635 169.266C192.248 170.493 183.065 171.492 178.227 176.428L170.451 181.645L173.555 173.232Z" fill="black"/>
<path d="M170.984 178.081C171.045 178.103 171.111 178.105 171.172 178.086C171.234 178.068 171.288 178.03 171.326 177.979C179.522 166.686 194.296 161.212 201.392 161.741C201.47 161.746 201.547 161.72 201.607 161.67C201.666 161.619 201.703 161.547 201.709 161.469C201.712 161.431 201.707 161.393 201.695 161.356C201.682 161.32 201.663 161.286 201.637 161.258C201.612 161.229 201.581 161.205 201.546 161.188C201.512 161.171 201.474 161.161 201.436 161.159C194.212 160.616 179.165 166.172 170.847 177.645C170.825 177.676 170.809 177.711 170.8 177.748C170.791 177.786 170.79 177.824 170.796 177.862C170.802 177.9 170.816 177.936 170.837 177.969C170.857 178.001 170.884 178.03 170.916 178.052C170.936 178.066 170.96 178.076 170.984 178.081Z" fill="white"/>
<path d="M169.176 186.872C170.711 185.097 174.787 182.871 180.143 181.94C186.071 180.908 192.419 182.086 194.843 180.287C197.751 178.124 196.563 174.289 191.681 172.752C186.799 171.215 175.769 173.77 170.11 182.6L169.176 186.872Z" fill="#05338F" fill-opacity="0.75"/>
<path d="M169.269 184.331C169.322 184.351 169.381 184.354 169.436 184.341C169.492 184.328 169.542 184.299 169.582 184.258C178.334 175.375 188.236 175.371 192.248 176.607C192.285 176.618 192.324 176.622 192.362 176.618C192.4 176.615 192.438 176.604 192.472 176.586C192.506 176.568 192.536 176.543 192.56 176.513C192.585 176.484 192.603 176.45 192.614 176.413C192.626 176.377 192.631 176.339 192.628 176.3C192.625 176.262 192.614 176.225 192.596 176.191C192.579 176.157 192.554 176.127 192.525 176.103C192.495 176.079 192.461 176.06 192.424 176.049C187.986 174.682 178.095 174.784 169.156 183.851C169.129 183.878 169.107 183.91 169.093 183.946C169.078 183.981 169.07 184.019 169.07 184.057C169.07 184.095 169.078 184.133 169.093 184.169C169.107 184.204 169.129 184.236 169.156 184.263C169.188 184.294 169.227 184.317 169.269 184.331Z" fill="white"/>
<path d="M80.4418 141.288L86.1792 144.57L84.2683 145.666H91.9117V141.288L90.0009 142.383L84.2683 139.096L80.4418 141.288Z" fill="#05338F" fill-opacity="0.75"/>
<path d="M95.2495 148.047C95.167 148.047 95.086 148.025 95.0149 147.984L93.5879 147.164C93.4842 147.099 93.409 146.998 93.3773 146.88C93.3456 146.762 93.3597 146.637 93.4168 146.529C93.4819 146.424 93.5848 146.348 93.7046 146.315C93.8244 146.283 93.9522 146.297 94.0619 146.355L95.489 147.174C95.5684 147.232 95.6283 147.313 95.6607 147.405C95.6932 147.498 95.6967 147.598 95.6708 147.692C95.6449 147.786 95.5907 147.871 95.5156 147.934C95.4404 147.998 95.3476 148.037 95.2495 148.047Z" fill="#05338F" fill-opacity="0.75"/>
<path d="M155.375 182.488C155.293 182.489 155.212 182.467 155.14 182.425L152.389 180.849C152.31 180.773 152.259 180.673 152.245 180.565C152.231 180.456 152.254 180.346 152.31 180.253C152.367 180.159 152.454 180.087 152.557 180.048C152.66 180.01 152.773 180.007 152.878 180.04L155.624 181.616C155.704 181.673 155.763 181.753 155.796 181.845C155.829 181.937 155.833 182.037 155.807 182.131C155.782 182.226 155.729 182.31 155.654 182.374C155.58 182.438 155.487 182.477 155.39 182.488H155.375ZM148.694 178.658C148.613 178.658 148.532 178.638 148.46 178.6L145.708 177.024C145.638 177.002 145.574 176.964 145.52 176.914C145.467 176.863 145.425 176.802 145.399 176.733C145.373 176.665 145.363 176.592 145.37 176.519C145.376 176.446 145.399 176.375 145.437 176.313C145.475 176.25 145.527 176.196 145.588 176.156C145.65 176.116 145.72 176.09 145.793 176.081C145.866 176.071 145.941 176.079 146.011 176.102C146.08 176.125 146.144 176.163 146.197 176.214L148.949 177.79C149.026 177.848 149.085 177.929 149.116 178.02C149.147 178.112 149.15 178.211 149.124 178.304C149.099 178.398 149.045 178.481 148.971 178.544C148.897 178.607 148.806 178.647 148.709 178.658H148.694ZM142.014 174.832C141.931 174.832 141.85 174.811 141.779 174.769L139.028 173.179C138.924 173.114 138.849 173.012 138.817 172.894C138.786 172.777 138.8 172.651 138.857 172.544C138.923 172.439 139.026 172.364 139.146 172.332C139.265 172.301 139.393 172.316 139.502 172.374L142.253 173.95C142.331 174.008 142.389 174.088 142.421 174.18C142.452 174.272 142.455 174.371 142.429 174.464C142.403 174.557 142.35 174.641 142.276 174.704C142.202 174.767 142.111 174.807 142.014 174.818V174.832ZM135.333 171.007C135.251 171.007 135.17 170.985 135.099 170.943L132.347 169.368C132.243 169.302 132.168 169.201 132.137 169.083C132.105 168.965 132.119 168.84 132.176 168.732C132.241 168.627 132.344 168.551 132.464 168.519C132.584 168.486 132.711 168.5 132.821 168.558L135.568 170.134C135.647 170.191 135.707 170.272 135.74 170.364C135.772 170.456 135.776 170.555 135.751 170.65C135.726 170.744 135.672 170.828 135.598 170.892C135.523 170.956 135.431 170.996 135.333 171.007ZM128.653 167.181C128.57 167.181 128.489 167.159 128.418 167.118L125.667 165.542C125.588 165.466 125.537 165.365 125.523 165.257C125.508 165.149 125.531 165.039 125.588 164.945C125.645 164.852 125.731 164.779 125.834 164.741C125.937 164.702 126.05 164.699 126.155 164.732L128.907 166.308C129.012 166.373 129.088 166.476 129.119 166.595C129.151 166.713 129.136 166.84 129.078 166.948C129.033 167.02 128.971 167.08 128.896 167.121C128.822 167.161 128.738 167.182 128.653 167.181ZM121.972 163.355C121.89 163.354 121.809 163.332 121.737 163.292L118.986 161.716C118.916 161.694 118.851 161.656 118.798 161.606C118.744 161.556 118.703 161.494 118.677 161.426C118.651 161.357 118.641 161.284 118.647 161.211C118.654 161.138 118.677 161.068 118.715 161.005C118.753 160.942 118.804 160.889 118.866 160.849C118.928 160.809 118.998 160.783 119.071 160.773C119.144 160.764 119.218 160.771 119.288 160.794C119.358 160.817 119.422 160.856 119.475 160.907L122.226 162.482C122.33 162.548 122.405 162.649 122.437 162.767C122.468 162.885 122.454 163.01 122.397 163.118C122.353 163.191 122.291 163.251 122.217 163.293C122.142 163.334 122.058 163.356 121.972 163.355ZM115.291 159.525C115.209 159.525 115.129 159.505 115.057 159.466L112.305 157.891C112.226 157.814 112.176 157.714 112.161 157.606C112.147 157.498 112.17 157.388 112.227 157.294C112.283 157.2 112.37 157.128 112.473 157.089C112.576 157.051 112.689 157.048 112.794 157.081L115.545 158.657C115.623 158.715 115.681 158.795 115.713 158.887C115.744 158.979 115.747 159.078 115.721 159.171C115.696 159.264 115.642 159.348 115.568 159.411C115.494 159.474 115.403 159.514 115.306 159.525H115.291ZM108.611 155.723C108.528 155.723 108.447 155.702 108.376 155.66L105.625 154.084C105.521 154.019 105.446 153.918 105.414 153.8C105.382 153.682 105.397 153.557 105.454 153.449C105.519 153.344 105.622 153.268 105.741 153.235C105.861 153.203 105.989 153.217 106.099 153.275L108.85 154.85C108.93 154.908 108.989 154.989 109.022 155.081C109.054 155.174 109.058 155.274 109.032 155.368C109.006 155.463 108.952 155.547 108.877 155.611C108.802 155.674 108.709 155.713 108.611 155.723ZM101.93 151.898C101.848 151.898 101.767 151.876 101.695 151.835L98.9441 150.259C98.8651 150.183 98.8144 150.082 98.8001 149.974C98.7859 149.866 98.8089 149.756 98.8654 149.662C98.922 149.568 99.0088 149.496 99.1118 149.458C99.2147 149.419 99.3278 149.416 99.4328 149.449L102.184 151.025C102.289 151.09 102.365 151.192 102.397 151.311C102.429 151.43 102.414 151.557 102.355 151.665C102.308 151.733 102.244 151.787 102.17 151.824C102.095 151.86 102.013 151.877 101.93 151.873V151.898Z" fill="#05338F" fill-opacity="0.75"/>
<path d="M160.731 185.552C160.649 185.553 160.569 185.533 160.496 185.494L159.069 184.675C158.966 184.609 158.891 184.508 158.859 184.39C158.827 184.272 158.841 184.147 158.898 184.039C158.963 183.934 159.066 183.858 159.186 183.826C159.306 183.793 159.434 183.807 159.543 183.865L160.966 184.684C161.043 184.743 161.102 184.822 161.133 184.914C161.165 185.005 161.168 185.103 161.143 185.197C161.118 185.29 161.065 185.373 160.992 185.437C160.918 185.5 160.828 185.54 160.731 185.552Z" fill="#05338F" fill-opacity="0.75"/>
<path d="M191.896 63.2664L191.456 63.0142L177.802 55.2562C174.642 53.1824 170.926 52.1026 167.138 52.1579C162.363 52.1579 157.545 53.8743 151.871 57.0066C132.044 67.9066 115.105 99.3362 115.105 119.973V125.66C115.105 150.67 148.259 181.198 148.259 181.198L162.007 189.077C162.013 189.086 162.022 189.093 162.032 189.098C162.043 189.102 162.054 189.103 162.065 189.101C161.606 188.563 176.673 166.753 190.899 124.21C206.606 77.0999 192.189 63.5379 191.896 63.2664ZM168.692 138.044C157.452 144.478 148.054 141.108 145.391 130.727C140.244 130.024 136.525 126.097 135.377 119.648C133.935 98.798 145.088 82.2201 161.058 75.4901C167.9 73.0221 173.608 74.7822 176.668 79.883C186.051 78.283 192.766 84.6639 192.766 96.6791C192.766 111.904 181.975 130.436 168.692 138.044Z" fill="#455A64"/>
<path d="M192.766 96.6796C192.766 111.905 181.99 130.437 168.692 138.044C157.452 144.479 148.054 141.109 145.39 130.728C148.767 131.212 152.755 130.315 157.041 127.857C169.22 120.889 179.082 103.929 179.082 89.9932C179.082 85.8524 178.212 82.4437 176.668 79.8835C186.051 78.2835 192.766 84.6644 192.766 96.6796Z" fill="#263238"/>
<path d="M149.936 129.273L157.574 133.651V118.969L149.936 114.591V129.273Z" fill="#05338F" fill-opacity="0.75"/>
<path opacity="0.2" d="M149.936 129.273L157.574 133.651V118.969L149.936 114.591V129.273Z" fill="black"/>
<path d="M186.388 102.464L168.682 94.231L150.976 122.751L157.574 118.969V133.651L165.941 128.861V119.255L171.419 116.118V125.719L179.796 120.919V106.236L186.388 102.464Z" fill="#05338F" fill-opacity="0.75"/>
<path d="M161.039 89.8523L168.682 94.2308L150.977 122.751L143.333 118.373L161.039 89.8523Z" fill="#05338F" fill-opacity="0.75"/>
<path opacity="0.1" d="M161.039 89.8523L168.682 94.2308L150.977 122.751L143.333 118.373L161.039 89.8523Z" fill="black"/>
<path d="M161.039 89.8523L168.682 94.2308L186.388 102.464L178.745 98.0855L161.039 89.8523Z" fill="#05338F" fill-opacity="0.75"/>
<path opacity="0.4" d="M161.039 89.8523L168.682 94.2308L186.388 102.464L178.745 98.0855L161.039 89.8523Z" fill="white"/>
<path d="M165.941 128.86L171.419 125.718V116.118L165.941 119.255V128.86Z" fill="#05338F" fill-opacity="0.75"/>
<path opacity="0.2" d="M165.941 128.86L171.419 125.718V116.118L165.941 119.255V128.86Z" fill="black"/>
<path d="M191.896 63.2659L191.456 63.0138C184.829 59.319 175.974 59.8136 166.244 65.3799C151.583 73.7925 138.876 91.4614 132.87 109.988C130.485 117.334 129.478 121.223 129.478 128.326V134.033C129.478 153.307 151.138 179.234 161.269 188.49C161.495 188.698 161.742 188.884 162.007 189.043C162.013 189.052 162.022 189.059 162.032 189.063C162.043 189.068 162.054 189.069 162.065 189.067C162.657 189.429 163.318 189.665 164.007 189.758C164.695 189.851 165.396 189.8 166.064 189.608C166.731 189.417 167.351 189.088 167.883 188.644C168.415 188.2 168.847 187.65 169.152 187.03C177.88 169.298 203.332 115.841 203.332 95.1125V89.4249C203.332 76.5757 198.953 67.4746 191.896 63.2659ZM145.391 130.727C145.254 130.198 145.127 129.645 145.029 129.078C144.742 127.488 144.605 125.874 144.618 124.258C144.618 109.033 155.37 90.5062 168.692 82.8985C170.097 82.0912 171.569 81.4035 173.091 80.8426C174.253 80.4138 175.452 80.0892 176.673 79.8729C186.056 78.2728 192.771 84.6537 192.771 96.669C192.771 111.894 181.995 130.426 168.697 138.034C157.467 144.478 148.054 141.108 145.391 130.727Z" fill="#37474F"/>
<path d="M70.3543 43.0282H60.0914C57.8647 43.0282 55.7291 42.1506 54.1546 40.5884C52.58 39.0262 51.6954 36.9074 51.6954 34.6981V32.3464C51.6954 29.8928 52.6778 27.5397 54.4265 25.8047C56.1752 24.0697 58.5469 23.095 61.02 23.095C63.493 23.095 65.8647 24.0697 67.6134 25.8047C69.3621 27.5397 70.3445 29.8928 70.3445 32.3464L70.3543 43.0282Z" fill="#263238"/>
<path d="M53.1864 27.7406L51.0018 26.5914C51.0709 26.4469 51.1687 26.3177 51.2895 26.2117C51.4102 26.1058 51.5514 26.0252 51.7044 25.9749C51.8574 25.9246 52.0191 25.9056 52.1798 25.919C52.3404 25.9325 52.4966 25.9781 52.639 26.0532C52.9312 26.2109 53.151 26.4741 53.2529 26.7882C53.3548 27.1024 53.331 27.4434 53.1864 27.7406Z" fill="#263238"/>
<path d="M53.3671 27.9827L51.0702 28.8361C51.0062 28.6894 50.9727 28.5314 50.9719 28.3716C50.9711 28.2118 51.003 28.0535 51.0656 27.9062C51.1281 27.7589 51.2201 27.6258 51.336 27.5147C51.4519 27.4037 51.5892 27.3171 51.7397 27.2602C52.0527 27.1522 52.3954 27.1668 52.6979 27.301C53.0004 27.4353 53.2398 27.6792 53.3671 27.9827Z" fill="#263238"/>
<path d="M73.7557 54.8343L76.5804 59.9692L72.6561 63.31L68.7318 57.2733L73.7557 54.8343Z" fill="#9A4A4D"/>
<path d="M65.8583 43.8187C67.3244 43.9447 68.8687 44.5702 69.9292 46.7279L74.3276 55.6884C74.3276 55.6884 73.5847 58.6365 69.7142 59.0292L68.1796 56.6921L65.8583 43.8187Z" fill="#05338F" fill-opacity="0.75"/>
<path opacity="0.1" d="M65.8583 43.8187C67.3244 43.9447 68.8687 44.5702 69.9292 46.7279L74.3276 55.6884C74.3276 55.6884 73.5847 58.6365 69.7142 59.0292L68.1796 56.6921L65.8583 43.8187Z" fill="black"/>
<path d="M39.7614 114.315C39.0234 113.937 38.5592 114.863 37.8896 115.609C37.4009 116.128 36.6923 116.957 36.5848 117.549C36.4235 118.431 37.225 119.813 38.1095 120.579C38.9941 121.345 40.0204 121.889 40.3429 123.561C40.6655 125.234 41.3203 126.228 43.0699 126.98C44.9856 127.799 47.5514 127.537 48.4213 126.98C49.4524 126.315 48.5092 125.593 47.0675 123.542C45.1811 120.865 43.7101 118.95 43.7101 116.453L39.7614 114.315Z" fill="#263238"/>
<path d="M41.2716 112.119L39.7224 114.374C39.395 114.841 39.2667 115.419 39.3656 115.98C39.4644 116.541 39.7823 117.04 40.2502 117.37L40.2991 117.404C40.7693 117.684 41.3235 117.792 41.8654 117.709C42.4074 117.625 42.9028 117.356 43.2656 116.948L45.6798 114.33L41.2716 112.119Z" fill="#B16668"/>
<path d="M69.1132 69.3768C69.211 72.2473 69.7192 82.7109 67.608 88.2045C66.4369 91.3237 64.9639 94.323 63.2096 97.1602C62.5792 98.2318 44.4628 115.731 44.4628 115.731C44.4628 115.731 41.384 115.508 40.8953 112.55C40.8953 112.55 48.3187 100.026 49.9266 97.4608C51.5344 94.8958 57.2279 90.9538 57.2279 90.9538L56.7098 66.8797L69.1132 69.3768Z" fill="#37474F"/>
<path d="M65.7207 129.325L69.5521 128.461L68.2833 122.924L64.4519 123.789L65.7207 129.325Z" fill="#B16668"/>
<path d="M62.7307 78.1427C64.0427 76.9405 65.2178 75.5991 66.2348 74.1425C69.167 70.1277 68.7125 66.5639 68.7125 66.5639H67.5103L51.6713 66.8839C50.0977 69.4392 49.7556 73.3133 50.2882 77.0663C51.3878 84.897 57.9267 98.4493 57.9267 98.4493C57.8339 99.5209 57.3794 104.021 58.4155 108.011C60.0428 114.314 64.4705 124.982 64.4705 124.982C64.4705 124.982 67.2415 125.374 68.6197 123.784C68.6197 123.784 66.1761 102.154 65.5066 96.631C64.7784 90.6088 62.7307 78.1427 62.7307 78.1427Z" fill="#37474F"/>
<path d="M69.1229 126.582L68.9959 126.039C69.4015 126.117 71.1217 128.948 72.8273 130.18C74.6942 131.528 76.3167 132.323 77.1524 132.934C78.2666 133.744 76.6637 135.412 73.9025 135.557C72.539 135.63 70.0564 135.218 69.2891 134.5C68.5218 133.782 67.9696 132.561 67.3636 132.076C66.7576 131.591 65.526 131.106 65.1106 130.442C64.8858 130.078 64.8467 129.171 64.8761 128.395C64.9054 127.62 64.92 126.902 65.1693 126.912C65.1693 126.994 65.2621 127.329 65.2621 127.329C65.9836 127.691 66.7854 127.866 67.5933 127.838C68.2384 127.799 69.4406 127.649 69.1229 126.582Z" fill="#263238"/>
<path d="M65.0082 92.9363C65.0082 92.9363 63.1609 79.9174 62.7308 78.1427C62.7308 78.1427 65.9856 76.9111 66.9875 75.7862C66.9875 75.7862 66.274 77.3621 63.9428 78.7634L65.0082 92.9363Z" fill="#263238"/>
<path d="M55.2241 92.4321C55.2241 92.4321 57.1301 97.3924 57.9218 98.464C57.9218 98.464 57.7214 102.154 57.7507 102.901L56.7196 103.788C56.7196 103.788 56.6707 100.69 57.2083 98.8131C56.267 96.7819 55.5999 94.6364 55.2241 92.4321Z" fill="#263238"/>
<path d="M68.2235 57.7247C68.4728 60.0036 69.113 69.3617 69.113 69.3617C61.5331 73.3765 52.1304 70.7145 50.6936 69.0611C51.4436 66.333 52.9129 63.8526 54.9502 61.8752L52.5067 55.087C52.5067 55.087 52.2135 54.3888 52.2184 54.3839C52.3699 54.1318 56.0352 50.854 54.2318 45.6561C54.1681 45.4674 54.1485 45.2668 54.1747 45.0695C54.2008 44.8722 54.2719 44.6833 54.3827 44.5174C54.4934 44.3514 54.6408 44.2127 54.8137 44.1118C54.9865 44.0108 55.1803 43.9503 55.3803 43.9348L57.5551 43.7603L63.4586 43.5857C64.8661 43.6682 65.8728 43.7991 65.8728 43.7991C66.777 44.6428 68.204 46.9459 69.1276 49.2927C69.7092 50.8249 70.3543 53.2444 68.2235 57.7247Z" fill="#05338F" fill-opacity="0.75"/>
<path opacity="0.1" d="M54.0757 57.5453L54.9407 54.2239L56.0109 61.8947L53.846 63.0875L54.9504 61.8898L53.8313 58.7915L54.0757 57.5453Z" fill="black"/>
<path d="M67.0217 27.1246C67.9992 27.7016 69.2258 30.1599 69.1036 35.3093C69.001 39.6732 67.574 40.7593 66.8605 41.0696C66.147 41.3799 64.7639 41.1908 63.4395 40.9678V43.591C63.4395 43.591 65.4383 47.2615 64.9887 48.7258C64.0113 48.8907 62.7847 48.2409 61.0497 47.0724C59.7592 46.116 58.5879 45.0109 57.5604 43.7801L57.5897 37.7531C57.5897 37.7531 56.798 38.5143 55.4589 37.3506C54.3545 36.3809 53.9928 34.7759 54.8432 33.9032C55.0665 33.6969 55.3361 33.5462 55.6297 33.4636C55.9232 33.3809 56.2324 33.3687 56.5317 33.4279C56.8309 33.4871 57.1117 33.616 57.3509 33.804C57.5901 33.992 57.7808 34.2338 57.9074 34.5093C57.9074 34.5093 60.0528 34.5917 62.9019 33.0546C64.0103 32.4573 64.961 31.6089 65.6768 30.5786C66.3926 29.5482 66.8534 28.3648 67.0217 27.1246Z" fill="#B16668"/>
<path d="M64.1968 34.2125C64.1986 34.3212 64.1681 34.428 64.1091 34.5195C64.0501 34.6111 63.9652 34.6833 63.865 34.7273C63.7648 34.7712 63.6538 34.7848 63.5458 34.7665C63.4378 34.7482 63.3377 34.6987 63.2579 34.6242C63.1782 34.5497 63.1223 34.4535 63.0973 34.3477C63.0723 34.2419 63.0794 34.1311 63.1175 34.0293C63.1556 33.9274 63.2232 33.8389 63.3117 33.7749C63.4002 33.7109 63.5058 33.6742 63.6153 33.6695C63.7648 33.6655 63.9098 33.7204 64.0188 33.8221C64.1277 33.9239 64.1917 34.0642 64.1968 34.2125Z" fill="#263238"/>
<g style="mix-blend-mode:multiply" opacity="0.5">
<path d="M64.3383 37.8986L65.6236 38.3059C65.6001 38.391 65.5596 38.4705 65.5045 38.5398C65.4494 38.609 65.3808 38.6666 65.3029 38.7091C65.225 38.7516 65.1393 38.7782 65.0508 38.7872C64.9624 38.7962 64.873 38.7876 64.788 38.7617C64.6147 38.7039 64.471 38.5816 64.387 38.4205C64.3031 38.2594 64.2857 38.0723 64.3383 37.8986Z" fill="#9A4A4D"/>
</g>
<path d="M68.7272 32.5251L67.6178 31.759C67.6643 31.684 67.7259 31.6191 67.7986 31.5686C67.8714 31.518 67.9538 31.4828 68.0408 31.4651C68.1278 31.4474 68.2176 31.4475 68.3045 31.4656C68.3915 31.4836 68.4738 31.5191 68.5463 31.5699C68.6956 31.6747 68.798 31.8329 68.8318 32.0112C68.8655 32.1895 68.828 32.3738 68.7272 32.5251Z" fill="#263238"/>
<path d="M68.468 33.8152C68.474 33.8886 68.4652 33.9624 68.442 34.0324C68.4188 34.1023 68.3818 34.167 68.3331 34.2225C68.2843 34.2781 68.2249 34.3234 68.1583 34.3559C68.0917 34.3884 68.0192 34.4073 67.9451 34.4116C67.8304 34.4221 67.7152 34.3983 67.6142 34.3433C67.5133 34.2882 67.4313 34.2045 67.3788 34.1028C67.3262 34.0011 67.3056 33.8861 67.3195 33.7727C67.3335 33.6592 67.3813 33.5525 67.4569 33.4663C67.5325 33.3801 67.6324 33.3183 67.7437 33.2889C67.855 33.2595 67.9726 33.2639 68.0814 33.3014C68.1902 33.339 68.2851 33.408 68.3541 33.4995C68.423 33.5911 68.4627 33.701 68.468 33.8152Z" fill="#263238"/>
<g style="mix-blend-mode:multiply" opacity="0.5">
<path d="M65.8583 33.505L65.9462 36.807L67.7007 36.2688L65.8583 33.505Z" fill="#9A4A4D"/>
</g>
<g style="mix-blend-mode:multiply" opacity="0.5">
<path d="M63.4195 40.9676C62.0022 40.7833 59.0895 39.9542 58.635 38.8099C58.8181 39.3867 59.1745 39.8942 59.6564 40.2645C60.5263 41.0015 63.4195 41.8355 63.4195 41.8355V40.9676Z" fill="#9A4A4D"/>
</g>
<path d="M46.0071 65.982C46.0413 65.4971 46.9356 60.469 47.5465 57.6518L53.5185 59.4653L52.5411 63.417L47.5807 68.1833C47.0817 68.091 46.6384 67.8096 46.3447 67.3987C46.051 66.9879 45.9299 66.4798 46.0071 65.982Z" fill="#B16668"/>
<path d="M55.3657 43.9545C53.0737 44.1533 50.0535 44.4927 48.6167 50.9658C47.2679 57.0316 46.9355 59.1505 46.9355 59.1505C46.9355 59.1505 48.6998 61.3664 53.2643 61.1239L54.9406 54.2242C57.995 50.2336 57.0127 47.3777 55.3657 43.9545Z" fill="#05338F" fill-opacity="0.75"/>
<path d="M74.6747 61.2883C75.4957 59.7754 75.701 59.7076 76.1848 59.3487C76.6686 58.9899 79.6693 58.5729 80.9106 58.4711C82.3767 58.3499 82.8899 58.6166 82.4842 59.8627C81.6143 62.5295 78.9753 68.1929 78.384 68.9784C77.9979 69.4633 77.9197 69.9481 76.2777 70.1227C74.7431 70.273 72.8176 70.3554 72.2507 70.3894C71.6838 70.4233 70.9019 70.5639 71.4101 68.9105C72.0568 67.0402 72.8056 65.2063 73.6533 63.4169C74.2837 62.0786 74.6747 61.2883 74.6747 61.2883Z" fill="#263238"/>
<path d="M52.5606 63.4169C52.5606 63.4169 65.8339 64.8085 67.5493 64.28C69.2647 63.7515 71.5811 62.0447 72.8224 61.3417C74.0637 60.6386 74.9532 60.5756 74.9532 60.8568C74.9532 61.138 73.8927 62.7624 73.6532 63.4266C73.4138 64.0909 74.7968 64.0909 76.6148 63.6788C78.4328 63.2666 79.161 62.2241 79.635 62.8254C80.1091 63.4266 78.6283 66.4377 75.6081 67.5578C72.5879 68.6778 70.3447 67.936 67.8523 68.0427C65.3599 68.1493 51.0603 69.2548 47.5954 68.1736C47.5078 67.6264 47.5732 67.0659 47.7843 66.5529C47.9954 66.04 48.3442 65.5943 48.7927 65.2643C49.9131 64.4072 51.1938 63.7792 52.5606 63.4169Z" fill="#B16668"/>
<path d="M137.4 16.4811L141.041 14.3961C141.021 14.2499 141.012 14.1025 141.012 13.9549V12.9076C141.067 11.8962 141.361 10.9119 141.87 10.0341C142.38 9.15642 143.09 8.40997 143.944 7.85518C144.199 7.68496 144.486 7.56757 144.787 7.51008C145.089 7.45258 145.399 7.45616 145.699 7.52061C145.968 4.87319 147.815 1.88151 150.063 0.59659C152.506 -0.795003 154.461 0.329908 154.461 3.11794V4.67924C154.452 5.44026 154.327 6.19552 154.09 6.91937L157.115 5.18836C158.014 4.67439 158.742 5.09139 158.742 6.12417C158.712 6.68529 158.549 7.2314 158.266 7.7183C157.983 8.2052 157.589 8.61919 157.115 8.92675L137.4 20.2195C136.501 20.7335 135.773 20.3165 135.773 19.2837C135.803 18.7226 135.967 18.1765 136.249 17.6896C136.532 17.2027 136.926 16.7887 137.4 16.4811Z" fill="#F0F0F0"/>
<path d="M119.968 40.7294L122.715 39.1536C122.699 39.0428 122.691 38.931 122.69 38.819V38.0335C122.733 37.2694 122.955 36.5258 123.341 35.8629C123.726 35.2 124.263 34.6364 124.909 34.2176C125.101 34.0887 125.317 33.9999 125.545 33.9565C125.773 33.9132 126.007 33.9162 126.233 33.9654C126.369 32.9098 126.734 31.8959 127.303 30.9936C127.871 30.0913 128.63 29.3219 129.527 28.7385C131.36 27.6863 132.851 28.5397 132.851 30.6392V31.8223C132.843 32.3957 132.747 32.9647 132.567 33.5096L134.849 32.2053C135.529 31.8174 136.081 32.1326 136.081 32.9084C136.057 33.3326 135.934 33.7455 135.72 34.1135C135.506 34.4816 135.208 34.7946 134.849 35.0273L119.968 43.5466C119.289 43.9393 118.737 43.6242 118.737 42.8435C118.76 42.4198 118.883 42.0076 119.097 41.6402C119.311 41.2729 119.61 40.9608 119.968 40.7294Z" fill="#F0F0F0"/>
</svg>
