<svg width="183" height="168" viewBox="0 0 183 168" fill="none" xmlns="http://www.w3.org/2000/svg">
<path d="M169.049 31.2092C161.849 19.493 149.845 11.4281 136.216 9.58183C130.911 8.85465 125.519 9.04003 120.276 10.1299C104.661 13.4268 91.0742 25.0935 85.4407 40.0283C82.1439 48.8103 81.2043 58.9234 74.9155 65.8962C66.7352 74.9626 52.8472 75.2551 40.6365 74.8801C28.4258 74.5051 14.5254 74.8224 6.38634 83.9465C1.29682 89.6377 -0.351606 97.752 0.0605005 105.393C1.14846 125.619 15.4238 143.718 33.5771 152.694C51.7304 161.67 73.1023 162.49 92.9699 158.538C120.808 152.995 147.286 137.784 163.193 114.282C178.35 91.896 182.723 61.7751 172.09 37.0487C171.22 35.0307 170.204 33.0789 169.049 31.2092Z" fill="#009ACD" fill-opacity="0.2"/>
<path d="M182.311 167.126C182.311 167.183 141.673 167.233 91.5524 167.233C41.432 167.233 0.785889 167.183 0.785889 167.126C0.785889 167.068 41.4155 167.014 91.5524 167.014C141.689 167.014 182.311 167.064 182.311 167.126Z" fill="#263238"/>
<path d="M50.8815 103.133C57.4298 96.5389 57.3598 86.4752 55.4723 77.7798C55.155 76.3251 55.0355 74.7549 54.1083 73.601C53.181 72.4471 51.3966 71.8661 50.2015 72.7191C49.2083 73.4279 48.9652 74.7797 48.5531 75.9294C47.9974 77.4707 47.0156 78.8226 45.7219 79.828C44.8977 80.4791 43.785 80.9819 42.7753 80.6522C41.3865 80.1865 40.9208 78.4721 40.6653 77.0174C40.1928 74.3057 39.7161 71.5954 39.2353 68.8865C38.9798 67.4318 38.7161 65.9482 37.999 64.6501C37.2819 63.3519 36.0662 62.2557 34.6115 62.1197C33.1567 61.9837 31.5949 63.0923 31.5619 64.5677C31.6174 65.1792 31.7138 65.7864 31.8504 66.385C31.9204 66.995 31.7597 67.712 31.2198 67.984C30.68 68.256 30.0124 67.9552 29.5014 67.609C27.7334 66.4139 26.3735 64.7243 25.0795 63.0058C23.7854 61.2873 22.512 59.5441 20.8595 58.1924C19.2069 56.8407 17.097 55.9134 14.9952 56.173C12.8935 56.4327 10.9071 58.1264 10.7546 60.2611C10.6022 62.3959 12.1764 64.2668 13.7754 65.6886C16.1515 67.7976 18.8208 69.5508 21.7002 70.8935C22.2468 71.0775 22.7204 71.4312 23.0519 71.9032C23.5423 72.8139 22.8005 73.9431 21.9021 74.4376C20.8842 74.9939 19.6891 75.097 18.5805 75.4349C17.472 75.7728 16.3387 76.4981 16.1079 77.6479C15.7823 79.2428 17.3071 80.5698 18.7165 81.3569C21.5303 82.9507 24.5971 84.0491 27.7829 84.6043C28.9244 84.8021 30.1113 84.9381 31.1086 85.5315C32.1059 86.1249 32.8642 87.3365 32.5303 88.4575C32.1965 89.5784 30.919 90.1471 29.761 90.143C28.603 90.1389 27.4944 89.7309 26.3529 89.5042C24.2182 89.1168 21.6631 89.7226 20.6988 91.6802C20.0682 92.97 20.2867 94.5649 20.9502 95.8383C21.6807 97.0809 22.6532 98.1641 23.8102 99.0239C27.6658 102.25 32.3093 104.393 37.2655 105.234C42.186 105.997 46.5585 105.646 50.865 103.128" fill="#F78F1E" fill-opacity="0.35"/>
<path d="M52.1752 109.599C51.0308 105.615 49.5059 101.751 47.6214 98.0598C45.2993 93.557 42.7208 89.1911 39.8985 84.9837L37.702 81.6621C36.9767 80.57 36.2555 79.4903 35.489 78.4807C34.0105 76.5347 32.4256 74.6719 30.7415 72.9007C29.1467 71.2029 27.5724 69.6533 26.0888 68.211C24.6053 66.7686 23.2041 65.454 21.8483 64.3124C19.7473 62.4952 17.5037 60.8497 15.1392 59.3919C14.3149 58.8726 13.6432 58.4935 13.194 58.2421L12.6789 57.9578C12.6219 57.9222 12.561 57.8932 12.4976 57.8712C12.5507 57.9129 12.6073 57.9501 12.6665 57.9825L13.1652 58.2916C13.6102 58.5553 14.2614 58.9509 15.0856 59.4826C17.4201 60.9734 19.6394 62.6375 21.7246 64.4608C23.0516 65.6106 24.4528 66.9334 25.9322 68.3717C27.4117 69.8099 28.9736 71.3801 30.5602 73.0779C32.2336 74.8419 33.8089 76.6964 35.2788 78.6331C36.0412 79.6428 36.75 80.6937 37.4753 81.8064C38.2006 82.9191 38.9301 84.007 39.676 85.1279C42.4911 89.3257 45.0694 93.6774 47.3989 98.1629C49.284 101.841 50.8197 105.687 51.9856 109.652" fill="#263238"/>
<path d="M35.411 78.481C35.4461 78.2686 35.4558 78.0528 35.4398 77.8381C35.4398 77.426 35.4398 76.8202 35.3986 76.0784C35.3409 74.5949 35.1884 72.5467 35.0153 70.3089C34.8423 68.0712 34.7228 66.0107 34.6857 64.5395C34.6857 63.8018 34.6568 63.2001 34.6527 62.788C34.6688 62.5718 34.6577 62.3544 34.6197 62.141C34.5754 62.3525 34.5519 62.5678 34.5497 62.7839C34.5167 63.196 34.5002 63.7977 34.4961 64.5395C34.4961 66.0272 34.5703 68.0794 34.7475 70.3419C34.9247 72.6044 35.0854 74.5784 35.2049 76.1114C35.2585 76.8037 35.2997 77.3889 35.3327 77.8629C35.3354 78.0712 35.3617 78.2786 35.411 78.481Z" fill="#263238"/>
<path d="M16.0955 78.3938C16.3504 78.4002 16.6055 78.385 16.8579 78.3485C17.3441 78.3031 18.0488 78.2331 18.9184 78.1795C20.6616 78.0517 23.0765 77.9611 25.747 77.9776C28.4174 77.9941 30.8324 78.1177 32.5797 78.2578C33.4534 78.3196 34.1581 78.3897 34.6403 78.435C34.8921 78.4767 35.1476 78.4919 35.4027 78.4803C35.1574 78.4085 34.9065 78.3575 34.6526 78.3279C34.1705 78.2537 33.4658 78.1507 32.5921 78.0641C30.8448 77.8745 28.4216 77.7221 25.7429 77.7015C23.4578 77.679 21.1731 77.7739 18.8978 77.9858C18.0241 78.0641 17.3194 78.163 16.8372 78.2413C16.5854 78.2663 16.3368 78.3174 16.0955 78.3938Z" fill="#263238"/>
<path d="M47.3291 97.7591C47.3669 97.6787 47.396 97.5944 47.4157 97.5077L47.6135 96.7742C47.7783 96.1354 47.9968 95.204 48.2523 94.0543C48.7633 91.7465 49.3691 88.5444 49.9914 84.9879C50.6136 81.4314 51.1906 78.2376 51.6398 75.9216C51.8664 74.7965 52.0519 73.8611 52.1961 73.1852C52.2538 72.8885 52.3033 72.6412 52.3445 72.4393C52.3657 72.353 52.3768 72.2644 52.3775 72.1755C52.3775 72.1755 52.3362 72.258 52.2909 72.4269L52.0931 73.1605C51.9241 73.7992 51.7057 74.7265 51.4502 75.8804C50.9392 78.184 50.3334 81.3902 49.7111 84.9467C49.0888 88.5032 48.516 91.7012 48.0627 94.0131C47.8319 95.134 47.6506 96.0736 47.5064 96.7453C47.4445 97.0462 47.3992 97.2934 47.358 97.4912C47.338 97.5791 47.3283 97.669 47.3291 97.7591Z" fill="#263238"/>
<path d="M21.0491 94.2808C21.1349 94.3077 21.2233 94.3257 21.3128 94.3344L22.0793 94.4456L24.894 94.8248C27.2719 95.1421 30.5481 95.6201 34.1705 96.1518C37.793 96.6834 41.0775 97.1367 43.4636 97.3881C44.6545 97.5241 45.6189 97.623 46.2865 97.6807L47.0571 97.7384C47.1474 97.7501 47.2388 97.7501 47.3291 97.7384C47.2446 97.706 47.1557 97.6866 47.0654 97.6807L46.2988 97.5694L43.4842 97.1944C41.1063 96.8729 37.8301 96.3949 34.2076 95.8633C30.5852 95.3317 27.3007 94.8783 24.9188 94.627C23.7236 94.491 22.7593 94.3921 22.0917 94.3344L21.3211 94.2767C21.2309 94.2618 21.1388 94.2632 21.0491 94.2808Z" fill="#263238"/>
<path d="M125.885 28.4256C126.506 27.9073 126.979 27.2341 127.256 26.4743C127.533 25.7144 127.605 24.8948 127.463 24.0985C127.306 23.3058 126.993 22.5523 126.543 21.8817C126.092 21.211 125.513 20.6365 124.838 20.1917C124.224 19.7796 123.462 19.4334 122.749 19.6477C122.42 19.7653 122.128 19.9693 121.905 20.2383C121.681 20.5073 121.534 20.8314 121.479 21.1766C121.374 21.8725 121.456 22.5839 121.718 23.2372C122.497 25.4955 123.668 27.5354 125.885 28.4338" fill="#455A64"/>
<path d="M127.974 32.2832C129.245 31.1487 130.767 30.3328 132.415 29.9028C134.063 29.4729 135.79 29.4413 137.453 29.8106C138.297 30.0043 139.245 30.4535 139.385 31.3065C139.525 32.1596 138.759 32.889 138.009 33.3217C136.427 34.2014 134.619 34.5925 132.815 34.4458C131.011 34.2991 129.29 33.6212 127.871 32.4975" fill="#455A64"/>
<path d="M140.074 14.4267C139.37 14.2591 138.639 14.2358 137.926 14.3584C137.212 14.4809 136.531 14.7467 135.924 15.1396C134.71 15.9314 133.695 16.9917 132.957 18.2387C131.461 20.6 130.937 23.7691 130.871 26.5591C133.966 26.4355 136.616 23.9999 137.877 22.6812C139.876 20.5959 142.225 15.6094 140.07 14.439" fill="#455A64"/>
<path d="M123.28 36.4996C123.562 36.1281 123.819 35.7385 124.051 35.3334C124.855 33.7617 125.442 32.0885 125.798 30.3592C126.146 28.6063 126.012 26.792 125.411 25.109C125.22 24.606 124.968 24.1284 124.661 23.6872C124.438 23.3782 124.294 23.2298 124.277 23.2422C124.637 23.8652 124.947 24.5156 125.205 25.1873C125.726 26.8414 125.824 28.5999 125.489 30.3016C125.129 32.0073 124.576 33.6665 123.84 35.2468" fill="#263238"/>
<path d="M123.28 36.5366L124.891 34.4761C126.251 32.7164 128.131 30.2891 130.249 27.6393C132.367 24.9894 134.308 22.6116 135.722 20.8931L137.391 18.8573C137.607 18.6169 137.801 18.3576 137.972 18.0825C137.727 18.2894 137.5 18.5154 137.292 18.7584C136.88 19.2158 136.278 19.8917 135.548 20.7324C134.09 22.4096 132.116 24.7669 130.002 27.4209C127.887 30.0748 126.029 32.5269 124.714 34.3236C124.059 35.222 123.536 35.9721 123.181 36.4666" fill="#263238"/>
<path d="M135.524 31.6364C135.353 31.5559 135.171 31.5004 134.984 31.4716C134.772 31.4147 134.556 31.3734 134.337 31.3479C134.049 31.3003 133.759 31.2687 133.468 31.2531C132.708 31.2073 131.946 31.2363 131.193 31.3397C129.338 31.595 127.569 32.2794 126.025 33.3384C125.397 33.7706 124.815 34.2649 124.286 34.8137C124.081 35.0209 123.889 35.2396 123.709 35.469C123.557 35.6346 123.419 35.8124 123.297 36.0006C123.095 36.3014 123.124 36.4416 123.14 36.4539C123.542 35.9378 123.97 35.4426 124.422 34.9703C124.96 34.455 125.544 33.9888 126.165 33.5774C126.93 33.0886 127.74 32.6746 128.584 32.3411C129.435 32.0196 130.316 31.7822 131.213 31.6323C131.949 31.5162 132.694 31.4652 133.439 31.4798C134.733 31.5086 135.512 31.69 135.524 31.6364Z" fill="#263238"/>
<path d="M111.502 167.072L56.3334 166.817C49.6984 166.788 44.3452 161.237 44.3823 154.416L44.9798 12.2974C45.0087 5.47705 50.4114 -0.0328213 57.0504 0.000147183L112.219 0.255654C118.854 0.284502 124.207 5.83558 124.17 12.6559L123.569 154.775C123.544 161.595 118.141 167.105 111.502 167.072Z" fill="#263238"/>
<path d="M119.798 129.825C119.798 130.066 119.726 130.301 119.593 130.501C119.459 130.701 119.269 130.857 119.046 130.949C118.824 131.041 118.579 131.065 118.343 131.017C118.108 130.97 117.891 130.854 117.721 130.684C117.551 130.513 117.436 130.296 117.389 130.06C117.343 129.824 117.368 129.579 117.46 129.357C117.553 129.135 117.709 128.946 117.91 128.813C118.11 128.679 118.346 128.609 118.586 128.61C118.908 128.611 119.216 128.739 119.443 128.967C119.67 129.195 119.798 129.504 119.798 129.825Z" fill="#E0E0E0"/>
<path d="M118.586 132.493C118.444 131.609 118.444 130.709 118.586 129.826C118.729 130.709 118.729 131.609 118.586 132.493Z" fill="#E0E0E0"/>
<path d="M113.32 4.94564L102.288 4.90443C101.928 4.91086 101.573 4.98814 101.243 5.13184C100.913 5.27555 100.614 5.48286 100.364 5.74194C100.114 6.00103 99.9178 6.30681 99.7861 6.64181C99.6544 6.97682 99.59 7.33448 99.5966 7.69439V9.69311C99.6076 10.4186 99.3305 11.1188 98.826 11.6402C98.3216 12.1617 97.6309 12.4618 96.9055 12.4748L75.3977 12.3759C74.6711 12.3554 73.9824 12.0476 73.4825 11.5199C72.9826 10.9922 72.7125 10.2878 72.7313 9.56123V7.56251C72.7412 7.20259 72.6801 6.84425 72.5514 6.50797C72.4227 6.17169 72.229 5.86406 71.9814 5.60267C71.7338 5.34127 71.4371 5.13124 71.1083 4.98456C70.7794 4.83788 70.4249 4.75744 70.065 4.74783H66.183L56.5191 4.68601C55.3779 4.68059 54.2469 4.90025 53.1908 5.33244C52.1347 5.76462 51.1742 6.40084 50.3642 7.20468C49.5542 8.00851 48.9107 8.96419 48.4706 10.017C48.0304 11.0698 47.8021 12.1991 47.7989 13.3403L47.2096 152.587C47.2041 153.728 47.4238 154.859 47.856 155.915C48.2882 156.971 48.9244 157.932 49.7282 158.742C50.5321 159.552 51.4877 160.195 52.5406 160.635C53.5934 161.076 54.7227 161.304 55.8638 161.307L112.656 161.571C113.797 161.576 114.928 161.356 115.984 160.923C117.04 160.491 118 159.855 118.81 159.051C119.62 158.247 120.263 157.292 120.704 156.239C121.144 155.187 121.373 154.058 121.376 152.917L121.962 13.6658C121.97 11.364 121.065 9.15271 119.445 7.51771C117.825 5.88271 115.622 4.95763 113.32 4.94564Z" fill="#FAFAFA"/>
<path d="M50.9885 114.83C51.4748 114.468 75.2245 104.004 75.2245 104.004L47.4815 90.1656L47.3867 112.465L50.9885 114.83Z" fill="#EBEBEB"/>
<path d="M52.4392 89.7357L72.6777 79.4495L50.9309 67.3912L47.5763 68.2319L47.4939 87.7411L52.4392 89.7357Z" fill="#1946A6"/>
<path opacity="0.7" d="M52.4392 89.7357L72.6777 79.4495L50.9309 67.3912L47.5763 68.2319L47.4939 87.7411L52.4392 89.7357Z" fill="white"/>
<path d="M48.3057 65.99L110.686 36.8541L48.8826 16.6567L48.3057 65.99Z" fill="#EBEBEB"/>
<path d="M47.5803 141.868L76.0857 127.238L118.52 152.203L108.411 161.068H72.1996L47.5803 146.022V141.868Z" fill="#EBEBEB"/>
<path d="M81.6987 125.655L116.95 146.557L120.882 146.112V126.013L101.562 115.789L81.6987 125.655Z" fill="#EBEBEB"/>
<path d="M87.4929 105.697L120.729 124.394V99.9521L108.704 94.8008L87.4929 105.697Z" fill="#EBEBEB"/>
<path d="M51.9941 116L71.4909 126.698L95.1541 114.442L76.3538 104.881L51.9941 116Z" fill="#EBEBEB"/>
<path d="M81.2617 79.3145L108.881 93.0005L121.689 86.4604L121.772 77.2869L103.116 68.2329L81.2617 79.3145Z" fill="#EBEBEB"/>
<path d="M53.0161 91.2537L80.6355 104.94L93.4438 98.3996L93.5262 89.2261L74.866 80.1721L53.0161 91.2537Z" fill="#EBEBEB"/>
<path d="M56.8406 66.6538L79.3498 77.9249L100.343 66.6538L78.5916 56.7302L56.8406 66.6538Z" fill="#EBEBEB"/>
<path d="M100.343 138.682C100.2 138.625 100.062 138.556 99.9305 138.476L98.7683 137.82L94.297 135.237L77.7468 125.531L77.4047 125.33L77.7591 125.148L99.473 114.112V114.615L83.2608 105.961L82.7498 105.689L83.2649 105.417L105.782 93.5973V94.1702L103.095 92.8102L52.6536 67.2184L52.1797 66.9794L52.6619 66.7486L79.4488 53.9733L86.8667 50.4745L88.8201 49.5761L89.327 49.3536C89.3837 49.3268 89.4431 49.3061 89.5042 49.2917C89.4556 49.3322 89.4014 49.3655 89.3435 49.3906L88.8572 49.6462L86.9244 50.6476L79.5559 54.2782L52.8885 67.2472V66.7609L103.384 92.2415L106.071 93.6015L106.627 93.8858L106.075 94.1743L83.541 105.969V105.425L99.7327 114.112L100.211 114.368L99.7286 114.611L77.9487 125.54V125.156L94.4 135.047L98.8096 137.73L99.9428 138.439C100.084 138.506 100.218 138.588 100.343 138.682Z" fill="#1946A6"/>
<path d="M95.5001 36.076C95.5001 31.955 91.1813 29.3587 86.7758 31.4192C85.7807 31.885 84.9667 32.6656 84.4598 33.6405C83.3512 35.7875 83.8416 38.2396 84.8431 40.2754L88.2718 48.9626C88.379 49.2406 88.5679 49.4795 88.8136 49.6481C89.0593 49.8166 89.3503 49.9068 89.6482 49.9068C89.9462 49.9068 90.2371 49.8166 90.4828 49.6481C90.7285 49.4795 90.9174 49.2406 91.0247 48.9626L94.3833 40.2301C95.5496 37.5596 95.5001 36.076 95.5001 36.076ZM91.3791 39.6531C88.416 41.3757 85.4159 38.1942 87.0396 35.054C87.2526 34.6397 87.5783 34.294 87.9792 34.0567C90.9422 32.3341 93.9424 35.5156 92.3187 38.6558C92.1012 39.0723 91.7696 39.4183 91.3626 39.6531H91.3791Z" fill="#1946A6"/>
<path d="M88.9231 81.0529L88.8242 76.1982L101.48 82.3263V87.3704L88.9231 81.0529Z" fill="#F5F5F5"/>
<path d="M101.48 82.326L117.197 74.5166V79.9523L101.48 87.3702V82.326Z" fill="#E0E0E0"/>
<path d="M88.8242 76.199L104.249 68.4844L117.198 74.5176L101.48 82.327L88.8242 76.199Z" fill="#F5F5F5"/>
<path d="M90.4766 78.2959V80.649L91.7129 81.2054V78.9553L90.4766 78.2959Z" fill="#FAFAFA"/>
<path d="M92.4548 79.166V81.5233L93.6953 82.0796V79.8295L92.4548 79.166Z" fill="#FAFAFA"/>
<path d="M49.105 50.422V44.1044L64.0851 51.3616V57.3289L49.105 50.422Z" fill="#E0E0E0"/>
<path d="M64.0854 51.3603L82.6962 42.1127V48.5498L64.0854 57.3277V51.3603Z" fill="#F5F5F5"/>
<path d="M49.105 44.1044L67.3613 34.9762L82.6958 42.1139L64.0851 51.3616L49.105 44.1044Z" fill="#FAFAFA"/>
<path d="M51.0627 46.585V49.3749L52.5257 50.0343V47.368L51.0627 46.585Z" fill="#FAFAFA"/>
<path d="M53.4033 47.6195V50.4054L54.8704 51.0688V48.4025L53.4033 47.6195Z" fill="#FAFAFA"/>
<path d="M94.2639 103.228V108.206L99.6213 110.84V105.697L94.2639 103.228Z" fill="#E0E0E0"/>
<path d="M106.421 102.437L99.6006 105.697V110.84L106.421 107.032V102.437Z" fill="#E0E0E0"/>
<path d="M94.2639 103.228L101.022 99.9518L106.421 102.437L99.6007 105.697L94.2639 103.228Z" fill="#F5F5F5"/>
<path d="M96.1594 106.802V109.155L97.3957 109.715V107.465L96.1594 106.802Z" fill="#FAFAFA"/>
<path d="M51.1372 100.653V105.631L56.474 108.264V103.121L51.1372 100.653Z" fill="#E0E0E0"/>
<path d="M63.2981 99.8616L56.4736 103.121V108.264L63.2981 104.457V99.8616Z" fill="#E0E0E0"/>
<path d="M51.1372 100.654L57.8999 97.3779L63.2985 99.8629L56.474 103.123L51.1372 100.654Z" fill="#F5F5F5"/>
<path d="M53.0325 104.226V106.579L54.2688 107.14V104.89L53.0325 104.226Z" fill="#FAFAFA"/>
<path d="M73.2712 67.7915V72.7739L78.608 75.4072V70.2641L73.2712 67.7915Z" fill="#F5F5F5"/>
<path d="M85.4324 67.0052L78.6079 70.265V75.4081L85.4324 71.6002V67.0052Z" fill="#E0E0E0"/>
<path d="M73.2712 67.792L80.0339 64.5199L85.4325 67.0049L78.608 70.2647L73.2712 67.792Z" fill="#F5F5F5"/>
<path d="M75.1667 71.3684V73.7215L76.4031 74.282V72.0278L75.1667 71.3684Z" fill="#E0E0E0"/>
<path d="M67.3367 110.456V115.439L72.6734 118.068V112.929L67.3367 110.456Z" fill="#E0E0E0"/>
<path d="M79.4978 109.665L72.6775 112.929V118.068L79.4978 114.264V109.665Z" fill="#EBEBEB"/>
<path d="M67.3367 110.457L74.0993 107.185L79.4979 109.666L72.6776 112.929L67.3367 110.457Z" fill="#F5F5F5"/>
<path d="M69.2327 114.03V116.387L70.469 116.944V114.693L69.2327 114.03Z" fill="#FAFAFA"/>
<path d="M89.3762 122.486V128.729L100.614 135.352V128.906L89.3762 122.486Z" fill="#F5F5F5"/>
<path d="M109.182 124.3L100.626 128.908V135.353L109.182 130.581V124.3Z" fill="#E0E0E0"/>
<path d="M89.3762 122.482L97.8574 118.377L109.182 124.299L100.627 128.907L89.3762 122.482Z" fill="#FAFAFA"/>
<path d="M93.625 128.26V131.211L95.1786 132.142V129.224L93.625 128.26Z" fill="#FAFAFA"/>
<path d="M62.3132 135.336V141.58L73.5637 148.206V141.757L62.3132 135.336Z" fill="#E0E0E0"/>
<path d="M86.9904 134.482L73.564 141.756V148.205L87.0275 140.742L86.9904 134.482Z" fill="#FAFAFA"/>
<path d="M62.3132 135.336L76.5144 128.458L87.0273 134.507L73.5637 141.756L62.3132 135.336Z" fill="#F5F5F5"/>
<path d="M66.562 141.109V144.064L68.1115 144.995V142.073L66.562 141.109Z" fill="#FAFAFA"/>
<path d="M104.9 111.991V136.927L111.923 140.558V115.308L104.9 111.991Z" fill="#F5F5F5"/>
<path d="M110.089 109.6L104.9 111.991L111.923 115.308L116.645 112.646L110.089 109.6Z" fill="#FAFAFA"/>
<path d="M111.923 115.308V140.558L116.196 138.258L116.646 112.646L111.923 115.308Z" fill="#E0E0E0"/>
<path d="M75.2246 91.7935V116.73L82.2469 120.361V95.1109L75.2246 91.7935Z" fill="#F5F5F5"/>
<path d="M80.4089 89.3983L75.2246 91.7927L82.2469 95.1101L86.9696 92.4479L80.4089 89.3983Z" fill="#FAFAFA"/>
<path d="M82.2471 95.1106V120.36L86.5165 118.254L86.9698 92.4484L82.2471 95.1106Z" fill="#E0E0E0"/>
<path d="M78.4102 139.214V145.457L89.6648 152.084V145.638L78.4102 139.214Z" fill="#E0E0E0"/>
<path d="M98.2158 141.031L89.6646 145.639V152.084L98.2158 147.312V141.031Z" fill="#FAFAFA"/>
<path d="M78.4102 139.213L86.9902 134.482L98.216 141.03L89.6648 145.638L78.4102 139.213Z" fill="#F5F5F5"/>
<path d="M82.6587 144.988V147.943L84.2123 148.874V145.952L82.6587 144.988Z" fill="#FAFAFA"/>
<path d="M103.433 64.7742L82.9431 55.5389L111.477 41.0162L120.84 54.9784L103.433 64.7742Z" fill="#EBEBEB"/>
<path d="M121.673 73.2562L121.813 57.2665L105.927 66.3081L121.673 73.2562Z" fill="#1946A6"/>
<path d="M109.603 89.271C109.599 89.5105 109.524 89.7435 109.388 89.9407C109.252 90.1379 109.061 90.2905 108.838 90.3794C108.616 90.4682 108.372 90.4894 108.137 90.4402C107.903 90.391 107.688 90.2736 107.52 90.1028C107.352 89.932 107.239 89.7153 107.193 89.4801C107.148 89.2448 107.173 89.0015 107.266 88.7805C107.358 88.5596 107.514 88.3709 107.714 88.2382C107.913 88.1055 108.147 88.0347 108.387 88.0347C108.711 88.0401 109.02 88.1727 109.248 88.404C109.475 88.6352 109.603 88.9466 109.603 89.271Z" fill="#E0E0E0"/>
<path d="M108.387 91.9365C108.244 91.0534 108.244 90.1532 108.387 89.2701C108.529 90.1532 108.529 91.0534 108.387 91.9365Z" fill="#E0E0E0"/>
<path d="M76.4402 86.2907C76.4402 86.5352 76.3677 86.7742 76.2318 86.9776C76.096 87.1809 75.9029 87.3393 75.677 87.4329C75.4511 87.5265 75.2025 87.551 74.9627 87.5033C74.7228 87.4555 74.5025 87.3378 74.3296 87.1649C74.1567 86.992 74.039 86.7717 73.9913 86.5319C73.9436 86.2921 73.9681 86.0435 74.0616 85.8176C74.1552 85.5917 74.3137 85.3986 74.517 85.2627C74.7203 85.1269 74.9593 85.0544 75.2038 85.0544C75.367 85.0516 75.529 85.0817 75.6802 85.1428C75.8315 85.2039 75.9689 85.2949 76.0843 85.4103C76.1996 85.5256 76.2906 85.663 76.3517 85.8143C76.4129 85.9656 76.443 86.1276 76.4402 86.2907Z" fill="#E0E0E0"/>
<path d="M75.2246 88.9735C75.0817 88.0904 75.0817 87.1902 75.2246 86.3071C75.3674 87.1902 75.3674 88.0904 75.2246 88.9735Z" fill="#E0E0E0"/>
<path d="M60.1949 103.262C60.1949 103.503 60.1236 103.738 59.99 103.938C59.8564 104.137 59.6665 104.293 59.4444 104.385C59.2222 104.477 58.9778 104.501 58.742 104.454C58.5061 104.408 58.2895 104.292 58.1195 104.122C57.9495 103.952 57.8337 103.735 57.7868 103.499C57.7399 103.263 57.764 103.019 57.856 102.797C57.948 102.575 58.1038 102.385 58.3037 102.251C58.5037 102.118 58.7387 102.046 58.9791 102.046C59.3016 102.046 59.6108 102.174 59.8388 102.402C60.0668 102.63 60.1949 102.94 60.1949 103.262Z" fill="#E0E0E0"/>
<path d="M58.9916 105.928C58.8488 105.045 58.8488 104.144 58.9916 103.261C59.1345 104.144 59.1345 105.045 58.9916 105.928Z" fill="#E0E0E0"/>
<path d="M61.4109 90.165C61.4109 90.4046 61.3401 90.6388 61.2074 90.8382C61.0747 91.0377 60.886 91.1935 60.6651 91.286C60.4441 91.3786 60.2008 91.4039 59.9655 91.3586C59.7303 91.3134 59.5136 91.1996 59.3428 91.0316C59.172 90.8637 59.0546 90.649 59.0054 90.4145C58.9562 90.1801 58.9774 89.9363 59.0662 89.7138C59.1551 89.4914 59.3077 89.3001 59.5049 89.1641C59.7021 89.0281 59.9351 88.9533 60.1746 88.9493C60.336 88.9465 60.4963 88.976 60.6462 89.0358C60.7961 89.0957 60.9325 89.1848 61.0476 89.298C61.1627 89.4111 61.2541 89.5461 61.3165 89.6949C61.3788 89.8438 61.4109 90.0036 61.4109 90.165Z" fill="#E0E0E0"/>
<path d="M60.1953 92.832C60.0524 91.9489 60.0524 91.0487 60.1953 90.1656C60.3381 91.0487 60.3381 91.9489 60.1953 92.832Z" fill="#E0E0E0"/>
<path d="M91.4121 88.9743C91.417 89.2207 91.3481 89.463 91.2144 89.6699C91.0806 89.8769 90.8881 90.0392 90.6614 90.1359C90.4348 90.2327 90.1844 90.2595 89.9424 90.2129C89.7004 90.1664 89.4778 90.0485 89.3033 89.8746C89.1287 89.7006 89.0102 89.4785 88.9628 89.2366C88.9154 88.9948 88.9413 88.7443 89.0373 88.5174C89.1333 88.2904 89.2949 88.0973 89.5015 87.9628C89.708 87.8284 89.95 87.7587 90.1964 87.7627C90.5181 87.7627 90.8267 87.8903 91.0546 88.1174C91.2824 88.3445 91.411 88.6526 91.4121 88.9743Z" fill="#E0E0E0"/>
<path d="M90.1965 91.628C90.0536 90.745 90.0536 89.8447 90.1965 88.9617C90.3393 89.8447 90.3393 90.745 90.1965 91.628Z" fill="#E0E0E0"/>
<path d="M110.612 98.07C110.612 98.3104 110.541 98.5455 110.407 98.7454C110.274 98.9453 110.084 99.1011 109.862 99.1931C109.64 99.2852 109.395 99.3092 109.159 99.2623C108.924 99.2154 108.707 99.0996 108.537 98.9296C108.367 98.7596 108.251 98.543 108.204 98.3071C108.157 98.0713 108.181 97.8269 108.273 97.6047C108.365 97.3826 108.521 97.1927 108.721 97.0591C108.921 96.9255 109.156 96.8542 109.397 96.8542C109.719 96.8542 110.028 96.9823 110.256 97.2103C110.484 97.4383 110.612 97.7475 110.612 98.07Z" fill="#E0E0E0"/>
<path d="M109.396 100.736C109.253 99.8525 109.253 98.9523 109.396 98.0692C109.539 98.9523 109.539 99.8525 109.396 100.736Z" fill="#E0E0E0"/>
<path d="M111.387 105.219C111.387 105.459 111.315 105.695 111.182 105.894C111.048 106.094 110.858 106.25 110.636 106.342C110.414 106.434 110.17 106.458 109.934 106.411C109.698 106.364 109.481 106.249 109.311 106.079C109.141 105.909 109.026 105.692 108.979 105.456C108.932 105.22 108.956 104.976 109.048 104.754C109.14 104.532 109.296 104.342 109.496 104.208C109.696 104.075 109.931 104.003 110.171 104.003C110.493 104.003 110.803 104.131 111.031 104.359C111.259 104.587 111.387 104.897 111.387 105.219Z" fill="#E0E0E0"/>
<path d="M110.171 107.886C110.028 107.003 110.028 106.103 110.171 105.22C110.314 106.103 110.314 107.003 110.171 107.886Z" fill="#E0E0E0"/>
<path d="M77.3015 120.055C77.3015 120.295 77.2307 120.529 77.098 120.728C76.9653 120.928 76.7766 121.084 76.5557 121.176C76.3348 121.269 76.0914 121.294 75.8561 121.249C75.6209 121.204 75.4043 121.09 75.2334 120.922C75.0626 120.754 74.9453 120.539 74.896 120.305C74.8468 120.07 74.868 119.826 74.9569 119.604C75.0457 119.382 75.1983 119.19 75.3955 119.054C75.5927 118.918 75.8257 118.843 76.0652 118.839C76.2266 118.837 76.3869 118.866 76.5368 118.926C76.6867 118.986 76.8231 119.075 76.9382 119.188C77.0533 119.301 77.1447 119.436 77.2071 119.585C77.2695 119.734 77.3016 119.894 77.3015 120.055Z" fill="#E0E0E0"/>
<path d="M76.0859 122.722C75.9431 121.839 75.9431 120.939 76.0859 120.056C76.2287 120.939 76.2287 121.839 76.0859 122.722Z" fill="#E0E0E0"/>
<path d="M116.023 142.465C116.694 142.465 117.239 141.92 117.239 141.249C117.239 140.578 116.694 140.033 116.023 140.033C115.351 140.033 114.807 140.578 114.807 141.249C114.807 141.92 115.351 142.465 116.023 142.465Z" fill="#E0E0E0"/>
<path d="M116.023 143.916C115.88 143.033 115.88 142.133 116.023 141.25C116.166 142.133 116.166 143.033 116.023 143.916Z" fill="#E0E0E0"/>
<path d="M94.0208 154.544C94.0249 154.79 93.9553 155.032 93.8211 155.239C93.6868 155.445 93.4939 155.607 93.2672 155.703C93.0405 155.799 92.7902 155.825 92.5485 155.778C92.3068 155.731 92.0846 155.613 91.9104 155.439C91.7363 155.265 91.6182 155.042 91.5711 154.801C91.5241 154.559 91.5503 154.309 91.6464 154.082C91.7425 153.855 91.9042 153.662 92.1106 153.528C92.317 153.394 92.5589 153.324 92.8051 153.328C93.1275 153.328 93.4367 153.457 93.6647 153.684C93.8927 153.912 94.0208 154.222 94.0208 154.544Z" fill="#E0E0E0"/>
<path d="M92.7846 157.211C92.6418 156.328 92.6418 155.428 92.7846 154.545C92.9274 155.428 92.9274 156.328 92.7846 157.211Z" fill="#E0E0E0"/>
<path d="M84.6492 150.872C84.6492 151.113 84.5779 151.348 84.4443 151.547C84.3107 151.747 84.1209 151.903 83.8987 151.995C83.6766 152.087 83.4321 152.111 83.1963 152.064C82.9605 152.018 82.7439 151.902 82.5738 151.732C82.4038 151.562 82.288 151.345 82.2411 151.109C82.1942 150.873 82.2183 150.629 82.3103 150.407C82.4023 150.185 82.5581 149.995 82.7581 149.861C82.958 149.728 83.193 149.656 83.4335 149.656C83.7559 149.656 84.0651 149.784 84.2931 150.012C84.5211 150.24 84.6492 150.55 84.6492 150.872Z" fill="#E0E0E0"/>
<path d="M83.4338 153.539C83.291 152.656 83.291 151.756 83.4338 150.873C83.5821 151.756 83.5821 152.657 83.4338 153.539Z" fill="#E0E0E0"/>
<path d="M106.116 148.207C106.116 148.451 106.044 148.69 105.908 148.894C105.772 149.097 105.579 149.255 105.353 149.349C105.127 149.442 104.879 149.467 104.639 149.419C104.399 149.372 104.179 149.254 104.006 149.081C103.833 148.908 103.715 148.688 103.667 148.448C103.62 148.208 103.644 147.959 103.738 147.734C103.831 147.508 103.99 147.315 104.193 147.179C104.396 147.043 104.635 146.97 104.88 146.97C105.043 146.968 105.205 146.998 105.356 147.059C105.508 147.12 105.645 147.211 105.76 147.326C105.876 147.442 105.967 147.579 106.028 147.73C106.089 147.882 106.119 148.044 106.116 148.207Z" fill="#E0E0E0"/>
<path d="M104.9 150.872C104.758 149.989 104.758 149.089 104.9 148.206C105.043 149.089 105.043 149.989 104.9 150.872Z" fill="#E0E0E0"/>
<path d="M86.5985 126.01C87.27 126.01 87.8142 125.466 87.8142 124.795C87.8142 124.123 87.27 123.579 86.5985 123.579C85.9271 123.579 85.3828 124.123 85.3828 124.795C85.3828 125.466 85.9271 126.01 86.5985 126.01Z" fill="#E0E0E0"/>
<path d="M86.603 127.46C86.4601 126.577 86.4601 125.677 86.603 124.794C86.7458 125.677 86.7458 126.577 86.603 127.46Z" fill="#E0E0E0"/>
<path d="M90.8802 112.93C90.8802 113.17 90.8089 113.405 90.6753 113.605C90.5417 113.805 90.3518 113.961 90.1297 114.053C89.9075 114.145 89.6631 114.169 89.4273 114.122C89.1914 114.075 88.9748 113.959 88.8048 113.789C88.6348 113.619 88.519 113.403 88.4721 113.167C88.4252 112.931 88.4493 112.686 88.5413 112.464C88.6333 112.242 88.7891 112.052 88.989 111.919C89.189 111.785 89.424 111.714 89.6644 111.714C89.9869 111.714 90.2961 111.842 90.5241 112.07C90.7521 112.298 90.8802 112.607 90.8802 112.93Z" fill="#E0E0E0"/>
<path d="M89.665 115.597C89.5222 114.714 89.5222 113.813 89.665 112.93C89.8078 113.813 89.8078 114.714 89.665 115.597Z" fill="#E0E0E0"/>
<path d="M61.4109 114.265C61.4109 114.505 61.3401 114.739 61.2074 114.938C61.0747 115.138 60.886 115.293 60.6651 115.386C60.4441 115.479 60.2008 115.504 59.9655 115.459C59.7303 115.413 59.5136 115.3 59.3428 115.132C59.172 114.964 59.0546 114.749 59.0054 114.515C58.9562 114.28 58.9774 114.036 59.0662 113.814C59.1551 113.591 59.3077 113.4 59.5049 113.264C59.7021 113.128 59.9351 113.053 60.1746 113.049C60.336 113.047 60.4963 113.076 60.6462 113.136C60.7961 113.196 60.9325 113.285 61.0476 113.398C61.1627 113.511 61.2541 113.646 61.3165 113.795C61.3788 113.944 61.4109 114.104 61.4109 114.265Z" fill="#E0E0E0"/>
<path d="M60.1953 116.93C60.0524 116.047 60.0524 115.147 60.1953 114.264C60.3381 115.147 60.3381 116.047 60.1953 116.93Z" fill="#E0E0E0"/>
<path d="M117.548 103.262C117.548 103.503 117.477 103.738 117.343 103.938C117.209 104.137 117.02 104.293 116.797 104.385C116.575 104.477 116.331 104.501 116.095 104.454C115.859 104.408 115.643 104.292 115.473 104.122C115.303 103.952 115.187 103.735 115.14 103.499C115.093 103.263 115.117 103.019 115.209 102.797C115.301 102.575 115.457 102.385 115.657 102.251C115.857 102.118 116.092 102.046 116.332 102.046C116.655 102.046 116.964 102.174 117.192 102.402C117.42 102.63 117.548 102.94 117.548 103.262Z" fill="#E0E0E0"/>
<path d="M116.332 105.928C116.189 105.045 116.189 104.144 116.332 103.261C116.475 104.144 116.475 105.045 116.332 105.928Z" fill="#E0E0E0"/>
<path d="M114.288 85.0755C114.288 85.3159 114.217 85.5509 114.083 85.7509C113.95 85.9508 113.76 86.1066 113.538 86.1986C113.316 86.2906 113.071 86.3147 112.835 86.2678C112.599 86.2209 112.383 86.1051 112.213 85.9351C112.043 85.7651 111.927 85.5485 111.88 85.3126C111.833 85.0768 111.857 84.8324 111.949 84.6102C112.041 84.3881 112.197 84.1982 112.397 84.0646C112.597 83.931 112.832 83.8597 113.072 83.8597C113.395 83.8597 113.704 83.9878 113.932 84.2158C114.16 84.4438 114.288 84.753 114.288 85.0755Z" fill="#E0E0E0"/>
<path d="M113.072 87.7379C112.93 86.8548 112.93 85.9546 113.072 85.0715C113.215 85.9546 113.215 86.8548 113.072 87.7379Z" fill="#E0E0E0"/>
<path d="M88.4572 70.2198C89.1286 70.2198 89.6729 69.6755 89.6729 69.004C89.6729 68.3326 89.1286 67.7883 88.4572 67.7883C87.7857 67.7883 87.2415 68.3326 87.2415 69.004C87.2415 69.6755 87.7857 70.2198 88.4572 70.2198Z" fill="#E0E0E0"/>
<path d="M88.4572 71.6649C88.3089 70.7823 88.3089 69.8811 88.4572 68.9985C88.6 69.8816 88.6 70.7818 88.4572 71.6649Z" fill="#E0E0E0"/>
<path d="M66.4302 91.9368C66.4302 92.1764 66.3594 92.4106 66.2267 92.6101C66.094 92.8095 65.9053 92.9653 65.6844 93.0579C65.4634 93.1505 65.22 93.1758 64.9848 93.1305C64.7496 93.0852 64.5329 92.9715 64.3621 92.8035C64.1913 92.6355 64.0739 92.4208 64.0247 92.1864C63.9755 91.9519 63.9966 91.7082 64.0855 91.4857C64.1744 91.2632 64.327 91.072 64.5242 90.936C64.7214 90.7999 64.9544 90.7252 65.1939 90.7211C65.3553 90.7184 65.5156 90.7478 65.6655 90.8077C65.8153 90.8676 65.9518 90.9567 66.0669 91.0698C66.182 91.183 66.2734 91.3179 66.3357 91.4668C66.3981 91.6157 66.4302 91.7754 66.4302 91.9368Z" fill="#E0E0E0"/>
<path d="M65.2145 94.6037C65.0717 93.7207 65.0717 92.8204 65.2145 91.9374C65.3629 92.82 65.3629 93.7211 65.2145 94.6037Z" fill="#E0E0E0"/>
<path d="M80.7136 60.3287C80.7136 60.5732 80.6411 60.8122 80.5053 61.0155C80.3694 61.2188 80.1763 61.3773 79.9504 61.4709C79.7245 61.5644 79.4759 61.5889 79.2361 61.5412C78.9963 61.4935 78.776 61.3758 78.6031 61.2029C78.4302 61.03 78.3124 60.8097 78.2647 60.5699C78.217 60.33 78.2415 60.0814 78.3351 59.8555C78.4287 59.6296 78.5871 59.4365 78.7904 59.3007C78.9937 59.1648 79.2328 59.0923 79.4773 59.0923C79.6404 59.0896 79.8024 59.1196 79.9537 59.1808C80.1049 59.2419 80.2423 59.3329 80.3577 59.4482C80.4731 59.5636 80.564 59.701 80.6252 59.8523C80.6863 60.0035 80.7164 60.1655 80.7136 60.3287Z" fill="#E0E0E0"/>
<path d="M79.4982 63.0114C79.3554 62.1284 79.3554 61.2281 79.4982 60.3451C79.6411 61.2281 79.6411 62.1284 79.4982 63.0114Z" fill="#E0E0E0"/>
<path d="M105.502 57.6533C105.498 57.8928 105.423 58.1258 105.287 58.323C105.151 58.5202 104.96 58.6728 104.737 58.7617C104.515 58.8505 104.271 58.8717 104.037 58.8225C103.802 58.7733 103.588 58.6559 103.42 58.4851C103.252 58.3143 103.138 58.0976 103.093 57.8624C103.047 57.6272 103.073 57.3838 103.165 57.1628C103.258 56.9419 103.414 56.7532 103.613 56.6205C103.813 56.4878 104.047 56.417 104.286 56.417C104.448 56.417 104.608 56.4491 104.756 56.5115C104.905 56.5738 105.04 56.6652 105.153 56.7803C105.267 56.8954 105.356 57.0319 105.416 57.1818C105.475 57.3316 105.505 57.4919 105.502 57.6533Z" fill="#E0E0E0"/>
<path d="M104.287 60.3283C104.144 59.4453 104.144 58.545 104.287 57.662C104.429 58.545 104.429 59.4453 104.287 60.3283Z" fill="#E0E0E0"/>
<path d="M112.355 56.5413C112.355 56.7867 112.282 57.0265 112.145 57.2303C112.008 57.434 111.814 57.5924 111.587 57.6853C111.36 57.7783 111.11 57.8015 110.87 57.7521C110.629 57.7027 110.409 57.5829 110.237 57.408C110.065 57.233 109.949 57.0108 109.904 56.7696C109.858 56.5285 109.886 56.2792 109.982 56.0537C110.079 55.8282 110.241 55.6366 110.447 55.5032C110.653 55.3699 110.894 55.3009 111.139 55.305C111.301 55.305 111.46 55.3371 111.609 55.3994C111.758 55.4618 111.893 55.5532 112.006 55.6683C112.119 55.7834 112.209 55.9198 112.268 56.0697C112.328 56.2196 112.358 56.3799 112.355 56.5413Z" fill="#E0E0E0"/>
<path d="M111.14 59.2083C110.997 58.3253 110.997 57.425 111.14 56.542C111.282 57.425 111.282 58.3253 111.14 59.2083Z" fill="#E0E0E0"/>
<path d="M109.602 47.5728C109.602 47.8132 109.531 48.0483 109.397 48.2482C109.264 48.4481 109.074 48.6039 108.852 48.6959C108.63 48.788 108.385 48.812 108.149 48.7651C107.914 48.7182 107.697 48.6024 107.527 48.4324C107.357 48.2624 107.241 48.0458 107.194 47.8099C107.147 47.5741 107.171 47.3297 107.263 47.1075C107.355 46.8854 107.511 46.6955 107.711 46.5619C107.911 46.4284 108.146 46.3571 108.387 46.3571C108.707 46.3624 109.014 46.4921 109.24 46.719C109.467 46.9459 109.597 47.252 109.602 47.5728Z" fill="#E0E0E0"/>
<path d="M108.387 50.2368C108.244 49.3537 108.244 48.4535 108.387 47.5704C108.529 48.4535 108.529 49.3537 108.387 50.2368Z" fill="#E0E0E0"/>
<path d="M71.4287 68.2322C71.4287 68.4718 71.3579 68.706 71.2252 68.9055C71.0925 69.1049 70.9038 69.2607 70.6829 69.3533C70.462 69.4459 70.2186 69.4711 69.9833 69.4259C69.7481 69.3806 69.5315 69.2669 69.3606 69.0989C69.1898 68.9309 69.0725 68.7163 69.0232 68.4818C68.974 68.2473 68.9952 68.0036 69.084 67.7811C69.1729 67.5586 69.3255 67.3674 69.5227 67.2314C69.7199 67.0953 69.9529 67.0206 70.1924 67.0165C70.3538 67.0138 70.5141 67.0432 70.664 67.1031C70.8139 67.163 70.9503 67.2521 71.0654 67.3652C71.1805 67.4784 71.2719 67.6133 71.3343 67.7622C71.3967 67.9111 71.4288 68.0708 71.4287 68.2322Z" fill="#E0E0E0"/>
<path d="M70.2131 70.8992C70.0702 70.0162 70.0702 69.1159 70.2131 68.2329C70.3559 69.1159 70.3559 70.0162 70.2131 70.8992Z" fill="#E0E0E0"/>
<path d="M99.6832 56.7311C99.6872 56.9774 99.6177 57.2192 99.4834 57.4256C99.3491 57.6321 99.1563 57.7937 98.9296 57.8898C98.7028 57.986 98.4526 58.0122 98.2108 57.9651C97.9691 57.9181 97.7469 57.7999 97.5728 57.6258C97.3987 57.4517 97.2805 57.2295 97.2335 56.9878C97.1864 56.746 97.2126 56.4958 97.3088 56.269C97.4049 56.0423 97.5665 55.8494 97.773 55.7152C97.9794 55.5809 98.2212 55.5114 98.4675 55.5154C98.7899 55.5154 99.0991 55.6435 99.3271 55.8715C99.5551 56.0995 99.6832 56.4087 99.6832 56.7311Z" fill="#E0E0E0"/>
<path d="M98.4675 59.3966C98.3246 58.5135 98.3246 57.6133 98.4675 56.7302C98.6103 57.6133 98.6103 58.5135 98.4675 59.3966Z" fill="#E0E0E0"/>
<path d="M65.5484 29.35C65.5525 29.5963 65.4829 29.8381 65.3486 30.0445C65.2144 30.251 65.0215 30.4126 64.7948 30.5087C64.5681 30.6049 64.3178 30.6311 64.0761 30.584C63.8343 30.537 63.6122 30.4188 63.438 30.2447C63.2639 30.0706 63.1457 29.8484 63.0987 29.6067C63.0517 29.3649 63.0779 29.1147 63.174 28.8879C63.2701 28.6612 63.4317 28.4683 63.6382 28.3341C63.8446 28.1998 64.0865 28.1303 64.3327 28.1343C64.6551 28.1343 64.9643 28.2624 65.1923 28.4904C65.4203 28.7184 65.5484 29.0276 65.5484 29.35Z" fill="#E0E0E0"/>
<path d="M64.349 32.0129C64.2436 31.5776 64.2074 31.1284 64.2418 30.6818C64.2074 30.2352 64.2436 29.786 64.349 29.3507C64.4568 29.7856 64.493 30.2352 64.4561 30.6818C64.493 31.1284 64.4568 31.578 64.349 32.0129Z" fill="#E0E0E0"/>
<path d="M79.4978 36.0053C79.4978 36.2457 79.4265 36.4808 79.2929 36.6807C79.1594 36.8806 78.9695 37.0364 78.7474 37.1284C78.5252 37.2205 78.2808 37.2445 78.0449 37.1976C77.8091 37.1507 77.5925 37.0349 77.4225 36.8649C77.2525 36.6949 77.1367 36.4783 77.0898 36.2424C77.0429 36.0066 77.0669 35.7622 77.1589 35.54C77.251 35.3179 77.4068 35.128 77.6067 34.9944C77.8066 34.8609 78.0417 34.7896 78.2821 34.7896C78.6045 34.7896 78.9138 34.9176 79.1418 35.1456C79.3698 35.3736 79.4978 35.6828 79.4978 36.0053Z" fill="#E0E0E0"/>
<path d="M78.2822 38.6724C78.1772 38.237 78.1411 37.7879 78.1751 37.3413C78.1409 36.8934 78.1771 36.4429 78.2822 36.0061C78.3873 36.4429 78.4235 36.8934 78.3894 37.3413C78.4233 37.7879 78.3872 38.237 78.2822 38.6724Z" fill="#E0E0E0"/>
<path d="M57.3432 57.0318C57.3432 57.2763 57.2707 57.5153 57.1349 57.7186C56.999 57.922 56.806 58.0804 56.58 58.174C56.3541 58.2676 56.1056 58.2921 55.8657 58.2443C55.6259 58.1966 55.4056 58.0789 55.2327 57.906C55.0598 57.7331 54.9421 57.5128 54.8944 57.273C54.8467 57.0332 54.8711 56.7846 54.9647 56.5587C55.0583 56.3328 55.2167 56.1397 55.4201 56.0038C55.6234 55.868 55.8624 55.7955 56.1069 55.7955C56.27 55.7927 56.4321 55.8227 56.5833 55.8839C56.7346 55.945 56.872 56.036 56.9873 56.1514C57.1027 56.2667 57.1937 56.4041 57.2548 56.5554C57.316 56.7066 57.346 56.8687 57.3432 57.0318Z" fill="#E0E0E0"/>
<path d="M56.1069 59.7145C55.964 58.8315 55.964 57.9313 56.1069 57.0482C56.2497 57.9313 56.2497 58.8315 56.1069 59.7145Z" fill="#E0E0E0"/>
<path d="M58.5423 37.222C58.5464 37.4682 58.4768 37.7101 58.3425 37.9165C58.2083 38.1229 58.0154 38.2846 57.7887 38.3807C57.562 38.4768 57.3117 38.503 57.07 38.456C56.8282 38.4089 56.6061 38.2908 56.4319 38.1166C56.2578 37.9425 56.1396 37.7203 56.0926 37.4786C56.0455 37.2369 56.0718 36.9866 56.1679 36.7599C56.264 36.5332 56.4256 36.3403 56.6321 36.206C56.8385 36.0718 57.0804 36.0022 57.3266 36.0063C57.649 36.0063 57.9582 36.1344 58.1862 36.3623C58.4142 36.5903 58.5423 36.8996 58.5423 37.222Z" fill="#E0E0E0"/>
<path d="M57.3431 39.8874C57.2357 39.4524 57.1995 39.0029 57.236 38.5563C57.1994 38.1084 57.2356 37.6574 57.3431 37.2211C57.4483 37.6578 57.4844 38.1084 57.4503 38.5563C57.4843 39.0029 57.4481 39.452 57.3431 39.8874Z" fill="#E0E0E0"/>
<path d="M110.859 93.9068L120.882 88.5947L120.841 98.1762L110.859 93.9068Z" fill="#EBEBEB"/>
<path d="M69.2324 127.881L47.2754 139.214V118.069L49.7068 116.985L69.2324 127.881Z" fill="#EBEBEB"/>
<path d="M102.028 139.215C102.028 139.492 101.946 139.763 101.792 139.993C101.638 140.224 101.419 140.403 101.163 140.509C100.907 140.615 100.625 140.643 100.354 140.589C100.082 140.535 99.8322 140.401 99.6362 140.206C99.4403 140.01 99.3068 139.76 99.2528 139.488C99.1987 139.216 99.2264 138.935 99.3325 138.679C99.4385 138.423 99.6181 138.204 99.8485 138.05C100.079 137.896 100.35 137.814 100.627 137.814C100.999 137.814 101.355 137.961 101.618 138.224C101.881 138.487 102.028 138.843 102.028 139.215Z" fill="#1946A6"/>
<path d="M114.849 39.2002L121.842 41.3267V52.3464L114.849 39.2002Z" fill="#EBEBEB"/>
<path d="M121.912 24.4794L121.871 12.4541C121.589 10.3825 120.569 8.48224 118.998 7.10275C117.427 5.72325 115.41 4.95724 113.32 4.94556L102.288 4.90435C101.928 4.91079 101.573 4.98807 101.243 5.13177C100.913 5.27547 100.614 5.48278 100.364 5.74187C100.114 6.00095 99.9178 6.30673 99.7861 6.64174C99.6544 6.97674 99.59 7.33441 99.5966 7.69431V9.69303C99.6076 10.4185 99.3305 11.1187 98.826 11.6401C98.3216 12.1616 97.6309 12.4617 96.9055 12.4748L75.3977 12.3758C74.6711 12.3554 73.9823 12.0475 73.4825 11.5198C72.9826 10.9922 72.7125 10.2878 72.7313 9.56116V7.56244C72.7412 7.20252 72.6801 6.84418 72.5514 6.5079C72.4227 6.17162 72.229 5.86399 71.9814 5.60259C71.7338 5.3412 71.4371 5.13116 71.1083 4.98448C70.7794 4.83781 70.4249 4.75736 70.065 4.74775H66.183L56.5191 4.68594C54.3448 4.68091 52.2483 5.4945 50.6465 6.96489C49.6781 8.83173 48.619 11.4981 49.1053 13.5133L121.859 37.197L121.912 24.4794Z" fill="#1946A6"/>
<path opacity="0.7" d="M121.912 24.4794L121.871 12.4541C121.589 10.3825 120.569 8.48224 118.998 7.10275C117.427 5.72325 115.41 4.95724 113.32 4.94556L102.288 4.90435C101.928 4.91079 101.573 4.98807 101.243 5.13177C100.913 5.27547 100.614 5.48278 100.364 5.74187C100.114 6.00095 99.9178 6.30673 99.7861 6.64174C99.6544 6.97674 99.59 7.33441 99.5966 7.69431V9.69303C99.6076 10.4185 99.3305 11.1187 98.826 11.6401C98.3216 12.1616 97.6309 12.4617 96.9055 12.4748L75.3977 12.3758C74.6711 12.3554 73.9823 12.0475 73.4825 11.5198C72.9826 10.9922 72.7125 10.2878 72.7313 9.56116V7.56244C72.7412 7.20252 72.6801 6.84418 72.5514 6.5079C72.4227 6.17162 72.229 5.86399 71.9814 5.60259C71.7338 5.3412 71.4371 5.13116 71.1083 4.98448C70.7794 4.83781 70.4249 4.75736 70.065 4.74775H66.183L56.5191 4.68594C54.3448 4.68091 52.2483 5.4945 50.6465 6.96489C49.6781 8.83173 48.619 11.4981 49.1053 13.5133L121.859 37.197L121.912 24.4794Z" fill="white"/>
<path d="M113.32 4.94519H113.616C113.91 4.95057 114.204 4.97536 114.494 5.01937C115.647 5.16205 116.756 5.54989 117.746 6.15678C118.483 6.59675 119.149 7.14712 119.72 7.78872C120.419 8.55084 120.977 9.43137 121.368 10.3891C121.813 11.5093 122.029 12.7075 122.003 13.9126C122.003 15.1929 122.003 16.557 122.003 18.0048C121.962 29.5727 121.904 46.3083 121.83 66.9878C121.756 87.6673 121.652 112.291 121.545 139.634C121.545 143.049 121.532 146.508 121.504 150.011C121.504 150.884 121.504 151.762 121.504 152.644C121.517 153.537 121.4 154.427 121.158 155.286C120.915 156.152 120.538 156.975 120.041 157.725C119.537 158.475 118.926 159.147 118.228 159.72C116.8 160.87 115.047 161.543 113.217 161.645C112.759 161.673 112.306 161.665 111.853 161.665H110.493H107.76L96.7036 161.616L73.9841 161.504L62.3792 161.451L56.519 161.406C54.5174 161.508 52.5373 160.952 50.8814 159.823C49.2305 158.673 48.0211 156.994 47.4527 155.063C47.1826 154.11 47.0644 153.119 47.1024 152.129V149.203C47.1189 145.31 47.1354 141.44 47.1519 137.594C47.1848 129.901 47.2164 122.337 47.2467 114.899C47.3126 100.018 47.3744 85.6645 47.4362 71.9908C47.498 58.3171 47.5557 45.3275 47.6093 33.1663C47.6368 27.0863 47.6643 21.222 47.6917 15.5734C47.6917 14.8646 47.6917 14.164 47.6917 13.4676C47.6917 13.1173 47.7247 12.7629 47.7453 12.4126C47.7659 12.0623 47.836 11.7202 47.9266 11.3823C48.2442 10.0329 48.8737 8.77667 49.7646 7.71455C50.6313 6.69211 51.7199 5.88107 52.9476 5.34329C54.1753 4.8055 55.5096 4.55517 56.8487 4.61138L64.415 4.64847H68.0539H69.8383C70.4432 4.6185 71.0411 4.78789 71.5403 5.13064C72.0446 5.47719 72.4256 5.9751 72.6283 6.5524C72.7882 7.10886 72.8455 7.6898 72.7973 8.26677C72.7973 8.547 72.7973 8.83136 72.7973 9.09098C72.7788 9.36541 72.7788 9.64077 72.7973 9.9152C72.8642 10.4547 73.0893 10.9623 73.4443 11.3741C73.7888 11.7817 74.2532 12.0701 74.7712 12.1983C75.0273 12.2609 75.2907 12.2886 75.5543 12.2807H76.3537H79.4899L90.9341 12.3425L95.9824 12.3714C96.3945 12.3714 96.786 12.3714 97.1651 12.3714C97.5442 12.3293 97.909 12.2026 98.2325 12.0005C98.5446 11.8063 98.8148 11.5517 99.0271 11.2517C99.2395 10.9516 99.3896 10.6121 99.4688 10.2531C99.5291 9.9049 99.5526 9.55128 99.5389 9.19813C99.5389 8.84784 99.5389 8.50167 99.5389 8.15962C99.5243 7.82226 99.5408 7.48428 99.5883 7.14996C99.6432 6.82398 99.7547 6.51015 99.918 6.22272C100.221 5.66004 100.713 5.22226 101.307 4.9864C101.863 4.81275 102.449 4.75249 103.029 4.80919L108.659 4.84628L112.12 4.87101H113.303C113.303 4.87101 112.891 4.87101 112.12 4.87101H108.659H103.029C102.457 4.81285 101.879 4.87317 101.332 5.04822C100.757 5.27502 100.279 5.69461 99.9798 6.23508C99.8237 6.51725 99.7164 6.82378 99.6625 7.14172C99.618 7.47217 99.6029 7.8059 99.6172 8.13901C99.6172 8.48106 99.6172 8.82723 99.6172 9.17753C99.6333 9.53634 99.6084 9.89583 99.543 10.249C99.4644 10.619 99.3123 10.9695 99.0957 11.2795C98.8791 11.5896 98.6023 11.853 98.2819 12.054C97.9489 12.264 97.5728 12.3964 97.1816 12.4414C96.7695 12.4744 96.3904 12.4414 95.9865 12.4414H90.9382L79.494 12.3961H76.3579H75.5584C75.2812 12.406 75.0039 12.3782 74.7342 12.3137C74.2051 12.1858 73.7269 11.9014 73.3618 11.4977C72.9906 11.0659 72.7554 10.5339 72.686 9.96877C72.6593 9.688 72.6511 9.40579 72.6613 9.12395V8.29974C72.7094 7.74505 72.6549 7.18625 72.5005 6.65131C72.3111 6.11541 71.9597 5.65167 71.495 5.32433C71.0187 4.99797 70.4478 4.83856 69.8713 4.87101H68.0869H64.448L56.8776 4.84216C55.5691 4.77962 54.2636 5.01491 53.0593 5.53032C51.855 6.04573 50.7834 6.8278 49.9253 7.81757C49.053 8.86173 48.4364 10.095 48.1244 11.4194C48.0379 11.7491 48.009 12.0952 47.9472 12.4332C47.8854 12.7711 47.9019 13.1173 47.8978 13.4676C47.8978 14.164 47.8978 14.8687 47.8978 15.5734C47.8731 21.2138 47.8497 27.0781 47.8277 33.1663C47.7824 45.3275 47.7288 58.3047 47.6752 71.9908C47.6217 85.6769 47.5599 100.014 47.498 114.899C47.4678 122.342 47.4307 129.91 47.3868 137.602C47.3868 141.449 47.3717 145.318 47.3414 149.211V152.141C47.3027 153.115 47.4181 154.089 47.6835 155.026C48.2363 156.905 49.4102 158.541 51.0133 159.666C52.633 160.762 54.5666 161.297 56.519 161.191L62.3792 161.216L73.9882 161.27L96.6747 161.377L107.732 161.43H110.464H111.824C112.277 161.43 112.73 161.43 113.175 161.41C114.964 161.311 116.676 160.653 118.071 159.53C118.754 158.97 119.351 158.314 119.843 157.581C120.328 156.85 120.696 156.047 120.935 155.203C121.172 154.361 121.284 153.49 121.269 152.615C121.269 151.733 121.269 150.856 121.269 149.982C121.286 146.479 121.301 143.019 121.315 139.601C121.442 112.262 121.554 87.6385 121.644 66.959C121.735 46.2795 121.83 29.5438 121.887 17.976C121.887 16.5309 121.894 15.1668 121.908 13.8838C121.94 12.6878 121.729 11.4977 121.29 10.385C120.909 9.43168 120.359 8.55496 119.666 7.79697C119.1 7.16463 118.441 6.6214 117.713 6.18563C116.729 5.57785 115.628 5.18464 114.482 5.03173C114.192 4.98397 113.898 4.95643 113.604 4.94931C113.419 4.95755 113.32 4.94519 113.32 4.94519Z" fill="#263238"/>
<path d="M139.093 86.8275C145.196 86.98 151.365 87.1407 157.267 88.7067C163.168 90.2727 168.867 93.3883 172.366 98.3912C176.224 103.897 176.99 110.936 177.373 117.645C178.068 128.779 177.894 139.951 176.854 151.058C176.302 156.68 174.307 161.905 169.078 164.044C162.789 166.62 154.337 164.044 154.337 164.044" fill="#263238"/>
<path d="M155.462 162.705C155.462 162.705 155.54 162.705 155.692 162.705H156.372L158.981 162.684C160.358 162.709 161.735 162.637 163.102 162.47C163.514 162.404 163.926 162.359 164.338 162.252L164.973 162.112C165.187 162.054 165.385 161.984 165.62 161.922C166.061 161.807 166.49 161.621 166.939 161.456C167.391 161.265 167.831 161.048 168.258 160.805C169.185 160.293 170.021 159.63 170.73 158.844C171.488 157.991 172.039 156.976 172.342 155.876C172.918 153.412 173.229 150.894 173.269 148.364C173.351 145.689 173.322 142.879 173.347 139.961C173.372 137.043 173.372 134.031 173.388 130.94C173.405 127.849 173.434 124.828 173.335 121.915C173.262 119.117 172.997 116.327 172.543 113.565C171.653 108.295 169.811 103.724 167.429 100.452C166.343 98.9929 165.124 97.638 163.786 96.4053C162.612 95.3049 161.557 94.4065 160.691 93.6771L158.688 92.0081L158.173 91.5671C158.113 91.5183 158.055 91.466 158 91.4105C158 91.4105 158.066 91.4559 158.186 91.5506L158.717 91.9627L160.745 93.6112C161.619 94.3282 162.686 95.2184 163.869 96.3146C165.222 97.544 166.455 98.8991 167.553 100.361C169.964 103.658 171.835 108.237 172.741 113.549C173.2 116.32 173.467 119.119 173.541 121.927C173.648 124.845 173.615 127.865 173.603 130.956C173.59 134.047 173.574 137.064 173.557 139.981C173.541 142.899 173.557 145.706 173.467 148.388C173.42 150.933 173.101 153.466 172.515 155.942C172.204 157.065 171.64 158.101 170.866 158.971C170.147 159.765 169.302 160.435 168.365 160.954C167.932 161.197 167.486 161.415 167.03 161.609C166.572 161.774 166.135 161.955 165.69 162.07L165.039 162.256L164.396 162.396C163.984 162.499 163.572 162.54 163.16 162.606C161.792 162.764 160.415 162.823 159.039 162.783H156.43H155.75L155.462 162.705Z" fill="#455A64"/>
<path d="M173.438 132.514C174.122 132.259 174.846 132.129 175.577 132.131C176.304 132.063 177.038 132.125 177.744 132.312C177.744 132.374 176.772 132.287 175.585 132.345C174.398 132.403 173.45 132.576 173.438 132.514Z" fill="#455A64"/>
<path d="M147.067 87.1455H147.224H147.689C148.102 87.1455 148.703 87.1455 149.478 87.2156C151.668 87.4136 153.827 87.8743 155.907 88.5879L156.908 88.9588L157.427 89.1525L157.939 89.3832L158.998 89.8654C159.36 90.0261 159.702 90.2322 160.069 90.4218C161.607 91.2418 163.069 92.1976 164.437 93.2777C165.962 94.4573 167.37 95.7808 168.641 97.2298C170.011 98.7859 171.155 100.527 172.041 102.402C173.879 106.255 174.674 110.289 175.082 113.941C175.49 117.592 175.494 120.914 175.494 123.691C175.494 126.469 175.494 128.711 175.548 130.264C175.573 131.031 175.589 131.628 175.601 132.053C175.601 132.246 175.601 132.399 175.601 132.514C175.606 132.568 175.606 132.622 175.601 132.675C175.595 132.623 175.595 132.57 175.601 132.518C175.601 132.403 175.601 132.246 175.568 132.053C175.54 131.641 175.511 131.043 175.478 130.268C175.416 128.715 175.383 126.469 175.354 123.675C175.325 120.881 175.28 117.592 174.88 113.945C174.48 110.298 173.644 106.308 171.843 102.488C170.968 100.629 169.835 98.9031 168.476 97.3616C167.218 95.9177 165.823 94.5996 164.31 93.426C162.954 92.3466 161.505 91.3908 159.978 90.5701C159.62 90.3805 159.278 90.158 158.919 90.0097L157.868 89.5275L157.357 89.2926L156.846 89.0989L155.853 88.7198C153.785 88.0018 151.642 87.5221 149.466 87.2897C148.695 87.2238 148.089 87.2114 147.685 87.1826L147.22 87.1537C147.169 87.1567 147.117 87.154 147.067 87.1455Z" fill="#E0E0E0"/>
<path d="M143.25 87.1327C143.25 87.1327 144.746 83.1806 150.075 83.9306C150.075 83.9306 152.449 83.7988 152.881 85.1175C152.881 85.1175 147.916 83.8812 145.801 87.3181L143.25 87.1327Z" fill="#263238"/>
<path d="M158.437 91.9473H155.318C155.318 91.9473 154.712 83.7052 147.146 84.0142C147.146 84.0307 156.55 80.8657 158.437 91.9473Z" fill="#455A64"/>
<path d="M173.483 137.549L177.958 138.167L177.509 139.758L173.334 139.437L173.483 137.549Z" fill="#455A64"/>
<path d="M173.755 138.987C173.893 138.698 174.069 138.428 174.278 138.184L174.34 138.101L174.41 138.184L175.036 138.946L174.892 138.926L175.337 138.596L175.803 138.258L175.885 138.196L175.947 138.283L176.52 139.107L176.404 139.086C176.658 138.893 176.935 138.733 177.229 138.608C177.021 138.844 176.783 139.051 176.52 139.222L176.442 139.251L176.392 139.185L175.782 138.402L175.926 138.423L175.469 138.765L175.02 139.09L174.937 139.152L174.876 139.07L174.282 138.287H174.414C174.226 138.549 174.005 138.784 173.755 138.987Z" fill="#F78F1E"/>
<path d="M108.444 167.003C108.444 167.003 107.579 164.184 107.752 162.989C107.925 161.794 109.528 160.714 109.528 160.714L107.789 115.527C107.789 115.527 107.566 95.7458 118.026 89.6178L124.269 88.0436L139.67 87.1328C140.168 87.2977 158.268 94.1057 160.757 96.7637L152.952 136.614C152.952 136.614 153.9 148.388 154.843 156.849C155.037 158.58 156.335 167.127 156.335 167.127L108.444 167.003Z" fill="#F78F1E"/>
<g opacity="0.3">
<path d="M154.555 154.191C154.407 155.287 153.99 156.626 152.935 156.968C151.856 157.25 150.725 157.266 149.638 157.014C145.781 156.326 142.221 154.512 138.738 152.724C132.223 149.373 125.646 145.99 120.016 141.292C119.225 140.633 118.368 139.606 118.866 138.696C119.415 137.665 120.96 138.012 122.019 138.502C133.072 143.596 143.498 149.093 154.551 154.191" fill="black"/>
</g>
<path d="M115.681 90.8505C115.681 90.8505 108.786 93.15 106.557 99.5377C104.084 106.593 102.46 120.291 102.46 120.291L109.268 121.149L115.681 90.8505Z" fill="#F78F1E"/>
<path d="M160.748 96.7632C160.748 96.7632 164.457 101.626 166.246 107.536C168.035 113.445 169.073 130.568 169.073 130.568L150.528 130.313L149.543 115.242C149.543 115.242 147.672 90.0994 160.748 96.7632Z" fill="#F78F1E"/>
<path d="M104.892 105.691C105.037 105.503 105.211 105.341 105.407 105.209C105.69 105.017 106.008 104.885 106.343 104.821C106.678 104.757 107.023 104.761 107.356 104.834C108.255 104.966 109.129 105.658 110.278 106.111C110.878 106.378 111.544 106.46 112.19 106.346C112.866 106.202 113.456 105.716 114.074 105.242C114.391 104.986 114.737 104.769 115.104 104.595C115.303 104.501 115.519 104.447 115.739 104.438C115.96 104.429 116.179 104.464 116.386 104.541C116.804 104.725 117.153 105.036 117.383 105.431C117.639 105.802 117.845 106.206 118.112 106.569C118.357 106.955 118.726 107.246 119.159 107.393C119.609 107.525 120.086 107.525 120.536 107.393C121.008 107.262 121.46 107.067 121.879 106.812C122.291 106.56 122.703 106.255 123.161 105.988C123.606 105.694 124.088 105.459 124.595 105.291C125.131 105.121 125.707 105.121 126.243 105.291C126.771 105.486 127.256 105.783 127.669 106.165C128.081 106.523 128.493 106.919 128.926 107.261C129.345 107.623 129.85 107.871 130.393 107.978C130.948 108.077 131.519 108.018 132.042 107.809C133.113 107.397 134.061 106.68 135.116 106.099C135.636 105.787 136.202 105.56 136.793 105.427C137.391 105.31 138.01 105.358 138.582 105.567C139.703 106.004 140.535 106.857 141.532 107.331C141.777 107.451 142.034 107.542 142.299 107.603C142.562 107.656 142.831 107.674 143.098 107.657C143.633 107.603 144.154 107.454 144.636 107.216C145.612 106.775 146.494 106.157 147.52 105.823C148.02 105.646 148.556 105.6 149.078 105.687C149.583 105.793 150.051 106.032 150.434 106.379C151.188 107.01 151.786 107.813 152.647 108.081C153.069 108.204 153.516 108.217 153.945 108.118C154.365 108.022 154.778 107.899 155.181 107.747C155.977 107.467 156.809 107.179 157.617 107.364C158.001 107.452 158.359 107.629 158.664 107.879C158.965 108.11 159.228 108.365 159.488 108.596C159.739 108.826 160.015 109.027 160.312 109.194C160.59 109.341 160.891 109.437 161.202 109.478C161.77 109.553 162.347 109.495 162.888 109.309C163.344 109.153 163.776 108.932 164.17 108.654C164.713 108.262 165.221 107.822 165.686 107.339L166.057 106.968C166.096 106.923 166.14 106.883 166.189 106.849C166.189 106.849 166.152 106.898 166.073 106.985L165.719 107.372C165.261 107.869 164.757 108.321 164.215 108.724C163.818 109.012 163.383 109.241 162.921 109.404C162.365 109.603 161.771 109.669 161.186 109.598C160.859 109.557 160.542 109.458 160.25 109.305C159.955 109.133 159.678 108.93 159.426 108.699C158.895 108.246 158.367 107.665 157.609 107.512C156.85 107.36 156.059 107.62 155.264 107.904C154.852 108.059 154.431 108.187 154.003 108.287C153.546 108.392 153.069 108.379 152.618 108.25C152.157 108.093 151.736 107.839 151.382 107.504C151.019 107.183 150.689 106.832 150.314 106.523C149.958 106.197 149.519 105.973 149.045 105.876C148.555 105.798 148.053 105.845 147.586 106.012C146.618 106.334 145.736 106.948 144.739 107.401C144.237 107.652 143.694 107.808 143.136 107.863C142.849 107.882 142.561 107.864 142.278 107.809C141.994 107.745 141.717 107.648 141.454 107.521C140.416 107.022 139.583 106.177 138.516 105.769C137.982 105.573 137.405 105.527 136.847 105.637C136.278 105.769 135.733 105.987 135.231 106.284C134.193 106.853 133.245 107.591 132.128 108.011C131.57 108.228 130.963 108.29 130.373 108.188C129.796 108.072 129.26 107.81 128.815 107.426C127.921 106.729 127.204 105.823 126.194 105.489C125.699 105.332 125.168 105.332 124.673 105.489C124.184 105.651 123.719 105.877 123.289 106.161C122.848 106.429 122.44 106.733 121.995 106.985C121.561 107.246 121.094 107.445 120.606 107.578C120.121 107.718 119.607 107.718 119.122 107.578C118.658 107.419 118.259 107.11 117.989 106.701C117.713 106.321 117.507 105.913 117.264 105.551C117.05 105.189 116.73 104.902 116.349 104.727C116.162 104.656 115.962 104.624 115.763 104.632C115.563 104.641 115.367 104.69 115.187 104.776C114.829 104.942 114.492 105.151 114.185 105.398C113.567 105.86 112.949 106.358 112.24 106.515C111.567 106.628 110.875 106.538 110.254 106.255C109.087 105.794 108.23 105.089 107.369 104.949C107.044 104.874 106.708 104.865 106.38 104.922C106.051 104.978 105.738 105.1 105.457 105.279C105.259 105.402 105.07 105.54 104.892 105.691Z" fill="#FAFAFA"/>
<path d="M102.708 116.834C102.768 116.828 102.829 116.828 102.889 116.834L103.425 116.887C104.096 117.02 104.789 117.002 105.452 116.834C105.889 116.739 106.38 116.652 106.915 116.557C107.451 116.463 108.024 116.335 108.659 116.261C109.348 116.161 110.051 116.212 110.719 116.409C111.42 116.615 112.1 116.974 112.85 117.233C113.632 117.499 114.476 117.524 115.273 117.303C116.097 117.101 116.921 116.718 117.832 116.409C118.742 116.02 119.749 115.921 120.717 116.125C121.714 116.405 122.518 117.143 123.515 117.386C123.763 117.447 124.019 117.465 124.273 117.439C124.533 117.407 124.789 117.347 125.036 117.258C125.538 117.085 126.025 116.846 126.556 116.644C127.099 116.419 127.706 116.398 128.262 116.586C128.786 116.835 129.272 117.157 129.705 117.542C129.925 117.715 130.166 117.86 130.422 117.975C130.682 118.085 130.964 118.137 131.246 118.128C131.823 118.075 132.383 117.908 132.895 117.637C133.432 117.36 133.995 117.135 134.576 116.965C134.882 116.89 135.198 116.868 135.511 116.9C135.826 116.942 136.131 117.041 136.41 117.192C136.932 117.507 137.436 117.853 137.918 118.227C138.156 118.394 138.414 118.532 138.685 118.639C138.817 118.692 138.956 118.731 139.097 118.754L139.307 118.791H139.521C140.099 118.779 140.669 118.66 141.203 118.441C141.747 118.243 142.282 118.008 142.851 117.843C143.407 117.645 144.007 117.601 144.586 117.716C145.144 117.872 145.65 118.177 146.049 118.597C146.424 118.988 146.826 119.352 147.252 119.685C147.674 119.985 148.186 120.131 148.703 120.097C149.21 120.045 149.703 119.896 150.154 119.657C150.611 119.434 151.044 119.174 151.485 118.931C152.35 118.449 153.302 118.008 154.287 118.107C155.197 118.275 156.048 118.673 156.76 119.265C157.405 119.787 158.094 120.252 158.82 120.654C159.497 120.982 160.23 121.18 160.98 121.239C161.651 121.276 162.324 121.225 162.982 121.087C164.038 120.842 165.024 120.362 165.867 119.681C166.392 119.243 166.845 118.726 167.211 118.148C167.326 117.946 167.404 117.781 167.462 117.678C167.489 117.623 167.519 117.569 167.553 117.518C167.535 117.576 167.511 117.633 167.483 117.687C167.429 117.794 167.359 117.963 167.248 118.169C166.896 118.764 166.448 119.296 165.921 119.743C165.076 120.445 164.083 120.944 163.015 121.202C162.348 121.352 161.663 121.41 160.98 121.375C160.21 121.322 159.458 121.123 158.763 120.79C158.023 120.391 157.321 119.926 156.665 119.401C155.975 118.831 155.151 118.447 154.271 118.284C153.347 118.181 152.437 118.602 151.575 119.084C151.143 119.327 150.706 119.591 150.236 119.817C149.764 120.069 149.248 120.227 148.715 120.283C148.155 120.317 147.6 120.161 147.141 119.838C146.701 119.502 146.288 119.133 145.905 118.733C145.531 118.339 145.056 118.054 144.532 117.909C143.988 117.804 143.426 117.848 142.905 118.037C142.361 118.198 141.829 118.449 141.277 118.63C140.72 118.861 140.124 118.986 139.521 118.997H139.286L139.06 118.956C138.905 118.932 138.754 118.889 138.611 118.828C138.319 118.715 138.043 118.566 137.786 118.387C137.309 118.02 136.813 117.678 136.299 117.365C136.043 117.226 135.763 117.135 135.474 117.097C135.186 117.069 134.895 117.089 134.613 117.155C134.045 117.325 133.493 117.545 132.965 117.814C132.429 118.095 131.844 118.269 131.242 118.325C130.934 118.33 130.629 118.273 130.344 118.156C130.073 118.034 129.819 117.879 129.585 117.695C129.165 117.325 128.699 117.011 128.197 116.764C127.683 116.593 127.126 116.613 126.626 116.821C126.115 116.998 125.625 117.254 125.106 117.431C124.839 117.526 124.563 117.59 124.282 117.621C124.006 117.647 123.727 117.628 123.457 117.563C122.39 117.291 121.595 116.553 120.651 116.29C119.714 116.089 118.738 116.183 117.857 116.557C117.012 116.898 116.151 117.195 115.277 117.448C114.45 117.671 113.576 117.639 112.767 117.357C112.001 117.097 111.329 116.735 110.645 116.533C110.003 116.34 109.327 116.286 108.663 116.376C108.036 116.442 107.455 116.566 106.919 116.656C106.384 116.747 105.893 116.821 105.457 116.912C105.238 116.953 105.044 117.003 104.83 117.031C104.644 117.054 104.456 117.054 104.27 117.031C103.928 116.994 103.639 116.953 103.404 116.92L102.877 116.846C102.82 116.847 102.764 116.843 102.708 116.834Z" fill="#FAFAFA"/>
<path d="M109.57 126.551H109.693L110.052 126.588C110.365 126.621 110.827 126.683 111.42 126.774C112.611 126.935 114.305 127.289 116.452 127.466C117.614 127.562 118.784 127.541 119.942 127.404C120.598 127.326 121.261 127.326 121.916 127.404C122.263 127.452 122.6 127.55 122.918 127.697C123.237 127.859 123.538 128.056 123.816 128.282C124.377 128.694 124.908 129.242 125.596 129.448C125.939 129.549 126.304 129.549 126.647 129.448C127.006 129.338 127.356 129.2 127.694 129.036C128.051 128.855 128.433 128.727 128.827 128.657C129.247 128.597 129.673 128.689 130.031 128.917C130.744 129.349 131.209 130.071 131.935 130.376C132.66 130.681 133.488 130.495 134.234 130.277C134.979 129.995 135.758 129.813 136.55 129.737C136.95 129.728 137.346 129.811 137.708 129.98C138.054 130.149 138.374 130.366 138.66 130.623C139.166 131.133 139.737 131.573 140.358 131.933C140.984 132.189 141.685 132.189 142.311 131.933C142.946 131.736 143.527 131.426 144.162 131.282C144.773 131.112 145.425 131.161 146.004 131.422C146.274 131.564 146.494 131.786 146.634 132.057C146.75 132.311 146.846 132.572 146.923 132.84C146.992 133.083 147.113 133.308 147.277 133.499C147.439 133.674 147.642 133.805 147.867 133.883C148.292 134.017 148.748 134.017 149.173 133.883C149.543 133.766 149.879 133.559 150.15 133.281C150.38 133.045 150.58 132.782 150.747 132.498C150.971 132.101 151.164 131.688 151.324 131.262C151.382 131.126 151.423 131.014 151.456 130.928C151.469 130.889 151.487 130.851 151.51 130.817C151.503 130.858 151.492 130.898 151.477 130.936L151.365 131.278C151.221 131.718 151.038 132.144 150.817 132.552C150.657 132.851 150.457 133.128 150.224 133.376C149.944 133.672 149.596 133.894 149.21 134.023C148.762 134.172 148.278 134.179 147.825 134.043C147.576 133.963 147.351 133.821 147.17 133.631C146.983 133.428 146.842 133.186 146.758 132.922C146.681 132.664 146.586 132.41 146.474 132.164C146.346 131.924 146.15 131.727 145.909 131.6C145.364 131.363 144.753 131.325 144.182 131.492C143.581 131.628 142.996 131.938 142.349 132.148C142.017 132.262 141.672 132.33 141.322 132.35C140.956 132.363 140.59 132.293 140.255 132.144C139.616 131.778 139.029 131.329 138.508 130.808C138.233 130.566 137.928 130.36 137.601 130.194C137.266 130.043 136.901 129.968 136.534 129.976C135.761 130.054 135.002 130.233 134.275 130.507C133.887 130.634 133.486 130.722 133.08 130.771C132.66 130.822 132.235 130.763 131.844 130.602C131.04 130.252 130.571 129.518 129.911 129.127C129.595 128.923 129.216 128.841 128.844 128.896C128.471 128.962 128.11 129.083 127.772 129.255C127.426 129.43 127.066 129.578 126.697 129.696C126.316 129.808 125.911 129.808 125.53 129.696C124.772 129.461 124.236 128.913 123.684 128.488C123.42 128.269 123.133 128.08 122.827 127.924C122.527 127.782 122.207 127.687 121.879 127.639C121.239 127.563 120.591 127.563 119.951 127.639C118.782 127.768 117.603 127.781 116.431 127.676C114.284 127.479 112.586 127.099 111.399 126.914L110.035 126.687L109.681 126.634L109.57 126.551Z" fill="#FAFAFA"/>
<path d="M108.992 154.034L109.116 153.985L109.475 153.861C109.792 153.75 110.262 153.581 110.868 153.383C111.604 153.123 112.367 152.945 113.142 152.852C113.638 152.824 114.133 152.905 114.593 153.091C115.088 153.3 115.607 153.448 116.138 153.532C116.725 153.556 117.308 153.425 117.828 153.153C118.407 152.848 119.016 152.604 119.645 152.423C120.346 152.296 121.066 152.338 121.747 152.547C122.444 152.732 123.132 153.008 123.849 153.218C124.567 153.467 125.337 153.532 126.087 153.408C126.856 153.182 127.604 152.891 128.324 152.538C128.717 152.371 129.135 152.272 129.561 152.246C130.005 152.23 130.444 152.346 130.822 152.58C131.576 153.025 132.116 153.758 132.907 154.051C133.3 154.183 133.724 154.193 134.123 154.08C134.528 153.964 134.922 153.813 135.301 153.631C135.685 153.445 136.082 153.288 136.488 153.161C136.905 153.026 137.352 153.015 137.774 153.132C138.176 153.272 138.536 153.512 138.821 153.828C139.109 154.121 139.365 154.426 139.645 154.673C139.932 154.911 140.272 155.076 140.637 155.153C141.002 155.23 141.38 155.216 141.738 155.114C142.468 154.97 143.156 154.702 143.853 154.5C144.2 154.402 144.559 154.348 144.92 154.339C145.278 154.328 145.633 154.415 145.946 154.591C146.249 154.756 146.505 154.994 146.692 155.283C146.882 155.555 147.03 155.839 147.182 156.107C147.415 156.644 147.844 157.072 148.382 157.302C148.891 157.452 149.438 157.396 149.906 157.146C150.335 156.938 150.718 156.647 151.031 156.289C151.499 155.675 151.899 155.011 152.222 154.311C152.443 153.869 152.702 153.449 152.997 153.054C153.102 152.918 153.22 152.793 153.347 152.679C153.347 152.679 153.232 152.81 153.034 153.091C152.754 153.491 152.507 153.915 152.297 154.356C151.982 155.071 151.588 155.748 151.122 156.375C150.802 156.752 150.408 157.059 149.964 157.278C149.46 157.553 148.867 157.617 148.316 157.455C147.741 157.214 147.279 156.765 147.022 156.198C146.713 155.666 146.424 155.048 145.843 154.751C145.262 154.455 144.557 154.512 143.886 154.69C143.214 154.867 142.517 155.159 141.763 155.312C141.378 155.402 140.979 155.416 140.589 155.353C140.387 155.319 140.19 155.259 140.003 155.176C139.82 155.083 139.648 154.968 139.492 154.834C139.183 154.57 138.924 154.261 138.644 153.981C138.383 153.687 138.051 153.465 137.679 153.338C137.296 153.235 136.891 153.245 136.513 153.367C136.116 153.493 135.73 153.647 135.355 153.828C134.965 154.02 134.558 154.175 134.139 154.29C133.699 154.413 133.233 154.401 132.8 154.257C131.926 153.923 131.39 153.177 130.682 152.765C130.338 152.553 129.939 152.448 129.536 152.464C129.133 152.489 128.737 152.582 128.366 152.74C127.635 153.097 126.876 153.389 126.095 153.614C125.313 153.742 124.511 153.672 123.762 153.412C123.029 153.194 122.349 152.918 121.665 152.732C121.013 152.53 120.322 152.485 119.65 152.6C119.031 152.777 118.432 153.014 117.861 153.309C117.313 153.588 116.703 153.718 116.089 153.688C115.547 153.599 115.019 153.444 114.515 153.227C114.073 153.041 113.596 152.955 113.118 152.975C112.35 153.059 111.593 153.223 110.859 153.466L109.458 153.907L109.087 154.01C109.057 154.022 109.025 154.03 108.992 154.034Z" fill="#FAFAFA"/>
<path d="M132.145 143.827C132.072 143.886 131.993 143.937 131.91 143.979C131.676 144.107 131.434 144.217 131.184 144.309C130.256 144.649 129.257 144.752 128.279 144.61C127.955 144.561 127.635 144.487 127.323 144.387C126.997 144.284 126.672 144.136 126.342 143.996C126.015 143.843 125.656 143.77 125.295 143.781C124.917 143.838 124.559 143.991 124.257 144.227C123.931 144.457 123.614 144.733 123.239 144.964C123.046 145.083 122.838 145.174 122.621 145.236C122.509 145.265 122.394 145.282 122.279 145.286C122.163 145.302 122.045 145.302 121.928 145.286C120.989 145.166 120.239 144.544 119.419 144.132C119.037 143.897 118.593 143.784 118.145 143.806L117.989 143.827C117.938 143.84 117.888 143.856 117.84 143.876C117.738 143.906 117.641 143.95 117.552 144.008C117.375 144.125 117.213 144.263 117.07 144.42C116.794 144.765 116.49 145.088 116.163 145.385C115.986 145.529 115.774 145.626 115.549 145.665C115.325 145.7 115.095 145.667 114.89 145.57C114.53 145.36 114.23 145.062 114.016 144.705C113.818 144.391 113.599 144.091 113.361 143.806C113.135 143.573 112.862 143.39 112.56 143.27C112.258 143.15 111.934 143.095 111.609 143.11C111.065 143.148 110.548 143.357 110.13 143.707C109.792 143.955 109.5 144.261 109.268 144.61C109.066 144.9 108.95 145.241 108.935 145.595C108.919 145.503 108.919 145.41 108.935 145.319C108.968 145.05 109.061 144.793 109.207 144.564C109.434 144.203 109.724 143.886 110.064 143.629C110.498 143.254 111.038 143.025 111.609 142.974C111.958 142.953 112.308 143.007 112.634 143.133C112.961 143.258 113.256 143.453 113.501 143.703C113.744 143.991 113.968 144.294 114.173 144.61C114.369 144.936 114.644 145.208 114.972 145.401C115.147 145.479 115.341 145.505 115.531 145.475C115.72 145.445 115.897 145.361 116.039 145.232C116.353 144.94 116.647 144.626 116.917 144.292C117.071 144.117 117.247 143.961 117.441 143.831C117.544 143.767 117.655 143.716 117.77 143.678L117.943 143.621L118.125 143.596C118.613 143.571 119.098 143.692 119.518 143.942C120.342 144.354 121.1 144.977 121.953 145.084C122.367 145.13 122.785 145.03 123.132 144.799C123.486 144.585 123.808 144.313 124.146 144.078C124.456 143.816 124.839 143.654 125.243 143.612C125.647 143.57 126.054 143.651 126.412 143.843C126.746 143.992 127.059 144.136 127.372 144.255C127.675 144.355 127.985 144.433 128.3 144.486C129.256 144.636 130.235 144.557 131.155 144.255C131.807 144.016 132.132 143.806 132.145 143.827Z" fill="#FAFAFA"/>
<path d="M109.396 165.046C109.439 165.052 109.48 165.063 109.52 165.079L109.672 165.129L109.887 165.161C110.369 165.18 110.848 165.063 111.267 164.824C111.938 164.437 112.65 164.126 113.39 163.896C113.624 163.849 113.864 163.836 114.103 163.859C114.354 163.899 114.598 163.979 114.824 164.098C115.289 164.375 115.732 164.686 116.151 165.03C116.592 165.403 117.155 165.603 117.733 165.59C118.354 165.477 118.951 165.261 119.501 164.951C119.813 164.803 120.143 164.694 120.482 164.626C120.838 164.568 121.201 164.576 121.553 164.65C122.27 164.782 122.942 165.087 123.651 165.281C124.376 165.482 125.141 165.493 125.872 165.314C126.641 165.122 127.395 164.873 128.126 164.568C128.895 164.242 129.701 164.009 130.525 163.876C131.395 163.764 132.278 163.907 133.068 164.288C133.867 164.634 134.597 165.079 135.367 165.388C136.104 165.727 136.934 165.804 137.72 165.607C139.257 165.166 140.383 163.921 141.841 163.439C142.556 163.192 143.332 163.192 144.046 163.439C144.7 163.672 145.32 163.992 145.888 164.391C146.445 164.758 146.968 165.129 147.5 165.429C148.004 165.725 148.55 165.945 149.119 166.08C150.108 166.285 151.131 166.241 152.099 165.953C152.83 165.735 153.515 165.385 154.118 164.918C154.629 164.513 155.074 164.031 155.437 163.488C155.42 163.529 155.399 163.567 155.375 163.604L155.173 163.925C154.887 164.322 154.548 164.678 154.168 164.984C153.558 165.459 152.867 165.816 152.128 166.039C151.352 166.298 150.53 166.388 149.717 166.303C148.903 166.218 148.118 165.959 147.413 165.545C146.869 165.244 146.346 164.873 145.789 164.514C145.233 164.126 144.625 163.815 143.984 163.591C143.311 163.356 142.577 163.356 141.903 163.591C141.198 163.867 140.53 164.231 139.917 164.675C139.261 165.151 138.535 165.524 137.766 165.78C136.94 165.983 136.069 165.905 135.293 165.557C134.502 165.236 133.772 164.791 132.989 164.449C132.233 164.089 131.388 163.956 130.558 164.065C129.751 164.195 128.962 164.42 128.209 164.737C127.467 165.047 126.702 165.299 125.922 165.491C125.158 165.672 124.361 165.657 123.606 165.446C122.876 165.244 122.213 164.939 121.545 164.811C121.215 164.738 120.874 164.728 120.54 164.782C120.215 164.844 119.899 164.946 119.6 165.087C119.03 165.403 118.412 165.62 117.77 165.73C117.154 165.744 116.554 165.529 116.085 165.129C115.675 164.787 115.241 164.476 114.787 164.197C114.575 164.083 114.347 164.004 114.111 163.962C113.887 163.935 113.66 163.944 113.439 163.987C112.709 164.209 112.004 164.507 111.337 164.877C110.904 165.112 110.411 165.217 109.92 165.178C109.833 165.178 109.763 165.153 109.701 165.137L109.553 165.075C109.5 165.073 109.447 165.063 109.396 165.046Z" fill="#FAFAFA"/>
<path d="M110.414 94.1885C110.414 94.1885 110.538 94.3368 110.826 94.5594C111.245 94.8726 111.73 95.0843 112.244 95.1775C113.061 95.3178 113.895 95.3345 114.717 95.227C115.199 95.1899 115.718 95.1404 116.274 95.1487C116.865 95.145 117.452 95.2498 118.005 95.4578C118.591 95.7216 119.161 96.0203 119.711 96.352C120.006 96.5152 120.313 96.6531 120.63 96.7641C120.961 96.8633 121.303 96.9187 121.648 96.929C122.385 96.9259 123.118 96.843 123.837 96.6817C124.616 96.504 125.417 96.4429 126.214 96.5004C127.046 96.6486 127.835 96.9762 128.526 97.4606C129.219 97.9544 130.004 98.3034 130.834 98.4867C131.263 98.5339 131.697 98.5046 132.116 98.4002C132.54 98.2779 132.954 98.1208 133.352 97.9304C134.17 97.4933 135.025 97.1292 135.907 96.8424C136.371 96.7224 136.854 96.6945 137.329 96.76C137.792 96.8464 138.237 97.0123 138.644 97.2504C139.447 97.7037 140.131 98.2889 140.918 98.6516C141.693 98.9998 142.555 99.1061 143.391 98.9566C144.202 98.8158 145 98.609 145.777 98.3384C146.53 98.0847 147.303 97.8985 148.089 97.782C148.839 97.6949 149.598 97.7424 150.331 97.9222C151.615 98.2953 152.871 98.7594 154.089 99.311C155.091 99.7533 156.19 99.9279 157.279 99.8179C158.103 99.7492 158.911 99.546 159.669 99.2162C160.319 98.9382 160.897 98.5153 161.359 97.9799C161.255 98.1292 161.137 98.2673 161.005 98.392C160.627 98.7643 160.186 99.0658 159.702 99.2821C158.939 99.6262 158.125 99.8433 157.291 99.925C156.771 99.9824 156.246 99.9824 155.725 99.925C155.143 99.8465 154.575 99.6884 154.036 99.4552C152.821 98.915 151.569 98.4619 150.29 98.0994C149.577 97.9261 148.838 97.8828 148.11 97.9716C147.337 98.0944 146.576 98.2819 145.835 98.5321C145.049 98.8069 144.243 99.0191 143.424 99.1667C142.548 99.3205 141.645 99.21 140.832 98.8494C140.008 98.4703 139.324 97.8768 138.541 97.44C138.158 97.2151 137.74 97.0575 137.304 96.9743C136.858 96.9132 136.404 96.9412 135.969 97.0567C135.099 97.3397 134.257 97.6996 133.451 98.1323C133.036 98.3269 132.606 98.4868 132.165 98.6104C131.721 98.7213 131.26 98.7506 130.805 98.6969C129.946 98.5109 129.134 98.1504 128.419 97.6378C127.753 97.1682 126.992 96.849 126.19 96.7023C124.603 96.5292 123.111 97.1845 121.657 97.1144C121.295 97.101 120.938 97.0386 120.593 96.929C120.267 96.82 119.951 96.6821 119.65 96.5169C119.107 96.1852 118.546 95.8852 117.968 95.6185C116.839 95.1693 115.698 95.3094 114.741 95.3671C113.911 95.466 113.07 95.4368 112.248 95.2806C111.726 95.1764 111.237 94.9474 110.822 94.6129C110.666 94.493 110.528 94.3499 110.414 94.1885Z" fill="#FAFAFA"/>
<g opacity="0.3">
<path d="M141.326 98.9277L147.145 102.954C145.295 107.541 147.005 113.908 148.612 119.117C149.235 121.144 151.299 123.238 151.196 125.373C151.093 127.507 152.874 131.093 150.821 131.628C149.461 131.987 147.982 131.521 146.849 130.689C145.752 129.802 144.834 128.713 144.145 127.483C140.057 120.872 138.149 108.229 141.326 98.9277Z" fill="black"/>
</g>
<path d="M110.694 161.539C110.769 161.536 110.844 161.545 110.917 161.564L111.543 161.679L113.843 162.116C115.784 162.483 118.475 162.94 121.459 163.352C124.442 163.765 127.158 164.053 129.124 164.234L131.456 164.44L132.091 164.502C132.165 164.504 132.239 164.517 132.309 164.539C132.235 164.548 132.161 164.548 132.087 164.539L131.452 164.519C130.896 164.494 130.1 164.449 129.111 164.379C127.142 164.234 124.417 163.966 121.43 163.554C118.442 163.142 115.751 162.644 113.814 162.24C112.846 162.042 112.063 161.865 111.527 161.737L110.909 161.58C110.836 161.575 110.764 161.561 110.694 161.539Z" fill="#263238"/>
<path d="M119.752 160.463C119.868 160.482 119.982 160.507 120.094 160.537C120.317 160.587 120.638 160.694 121.067 160.772C122.263 161.04 123.481 161.198 124.706 161.242C126.521 161.316 128.338 161.149 130.109 160.743C134.487 159.777 138.4 157.334 141.19 153.824C143.105 151.448 144.471 148.679 145.192 145.714C145.303 145.302 145.348 144.96 145.406 144.737C145.422 144.622 145.45 144.509 145.489 144.399C145.484 144.516 145.47 144.631 145.447 144.745C145.406 144.972 145.373 145.31 145.27 145.735C145.013 146.94 144.639 148.117 144.153 149.25C143.434 150.935 142.49 152.515 141.347 153.948C139.363 156.423 136.818 158.389 133.923 159.684C131.027 160.979 127.865 161.566 124.698 161.395C123.466 161.336 122.243 161.155 121.046 160.855C120.634 160.76 120.301 160.64 120.082 160.579C119.968 160.552 119.858 160.513 119.752 160.463Z" fill="#263238"/>
<path d="M123.404 88.0233C123.415 88.1233 123.415 88.2242 123.404 88.3241C123.404 88.5384 123.404 88.8187 123.404 89.1731C123.377 90.2111 123.482 91.2483 123.717 92.2598C123.889 92.9507 124.191 93.6024 124.607 94.1802C125.098 94.8307 125.727 95.3642 126.449 95.7421C127.249 96.1688 128.107 96.4757 128.996 96.6528C129.943 96.8633 130.911 96.9574 131.881 96.933C133.769 96.9132 135.618 96.3912 137.238 95.4206C138.547 94.6099 139.61 93.4572 140.312 92.0867C140.782 91.1608 141.054 90.1477 141.112 89.1113C141.141 88.3777 141.062 87.9738 141.091 87.9697C141.116 88.0659 141.134 88.1637 141.145 88.2623C141.183 88.545 141.201 88.8301 141.198 89.1154C141.171 90.1702 140.916 91.2065 140.448 92.1526C139.751 93.5637 138.675 94.7535 137.341 95.5896C135.697 96.589 133.813 97.1271 131.889 97.1473C130.9 97.1717 129.912 97.0748 128.947 96.8589C128.039 96.6738 127.165 96.3558 126.35 95.9151C125.603 95.5158 124.956 94.9522 124.459 94.2667C124.036 93.6683 123.732 92.9938 123.564 92.2804C123.341 91.255 123.257 90.2044 123.313 89.1566C123.313 88.7857 123.346 88.4972 123.363 88.3035C123.366 88.2089 123.38 88.115 123.404 88.0233Z" fill="#263238"/>
<path d="M120.886 88.7401C120.886 88.7401 110.859 89.1234 108.477 99.1334C105.72 110.734 107.385 123.518 110.851 129.922L111.012 118.515C111.126 110.599 113.032 102.811 116.587 95.7377L120.886 88.7401Z" fill="#455A64"/>
<path d="M109.099 121.655C109.08 121.539 109.072 121.422 109.074 121.305C109.074 121.057 109.074 120.723 109.042 120.303C109.009 119.883 109.017 119.335 109.042 118.716C109.066 118.098 109.042 117.389 109.112 116.615C109.136 116.222 109.161 115.81 109.186 115.378C109.215 114.966 109.268 114.517 109.309 114.06C109.388 113.145 109.536 112.176 109.676 111.175C110.032 108.967 110.508 106.779 111.102 104.622C111.721 102.473 112.459 100.36 113.311 98.2925C113.723 97.3446 114.102 96.4421 114.518 95.622C114.72 95.2099 114.902 94.7978 115.099 94.431C115.297 94.0643 115.491 93.6934 115.676 93.3513C116.031 92.659 116.406 92.0573 116.715 91.5216C117.024 90.9858 117.308 90.5366 117.539 90.1698L118.091 89.3456C118.151 89.2446 118.22 89.1494 118.297 89.0613C118.248 89.1679 118.192 89.2712 118.128 89.3704L117.617 90.2111C117.387 90.582 117.111 91.0353 116.814 91.5793C116.517 92.1232 116.15 92.7208 115.804 93.4172L115.244 94.5011C115.05 94.8802 114.873 95.2841 114.675 95.6962C114.263 96.5204 113.896 97.4188 113.492 98.3625C111.791 102.488 110.575 106.797 109.87 111.204C109.721 112.218 109.565 113.182 109.482 114.089C109.437 114.546 109.379 114.983 109.346 115.407C109.314 115.832 109.285 116.231 109.26 116.623C109.19 117.398 109.182 118.102 109.157 118.716C109.132 119.331 109.124 119.866 109.124 120.303C109.124 120.74 109.124 121.057 109.124 121.305C109.126 121.422 109.117 121.539 109.099 121.655Z" fill="#263238"/>
<path d="M113.686 91.2776C113.657 91.3713 113.617 91.4612 113.567 91.5455C113.468 91.735 113.344 91.9864 113.184 92.2955C112.841 92.9384 112.38 93.8903 111.84 95.0772C111.58 95.6789 111.28 96.3135 111.016 97.043C110.88 97.4015 110.723 97.7683 110.604 98.1515C110.484 98.5348 110.332 98.9345 110.192 99.3425C109.6 101.115 109.116 102.922 108.741 104.753C108.1 108.093 107.79 111.487 107.814 114.887C107.814 116.194 107.847 117.249 107.884 117.978C107.884 118.328 107.909 118.608 107.913 118.823C107.925 118.92 107.925 119.018 107.913 119.115C107.892 119.019 107.88 118.921 107.876 118.823C107.876 118.613 107.834 118.332 107.806 117.999C107.744 117.269 107.694 116.21 107.665 114.904C107.597 111.49 107.889 108.078 108.535 104.725C108.901 102.88 109.384 101.06 109.981 99.2766C110.126 98.8645 110.266 98.473 110.394 98.0856C110.521 97.6982 110.694 97.3356 110.835 96.977C111.111 96.26 111.424 95.613 111.692 95.0154C112.248 93.8327 112.734 92.8889 113.101 92.2543L113.513 91.5249C113.563 91.4371 113.621 91.3543 113.686 91.2776Z" fill="#263238"/>
<path d="M153.282 92.6012C153.282 92.6012 146.544 110.932 151.509 126.394L151.781 131.863C151.781 131.863 147.982 131.603 145.109 126.18C142.237 120.756 141.306 115.152 140.333 107.079C139.361 99.0054 143.782 88.7274 143.782 88.7274C143.782 88.7274 151.629 90.4583 153.282 92.6012Z" fill="#455A64"/>
<path d="M151.959 131.422C151.924 131.41 151.891 131.394 151.86 131.373L151.58 131.216C151.231 130.997 150.908 130.74 150.615 130.45C149.581 129.331 148.847 127.968 148.481 126.489C148.192 125.488 147.971 124.467 147.821 123.436C147.628 122.327 147.471 121.14 147.331 119.883C147.035 117.16 146.917 114.421 146.976 111.682C147.034 108.943 147.272 106.21 147.689 103.502C148.008 101.288 148.476 99.097 149.09 96.9455C149.504 95.491 150.083 94.0888 150.817 92.7668C151.018 92.4082 151.236 92.0602 151.472 91.7241L151.658 91.4686L151.728 91.3821C151.728 91.3821 151.728 91.4192 151.679 91.481L151.505 91.7489C151.357 91.9879 151.143 92.3382 150.887 92.808C150.191 94.1383 149.638 95.5391 149.239 96.9867C148.649 99.1371 148.198 101.323 147.887 103.531C147.481 106.235 147.246 108.961 147.182 111.695C147.125 114.424 147.236 117.155 147.516 119.871C147.652 121.107 147.805 122.311 147.986 123.415C148.135 124.448 148.348 125.471 148.625 126.477C148.978 127.941 149.685 129.295 150.685 130.421C151.073 130.799 151.5 131.135 151.959 131.422Z" fill="#263238"/>
<path d="M151.716 131.24C151.677 131.234 151.639 131.221 151.604 131.203L151.283 131.071C150.886 130.876 150.508 130.646 150.154 130.382C148.888 129.351 147.843 128.074 147.084 126.628C145.903 124.525 144.916 122.318 144.137 120.034C143.183 117.244 142.529 114.359 142.188 111.43C141.847 108.499 141.811 105.541 142.081 102.602C142.304 100.204 142.74 97.831 143.383 95.51C143.675 94.525 143.923 93.6267 144.207 92.8684C144.491 92.1101 144.714 91.4384 144.961 90.9191C145.208 90.3999 145.373 90.0001 145.497 89.7116C145.559 89.5839 145.604 89.4809 145.641 89.3984C145.657 89.3624 145.677 89.3279 145.699 89.2954C145.692 89.3342 145.68 89.3717 145.662 89.4067L145.538 89.7281C145.419 90.0207 145.25 90.4287 145.039 90.9644C144.829 91.5002 144.59 92.1596 144.318 92.9261C144.046 93.6926 143.795 94.5745 143.515 95.5677C142.899 97.8833 142.485 100.248 142.278 102.635C142.019 105.561 142.061 108.505 142.402 111.421C142.736 114.334 143.371 117.204 144.298 119.985C145.066 122.254 146.031 124.452 147.182 126.554C147.925 127.99 148.939 129.268 150.17 130.317C150.517 130.585 150.885 130.825 151.271 131.034L151.58 131.182L151.716 131.24Z" fill="#263238"/>
<path d="M148.513 99.542L152.882 100.692L152.247 102.221L148.138 101.401L148.513 99.542Z" fill="#263238"/>
<path d="M148.612 101.004C148.783 100.733 148.989 100.486 149.226 100.27L149.301 100.192L149.358 100.283C149.527 100.547 149.704 100.823 149.886 101.107L149.746 101.07L150.232 100.794C150.401 100.699 150.566 100.604 150.731 100.518L150.821 100.464L150.871 100.555L151.345 101.424L151.233 101.395C151.502 101.233 151.79 101.105 152.09 101.016C151.855 101.225 151.593 101.401 151.312 101.54L151.242 101.581L151.2 101.507C151.035 101.239 150.867 100.955 150.689 100.658L150.834 100.699L150.335 100.979L149.849 101.251L149.758 101.301L149.709 101.214L149.214 100.365H149.346C149.128 100.607 148.882 100.822 148.612 101.004Z" fill="#F78F1E"/>
<path d="M112.726 125.73L107.975 116.957H93.5055L93.0481 117.826L105.296 138.188L119.159 138.856L112.726 125.73Z" fill="#455A64"/>
<path d="M167.886 130.569V145.903C167.885 147.286 167.577 148.65 166.984 149.899C166.391 151.148 165.528 152.249 164.457 153.123C163.16 154.181 161.602 154.871 159.947 155.119C158.291 155.367 156.599 155.164 155.049 154.533L121.289 139.569L124.586 128.31L151.744 137.261L151.715 130.28L167.886 130.569Z" fill="#FFBE9D"/>
<path d="M112.269 126.6L107.513 117.827H93.0481L104.834 139.058L118.698 139.726L112.269 126.6Z" fill="#263238"/>
<path d="M125.926 129.518L123.639 126.678C122.895 125.755 121.954 125.009 120.884 124.497C119.814 123.985 118.643 123.72 117.457 123.719H115.45L114.094 125.24C114.094 125.24 104.311 125.652 103.952 126.889V127.276V127.507L112.322 128.067C112.322 128.067 105.205 128.047 104.777 128.067C104.348 128.088 102.79 127.948 102.823 128.78C102.848 129.468 103.647 130.016 104.884 130.19C105.387 130.264 111.556 130.799 111.556 130.799L104.768 130.734C104.006 130.734 104.101 131.97 104.554 132.106C104.913 132.225 113.62 134.764 113.62 134.764C113.62 134.764 112.157 135.741 110.966 135.658C109.776 135.576 107.727 134.039 107.303 134.764C106.878 135.489 106.961 135.914 107.216 136.083C107.472 136.252 110.282 137.702 111.222 137.958C112.162 138.213 119.814 139.425 119.814 139.425L122.576 139.87L125.926 129.518Z" fill="#FFBE9D"/>
<path d="M95.0716 121.252C95.0716 121.252 93.5592 121.779 94.3257 123.724C95.059 125.511 96.0979 127.157 97.3959 128.587C97.3283 128.905 97.349 129.235 97.4558 129.541C97.5626 129.848 97.7514 130.119 98.0017 130.326C98.0017 130.326 96.9302 130.594 97.5896 132.387C97.4885 132.646 97.4415 132.922 97.4514 133.2C97.4613 133.478 97.528 133.75 97.6473 134.001C97.7666 134.252 97.936 134.476 98.1451 134.659C98.3541 134.842 98.5984 134.98 98.863 135.065C98.863 135.065 98.3272 136.607 100.268 137.34C102.209 138.074 104.084 136.804 104.084 136.804L95.0716 121.252Z" fill="#FFBE9D"/>
<path d="M98.1415 128.434C99.5179 128.805 101.026 129.101 102.3 129.584C102.712 129.74 103.124 129.748 103.412 130.099C103.561 130.269 103.646 130.486 103.65 130.712C103.655 130.939 103.579 131.159 103.437 131.335C103.279 131.453 103.096 131.535 102.902 131.574C102.708 131.613 102.508 131.609 102.316 131.562C100.856 131.328 99.4267 130.931 98.0549 130.379" fill="#FFBE9D"/>
<path d="M98.69 130.729C100.062 131.1 101.575 131.393 102.844 131.879C103.256 132.036 103.668 132.044 103.957 132.394C104.106 132.564 104.19 132.782 104.195 133.008C104.199 133.234 104.124 133.455 103.981 133.631C103.822 133.748 103.64 133.829 103.446 133.868C103.252 133.907 103.053 133.903 102.861 133.857C101.4 133.616 99.9711 133.214 98.5994 132.658" fill="#FFBE9D"/>
<path d="M99.4686 133.091C100.845 133.462 102.353 133.755 103.627 134.237C104.039 134.398 104.451 134.406 104.735 134.756C104.885 134.926 104.97 135.143 104.974 135.37C104.979 135.596 104.903 135.817 104.76 135.992C104.602 136.11 104.42 136.191 104.227 136.23C104.034 136.268 103.834 136.263 103.643 136.215C102.182 135.98 100.751 135.582 99.3779 135.028" fill="#FFBE9D"/>
<path d="M98.1416 130.421C98.1416 130.363 99.1348 130.701 100.355 131.039C101.574 131.377 102.576 131.596 102.568 131.653C101.795 131.624 101.03 131.486 100.297 131.241C99.5445 131.067 98.8194 130.791 98.1416 130.421Z" fill="#EB996E"/>
<path d="M97.8779 132.444C98.7277 132.64 99.5667 132.879 100.392 133.161C101.776 133.573 102.91 133.858 102.897 133.915C101.162 133.672 99.4705 133.176 97.8779 132.444Z" fill="#EB996E"/>
<path d="M98.7803 135.048C99.58 135.137 100.37 135.297 101.142 135.526C101.931 135.689 102.704 135.919 103.454 136.214C102.654 136.126 101.864 135.966 101.092 135.736C100.302 135.578 99.5285 135.347 98.7803 135.048Z" fill="#EB996E"/>
<path d="M96.9958 128.154C96.9958 128.092 98.2322 128.504 99.7693 128.9C101.306 129.295 102.563 129.526 102.555 129.592C102.279 129.602 102.002 129.579 101.731 129.522C101.059 129.419 100.394 129.281 99.7364 129.11C99.0762 128.943 98.4255 128.741 97.7871 128.504C97.5086 128.424 97.2423 128.306 96.9958 128.154Z" fill="#EB996E"/>
<path d="M110.764 125.371C111.91 125.256 113.062 125.212 114.214 125.24C115.359 125.197 116.505 125.226 117.647 125.326C116.506 125.441 115.36 125.484 114.214 125.454C113.063 125.5 111.911 125.472 110.764 125.371Z" fill="#EB996E"/>
<path d="M100.392 121.532C100.504 121.622 100.64 121.676 100.782 121.689C100.925 121.701 101.068 121.671 101.194 121.602C101.32 121.533 101.422 121.428 101.488 121.301C101.554 121.174 101.581 121.03 101.566 120.888C101.55 120.745 101.493 120.61 101.401 120.5C101.309 120.391 101.187 120.31 101.049 120.27C100.912 120.23 100.765 120.231 100.628 120.274C100.492 120.317 100.371 120.399 100.281 120.51C100.221 120.585 100.176 120.67 100.149 120.762C100.122 120.854 100.114 120.95 100.124 121.045C100.134 121.139 100.163 121.231 100.209 121.315C100.255 121.399 100.317 121.473 100.392 121.532Z" fill="#EBEBEB"/>
<path d="M149.985 136.866C150.097 136.856 150.211 136.869 150.319 136.903C150.619 136.956 150.915 137.031 151.205 137.126C153.138 137.744 154.841 138.926 156.096 140.521C156.286 140.76 156.459 141.01 156.616 141.271C156.727 141.457 156.78 141.56 156.768 141.568C156.756 141.576 156.475 141.193 155.977 140.616C154.682 139.107 153.022 137.955 151.155 137.27C150.438 137.006 149.976 136.899 149.985 136.866Z" fill="#EB996E"/>
<path d="M131.568 96.2439C129.424 96.0729 127.432 95.0734 126.014 93.4575C124.596 91.8417 123.864 89.7368 123.972 87.5896C124.125 84.4576 124.29 81.6347 124.29 81.6347C124.29 81.6347 117.572 80.5879 117.49 73.8788C117.408 67.1697 118.574 51.7487 118.574 51.7487C122.39 50.1095 126.575 49.5187 130.695 50.0374C134.816 50.5561 138.724 52.1655 142.014 54.6994L143.008 55.4618L140.465 88.6323C140.382 89.7168 140.086 90.7744 139.594 91.7444C139.102 92.7144 138.423 93.5776 137.596 94.2848C136.77 94.9919 135.812 95.5289 134.777 95.8651C133.743 96.2013 132.652 96.33 131.568 96.2439Z" fill="#FFBE9D"/>
<path d="M124.277 81.5578C127.374 81.6204 130.42 80.7597 133.026 79.0852C133.026 79.0852 130.966 83.9151 124.261 83.3093L124.277 81.5578Z" fill="#EB996E"/>
<path d="M120.23 62.2747C120.227 62.5248 120.322 62.7663 120.494 62.9473C120.667 63.1283 120.903 63.2345 121.153 63.2432C121.275 63.2527 121.398 63.2377 121.514 63.1991C121.631 63.1606 121.738 63.0992 121.83 63.0186C121.922 62.9379 121.997 62.8397 122.051 62.7297C122.105 62.6196 122.136 62.5 122.142 62.3777C122.144 62.1282 122.048 61.888 121.876 61.7074C121.704 61.5268 121.469 61.4199 121.219 61.4093C121.097 61.3998 120.975 61.4147 120.858 61.4533C120.742 61.4919 120.635 61.5533 120.543 61.6339C120.451 61.7145 120.376 61.8127 120.322 61.9228C120.268 62.0328 120.237 62.1525 120.23 62.2747Z" fill="#263238"/>
<path d="M119.843 61.1989C119.962 61.3225 120.667 60.7868 121.718 60.7868C122.769 60.7868 123.507 61.306 123.618 61.1989C123.671 61.1412 123.552 60.9145 123.206 60.6755C122.759 60.367 122.228 60.2031 121.685 60.2057C121.149 60.205 120.627 60.3738 120.193 60.6879C119.892 60.9145 119.785 61.1412 119.843 61.1989Z" fill="#263238"/>
<path d="M129.956 62.5171C129.954 62.7669 130.049 63.0077 130.221 63.1886C130.394 63.3694 130.63 63.4759 130.879 63.4855C131.002 63.4956 131.125 63.4811 131.241 63.4427C131.357 63.4044 131.465 63.343 131.557 63.2623C131.65 63.1816 131.725 63.0831 131.778 62.9728C131.832 62.8625 131.862 62.7426 131.869 62.6201C131.871 62.3703 131.776 62.1295 131.603 61.9487C131.431 61.7678 131.195 61.6613 130.945 61.6517C130.823 61.6416 130.7 61.6561 130.584 61.6945C130.467 61.7328 130.36 61.7942 130.268 61.8749C130.175 61.9556 130.1 62.0541 130.047 62.1644C129.993 62.2747 129.963 62.3947 129.956 62.5171Z" fill="#263238"/>
<path d="M129.981 61.3926C130.1 61.5162 130.83 60.9805 131.86 60.9805C132.89 60.9805 133.644 61.4998 133.76 61.3926C133.813 61.339 133.694 61.1124 133.348 60.8733C132.902 60.5629 132.37 60.3987 131.827 60.4035C131.29 60.4017 130.766 60.5705 130.331 60.8857C130.03 61.1082 129.923 61.3349 129.981 61.3926Z" fill="#263238"/>
<path d="M126.239 69.0418C126.239 68.9841 125.6 68.8728 124.562 68.7409C124.298 68.7121 124.051 68.6585 124.005 68.4813C123.983 68.2084 124.045 67.9352 124.183 67.6983L124.961 65.6914C126.041 62.8355 126.824 60.4906 126.709 60.4452C126.593 60.3999 125.625 62.683 124.541 65.5389C124.283 66.2422 124.034 66.9153 123.795 67.5582C123.631 67.8768 123.583 68.2425 123.659 68.5926C123.697 68.6855 123.756 68.7684 123.831 68.8349C123.906 68.9013 123.995 68.9496 124.092 68.9758C124.238 69.0162 124.389 69.037 124.541 69.0377C125.588 69.0954 126.235 69.0995 126.239 69.0418Z" fill="#263238"/>
<path d="M129.276 69.7548C129.107 69.7548 129.103 70.8634 128.147 71.6588C127.191 72.4541 125.996 72.3305 125.988 72.483C125.988 72.553 126.251 72.7014 126.758 72.7137C127.414 72.7236 128.051 72.5018 128.559 72.0873C129.048 71.6889 129.361 71.115 129.433 70.4884C129.462 70.0186 129.35 69.7466 129.276 69.7548Z" fill="#263238"/>
<path d="M129.717 57.3496C129.816 57.6298 130.846 57.4938 132.058 57.6422C133.269 57.7905 134.246 58.1161 134.407 57.8647C134.477 57.7452 134.308 57.4814 133.912 57.2094C133.389 56.8704 132.793 56.6612 132.173 56.5995C131.553 56.5261 130.925 56.5995 130.339 56.8138C129.894 56.9952 129.672 57.2136 129.717 57.3496Z" fill="#263238"/>
<path d="M120.222 58.2114C120.403 58.4463 121.112 58.2114 121.969 58.2114C122.826 58.2114 123.548 58.3722 123.712 58.1249C123.787 58.0054 123.671 57.7705 123.354 57.5521C122.93 57.2842 122.436 57.1493 121.935 57.1648C121.434 57.1802 120.95 57.3452 120.543 57.6386C120.243 57.857 120.139 58.1002 120.222 58.2114Z" fill="#263238"/>
<path d="M142.183 62.4182C142.295 62.3687 146.795 61.0541 146.647 65.645C146.498 70.2359 141.924 69.1397 141.92 69.0078C141.916 68.8759 142.183 62.4182 142.183 62.4182Z" fill="#FFBE9D"/>
<path d="M143.378 67.3148C143.399 67.3148 143.457 67.3725 143.589 67.4384C143.776 67.5276 143.99 67.5395 144.186 67.4714C144.676 67.3106 145.109 66.5524 145.159 65.7282C145.184 65.3341 145.119 64.9396 144.969 64.5743C144.931 64.4292 144.858 64.2957 144.757 64.1851C144.656 64.0745 144.529 63.9903 144.388 63.9396C144.297 63.9137 144.199 63.9201 144.112 63.9576C144.025 63.9951 143.954 64.0616 143.91 64.1457C143.844 64.2734 143.869 64.3641 143.844 64.3723C143.819 64.3806 143.749 64.2899 143.79 64.1045C143.823 63.9912 143.891 63.8914 143.984 63.8201C144.114 63.7298 144.273 63.6929 144.429 63.7171C144.618 63.7601 144.794 63.8509 144.938 63.9807C145.082 64.1106 145.191 64.2752 145.253 64.4589C145.436 64.8618 145.516 65.3033 145.488 65.7446C145.431 66.6678 144.928 67.5208 144.252 67.6898C144.127 67.7215 143.997 67.7249 143.871 67.7C143.745 67.675 143.626 67.6223 143.523 67.5455C143.382 67.426 143.362 67.323 143.378 67.3148Z" fill="#EB996E"/>
<path d="M116.002 45.9551C116.492 44.9888 117.197 44.1475 118.062 43.4956C118.928 42.8437 119.931 42.3985 120.995 42.194C122.059 41.9896 123.156 42.0313 124.201 42.3161C125.246 42.6009 126.213 43.1211 127.026 43.8369C127.536 42.8208 128.287 41.9452 129.213 41.287C130.14 40.6288 131.214 40.208 132.342 40.0616C133.469 39.9151 134.615 40.0475 135.679 40.447C136.743 40.8466 137.693 41.5012 138.445 42.3533C139.731 43.8122 140.399 45.7944 141.907 47.0225C143.209 48.0816 144.981 48.436 146.292 49.4951C147.019 50.0786 147.571 50.8512 147.888 51.7281C148.204 52.6049 148.272 53.5521 148.085 54.4653C147.898 55.3786 147.463 56.2226 146.828 56.9046C146.192 57.5865 145.381 58.08 144.483 58.3307C145.925 60.927 144.573 64.6483 141.804 65.7198L141.136 65.4436C139.888 64.0198 139.091 62.2571 138.847 60.3794C138.603 58.5017 138.922 56.5937 139.764 54.8978C139.683 54.9019 139.602 54.9019 139.521 54.8978C138.366 55.5401 137.014 55.7325 135.725 55.4381C134.436 55.1437 133.302 54.3833 132.54 53.303C131.61 53.9515 130.514 54.3212 129.381 54.3687C128.248 54.4161 127.125 54.1394 126.144 53.5709C125.858 53.3573 125.529 53.2083 125.18 53.134C124.753 53.1396 124.336 53.2637 123.976 53.4926C122.984 54.0308 121.853 54.259 120.729 54.1478C120.209 54.0848 119.713 53.8922 119.287 53.5876C118.86 53.283 118.517 52.8762 118.289 52.4046C118.263 52.4066 118.237 52.4066 118.211 52.4046C117.568 52.2582 116.978 51.9384 116.504 51.4799C116.03 51.0214 115.691 50.4419 115.524 49.8042C115.2 48.5063 115.37 47.1343 116.002 45.9551Z" fill="#263238"/>
</svg>
