<svg width="28" height="28" viewBox="0 0 28 28" fill="none" xmlns="http://www.w3.org/2000/svg">
<circle cx="14" cy="14" r="14" fill="#FFFDFA"/>
<g clip-path="url(#clip0_290_14075)">
<path fill-rule="evenodd" clip-rule="evenodd" d="M10.5301 5.70466C9.1627 5.76635 7.97749 6.10067 7.02046 7.05366C6.06009 8.01165 5.72993 9.20155 5.66808 10.5548C5.62963 11.3994 5.4048 17.7801 6.05675 19.4535C6.4964 20.5824 7.3623 21.4504 8.50154 21.8915C9.03313 22.0982 9.63996 22.2382 10.5301 22.2791C17.9732 22.6159 20.7323 22.4325 21.8958 19.4535C22.1022 18.9232 22.2443 18.3169 22.2836 17.429C22.6238 9.9668 22.2284 8.34933 20.9312 7.05366C19.9023 6.0273 18.692 5.32863 10.5301 5.70466ZM10.5986 20.7783C9.78371 20.7416 9.34156 20.6058 9.04651 20.4916C8.30429 20.2031 7.74679 19.6479 7.4601 18.91C6.96362 17.6386 7.12828 11.5996 7.17258 10.6224C7.21604 9.66527 7.40995 8.79049 8.08531 8.11514C8.92114 7.28138 10.001 6.87275 17.3538 7.2046C18.3134 7.24795 19.1902 7.44146 19.8672 8.11514C20.703 8.9489 21.1176 10.0371 20.7799 17.3617C20.7431 18.1746 20.6069 18.6157 20.4924 18.91C19.736 20.8485 17.9958 21.1176 10.5986 20.7783ZM17.4349 9.54085C17.4349 10.0928 17.8838 10.5416 18.4379 10.5416C18.9921 10.5416 19.4418 10.0928 19.4418 9.54085C19.4418 8.9889 18.9921 8.54048 18.4379 8.54048C17.8838 8.54048 17.4349 8.9889 17.4349 9.54085ZM9.68425 13.9915C9.68425 16.356 11.6058 18.2731 13.9763 18.2731C16.3467 18.2731 18.2683 16.356 18.2683 13.9915C18.2683 11.6269 16.3467 9.71106 13.9763 9.71106C11.6058 9.71106 9.68425 11.6269 9.68425 13.9915ZM11.1904 13.9915C11.1904 12.4573 12.4375 11.2126 13.9763 11.2126C15.515 11.2126 16.7621 12.4573 16.7621 13.9915C16.7621 15.5264 15.515 16.7715 13.9763 16.7715C12.4375 16.7715 11.1904 15.5264 11.1904 13.9915Z" fill="black"/>
</g>
<defs>
<clipPath id="clip0_290_14075">
<rect width="16.8" height="16.8" fill="white" transform="translate(5.59998 5.59998)"/>
</clipPath>
</defs>
</svg>
