<svg width="41" height="24" viewBox="0 0 41 24" fill="none" xmlns="http://www.w3.org/2000/svg">
<g clip-path="url(#clip0_687_16995)">
<path fill-rule="evenodd" clip-rule="evenodd" d="M5.09116 17.0221H0.0732379C-0.0201809 17.269 -0.0201809 17.8963 0.0732379 18.1432C0.587041 18.1432 1.48786 18.0497 1.88823 18.1965V21.8799C1.88823 22.4137 1.80816 23.1744 1.99499 23.5348C2.24856 23.5348 3.10267 23.5881 3.22278 23.4814H3.27617V23.3212H3.32955V19.798C3.32955 19.2909 3.23613 18.5502 3.38293 18.1432C3.88339 18.1432 4.75752 18.2299 5.14454 18.0898C5.14454 17.7495 5.18458 17.2757 5.09116 17.0221ZM19.5577 19.4243C19.451 19.2842 19.3442 19.1374 19.2374 18.9973C19.1307 18.9639 19.0239 18.9239 18.9171 18.8905V18.8371H17.3157C17.1889 18.9973 16.9954 19.0773 16.8886 19.2642C16.7485 19.2642 16.7084 19.2442 16.6217 19.2108C16.6217 18.5035 16.6217 17.7028 16.5683 17.0755C16.5083 17.0288 16.5616 17.0822 16.5149 17.0221C16.1613 17.0221 15.6608 16.9754 15.3939 17.0755V21.5062C15.3939 22.0734 15.2871 23.0877 15.4473 23.5348C15.8009 23.5348 16.3014 23.5815 16.5683 23.4814V20.492C16.6417 20.4386 16.7084 20.3852 16.7818 20.3318V20.0649C16.9086 19.9582 17.0287 19.8514 17.1555 19.7446V19.6912H17.2623C17.369 19.5911 17.7561 19.6312 17.9563 19.6379C18.1031 19.818 18.37 19.9114 18.4367 20.1717H18.4901V22.4137C18.4901 22.8408 18.4567 23.2545 18.5968 23.5348H19.6111V19.5845H19.5577V19.4243ZM28.7394 17.0221C28.3658 17.0221 27.8453 16.9688 27.565 17.0755C27.565 17.7495 27.6918 19.0773 27.4583 19.5311C26.7843 19.5311 25.2229 19.6445 24.7892 19.4243C24.7892 18.7637 24.9159 17.4692 24.6824 17.0221C24.2954 17.0221 23.7482 16.9688 23.4546 17.0755C23.4212 17.1823 23.4613 17.1222 23.4012 17.1823V21.5596C23.4012 22.1135 23.2945 23.101 23.4546 23.5348C23.8683 23.6082 24.3755 23.5548 24.7892 23.5348C24.8225 23.428 24.7825 23.488 24.8425 23.428V21.613C24.8425 21.3127 24.8159 20.9257 24.8959 20.7055C25.5632 20.7055 27.0846 20.5921 27.5117 20.8123C27.5117 21.6931 27.4249 22.7474 27.565 23.5348C27.9654 23.5348 28.5393 23.5948 28.8462 23.4814V17.0755C28.7394 17.0422 28.7995 17.0822 28.7394 17.0221ZM40.0564 20.4386V20.2251H40.0031V19.9048H39.9497C39.9163 19.798 39.8763 19.6912 39.8429 19.5845C39.7695 19.5311 39.7028 19.4777 39.6294 19.4243C39.5026 19.2842 39.3825 19.1374 39.2557 18.9973C39.169 18.9172 39.1223 18.9572 39.0422 18.8371C38.1147 18.7837 37.2873 18.6369 36.9069 19.3176C36.7801 19.3042 36.7735 19.2975 36.6934 19.2642C36.6934 18.5369 36.6934 17.7161 36.64 17.0755C36.2063 17.0755 35.7458 17.0355 35.4656 17.1823V21.5596C35.4656 22.1135 35.3588 23.101 35.519 23.5348C35.7592 23.5348 36.4732 23.5881 36.5866 23.4814H36.64V23.2145H36.6934V23.1611C36.8936 23.1878 36.9136 23.2412 37.0671 23.3212V23.3746H37.2272C37.2472 23.408 37.2606 23.448 37.2806 23.4814H37.3873V23.5348H38.9888C39.0822 23.428 39.1156 23.488 39.2023 23.428C39.3291 23.2879 39.4492 23.1411 39.576 23.0009C39.6294 22.9809 39.6828 22.9676 39.7362 22.9476V22.8408C39.7695 22.8208 39.8096 22.8074 39.8429 22.7874C39.8629 22.714 39.8763 22.6473 39.8963 22.5739H39.9497C39.9697 22.4137 39.9831 22.2536 40.0031 22.0934H40.0564V21.9867H40.1098V20.4386H40.0564ZM38.9354 21.8265C38.882 21.8599 38.8287 21.8999 38.7753 21.9333C38.7553 22.0401 38.7419 22.1468 38.7219 22.2536C38.6885 22.2736 38.6485 22.2869 38.6151 22.307C38.4883 22.4471 38.3682 22.5939 38.2415 22.734H37.4941C37.4607 22.6806 37.4207 22.6273 37.3873 22.5739C37.2606 22.4871 37.1405 22.3937 37.0137 22.307C36.8802 22.1201 36.9136 22.0134 36.6934 21.8799V20.5987C36.7267 20.5787 36.7668 20.5654 36.8001 20.5454V20.4386C36.8335 20.4186 36.8735 20.4052 36.9069 20.3852V20.1183C36.9403 20.0983 36.9803 20.0849 37.0137 20.0649C37.0871 19.9782 37.1538 19.8848 37.2272 19.798H37.334V19.7446C37.4541 19.6712 37.4074 19.7646 37.4941 19.6379H38.1881C38.3282 19.798 38.475 19.9582 38.6151 20.1183C38.6485 20.1383 38.6885 20.1517 38.7219 20.1717V20.3318H38.7753V20.4386C38.8287 20.472 38.882 20.512 38.9354 20.5454V21.8265ZM9.20158 20.2784H9.1482V20.0649H9.09482V19.9048H9.04144V19.798H8.98805C8.91465 19.7046 8.86794 19.6712 8.82791 19.5311C8.64107 19.471 8.67443 19.3776 8.561 19.2642C8.42754 19.1241 8.11392 18.9039 7.92041 18.8371H6.10542V18.8905C6.03202 18.9105 5.96529 18.9239 5.89189 18.9439C5.87187 18.9773 5.85853 19.0173 5.83851 19.0507H5.73174C5.71173 19.084 5.69838 19.1241 5.67836 19.1574H5.5716C5.4982 19.2442 5.43147 19.3376 5.35807 19.4243C5.30469 19.4577 5.2513 19.4977 5.19792 19.5311V19.6379C5.14454 19.6712 5.09116 19.7113 5.03778 19.7446C5.01776 19.8314 5.00441 19.9248 4.98439 20.0115C4.93101 20.0449 4.87763 20.0849 4.82425 20.1183C4.80423 20.205 4.79088 20.2985 4.77087 20.3852H4.71748V22.0401H4.77087C4.79088 22.1268 4.80423 22.2202 4.82425 22.307C4.87763 22.3403 4.93101 22.3804 4.98439 22.4137C5.00441 22.5005 5.01776 22.5939 5.03778 22.6806C5.21794 22.8408 5.39143 23.0009 5.5716 23.1611C5.60496 23.2145 5.645 23.2678 5.67836 23.3212C5.78513 23.3412 5.89189 23.3546 5.99865 23.3746C6.03202 23.428 6.07205 23.4814 6.10542 23.5348H6.95953C7.54674 23.5348 8.10058 23.5548 8.45423 23.3212C8.54098 23.2145 8.6344 23.1077 8.72114 23.0009C8.84125 22.8808 8.99473 22.7674 9.04144 22.5739H9.09482C9.11484 22.4471 9.12818 22.327 9.1482 22.2002H8.08056C7.92041 22.3804 7.76026 22.5539 7.60012 22.734H6.63924C6.61922 22.7007 6.60588 22.6606 6.58586 22.6273H6.47909C6.45907 22.5939 6.44573 22.5539 6.42571 22.5205C6.28558 22.3937 6.13878 22.2736 5.99865 22.1468V21.9867H5.94527V21.6664H5.99865C6.01867 21.613 6.03202 21.5596 6.05204 21.5062H8.18732C8.53431 21.5062 8.99473 21.5463 9.25496 21.4529V20.3852H9.20158V20.2784ZM7.92041 20.6521C7.39994 20.7455 6.51913 20.7455 5.99865 20.6521C5.95862 20.4252 5.99198 20.3986 5.99865 20.1183C6.0854 20.0115 6.17882 19.9048 6.26556 19.798C6.45908 19.6979 6.42571 19.8914 6.58586 19.6379C6.77937 19.6379 7.12635 19.5978 7.22644 19.6912H7.54674C7.56675 19.7246 7.5801 19.7646 7.60012 19.798C7.67352 19.8514 7.74025 19.9048 7.81365 19.9582C7.86703 20.1517 7.92041 20.3518 7.97379 20.5454C7.91374 20.6054 7.95377 20.5454 7.92041 20.6521ZM13.312 20.4386C13.6857 20.4386 14.2062 20.492 14.4864 20.3852C14.4664 20.1717 14.453 19.9582 14.433 19.7446H14.3796V19.6379C14.3263 19.6045 14.2729 19.5645 14.2195 19.5311V19.4777H14.1127C14.0927 19.4443 14.0794 19.4043 14.0594 19.3709C13.986 19.3176 13.9192 19.2642 13.8458 19.2108C13.7924 19.1374 13.7391 19.0707 13.6857 18.9973C13.6123 18.9773 13.5456 18.9639 13.4722 18.9439V18.8905C13.1385 18.7437 11.8707 18.8305 11.3902 18.8371V18.8905H11.2835C11.2635 18.9239 11.2501 18.9639 11.2301 18.9973H11.1233V19.0507H11.0166C10.8564 19.2308 10.6963 19.4043 10.5361 19.5845C10.4828 19.6178 10.4294 19.6579 10.376 19.6912C10.356 19.778 10.3426 19.8714 10.3226 19.9582H10.2692C10.2492 20.0316 10.2359 20.0983 10.2158 20.1717H10.1625V20.4386H10.1091V20.5454H10.0557C9.98897 20.7389 10.069 21.6397 10.1091 21.7731V22.0934H10.1625V22.2536H10.2158V22.3603H10.2692V22.4671H10.3226V22.5739H10.376V22.734C10.5161 22.8608 10.6629 22.9809 10.803 23.1077C10.8231 23.1411 10.8364 23.1811 10.8564 23.2145H10.9632C10.9966 23.2678 11.0366 23.3212 11.07 23.3746C11.1567 23.3946 11.2501 23.408 11.3369 23.428V23.4814H11.4436V23.5348H13.312V23.4814H13.4722C13.4922 23.448 13.5055 23.408 13.5255 23.3746H13.6323C13.7057 23.2879 13.7724 23.1944 13.8458 23.1077H13.9526C14.0393 23.0009 14.1328 22.8942 14.2195 22.7874C14.2529 22.7674 14.2929 22.754 14.3263 22.734V22.6273H14.3796V22.5205H14.433V22.307H14.4864C14.4864 22.1068 14.4864 21.8999 14.433 21.7731H13.4722V21.8265C13.332 21.8933 13.4054 21.8132 13.312 21.9333H13.2586V22.2536C13.2253 22.2736 13.1852 22.2869 13.1519 22.307C13.0251 22.4471 12.905 22.5939 12.7782 22.734H11.9775V22.6806C11.7839 22.5005 11.5838 22.327 11.3902 22.1468V21.9333C11.3369 21.8999 11.2835 21.8599 11.2301 21.8265C11.1767 21.7198 11.1834 21.1326 11.2301 21.0792V20.5454C11.2835 20.512 11.3369 20.472 11.3902 20.4386V20.2784C11.4436 20.2451 11.497 20.205 11.5504 20.1717C11.7105 19.9915 11.8707 19.818 12.0308 19.6379H12.7782C12.9183 19.798 13.0651 19.9582 13.2052 20.1183H13.2586V20.3852C13.2853 20.4586 13.2853 20.3652 13.312 20.4386ZM33.1702 18.8905V22.1468H33.1168C32.99 22.2869 32.8699 22.4337 32.7431 22.5739C32.6564 22.6339 32.623 22.5739 32.5296 22.6806H31.7288C31.7088 22.6473 31.6955 22.6072 31.6755 22.5739C31.6221 22.5405 31.5687 22.5005 31.5153 22.4671C31.4953 22.3804 31.4819 22.2869 31.4619 22.2002C31.4286 22.1802 31.3885 22.1668 31.3552 22.1468V21.7731H31.3018V18.8371C30.9681 18.8705 30.5344 18.8905 30.1274 18.8905V22.5739H30.1808V22.6806H30.2341C30.2542 22.7674 30.2675 22.8608 30.2875 22.9476C30.3209 22.9676 30.3609 22.9809 30.3943 23.0009C30.5745 23.1944 30.7479 23.3946 30.9281 23.5881H32.4228C32.603 23.5214 32.9166 23.2145 33.01 23.0543C33.2769 23.081 33.2903 23.1878 33.2769 23.4814H33.3303V23.5348C33.6706 23.5348 34.1444 23.5748 34.3979 23.4814V20.3318C34.3979 19.8714 34.478 19.2041 34.3446 18.8371C33.9709 18.8371 33.4504 18.7837 33.1702 18.8905Z" fill="#1D7CB8"/>
<path fill-rule="evenodd" clip-rule="evenodd" d="M27.5184 1.90779C27.5517 1.42735 27.5918 0.946907 27.6251 0.466468C27.6051 0.44645 27.5918 0.433104 27.5717 0.413086H26.344C26.364 0.893525 26.3773 1.37396 26.3973 1.8544C26.771 1.87442 27.1447 1.88777 27.5184 1.90779ZM27.1447 2.1747C26.751 2.15468 26.364 2.14133 25.9703 2.12131C25.9369 1.69426 25.8969 1.2672 25.8635 0.840143C25.3297 0.820125 24.7959 0.806779 24.2621 0.786761C23.5347 3.04883 22.8007 5.30422 22.0734 7.56629C22.0534 7.58631 22.04 7.59966 22.02 7.61967C21.9333 7.59966 21.8398 7.58631 21.7531 7.56629C20.9857 5.37762 20.225 3.18896 19.4577 1.00029C18.4768 0.980271 17.5025 0.966926 16.5216 0.946907L16.4683 1.00029V9.86172C16.4683 9.86172 16.5016 9.89509 16.5216 9.91511H18.3366L18.4434 9.80834V4.14984C18.4768 4.09645 18.5168 4.04307 18.5502 3.98969H18.6569C19.6712 6.94572 20.6855 9.89509 21.6997 12.8511C21.7331 12.8711 21.7731 12.8845 21.8065 12.9045C22.8741 9.96849 23.9418 7.03247 25.0094 4.09645C25.0628 6.21172 25.1162 8.33366 25.1695 10.4489C25.4031 10.4689 25.63 10.4823 25.8635 10.5023C25.9169 10.2554 25.9703 10.0019 26.0237 9.75496C26.4174 9.70158 26.8044 9.6482 27.1981 9.59481C27.1781 7.11922 27.1647 4.65029 27.1447 2.1747ZM26.344 9.22114C26.1304 9.24116 25.9169 9.2545 25.7034 9.27452C25.67 9.2545 25.63 9.24116 25.5966 9.22114C25.6166 8.93421 25.63 8.65395 25.65 8.36702C25.8969 8.63393 26.1504 8.90085 26.3973 9.16776C26.3773 9.18777 26.364 9.20112 26.344 9.22114ZM26.344 7.67306C26.5375 7.69307 26.7376 7.70642 26.9312 7.72644C26.9512 7.91995 26.9645 8.12013 26.9845 8.31364C26.4107 8.67397 25.9836 8.24691 26.344 7.67306ZM26.5041 10.0219C26.4841 10.3955 26.4707 10.7692 26.4507 11.1429C26.4707 11.1629 26.4841 11.1763 26.5041 11.1963C26.8578 11.1763 27.2181 11.1629 27.5717 11.1429C27.5918 10.8026 27.6051 10.4689 27.6251 10.1286L27.5184 10.0219H26.5041ZM24.8493 10.9827C24.8159 11.3764 24.7759 11.7635 24.7425 12.1572C24.7625 12.1772 24.7759 12.1905 24.7959 12.2105H25.8101C25.8101 12.2105 25.8435 12.1772 25.8635 12.1572V11.0361L25.8101 10.9827H24.8493ZM26.5575 11.8369C26.5241 12.017 26.4841 12.1905 26.4507 12.3707C26.4707 12.3907 26.4841 12.404 26.5041 12.4241H27.0379C27.0379 12.4241 27.0713 12.3907 27.0913 12.3707C27.0579 12.1905 27.0179 12.017 26.9845 11.8369H26.5575ZM25.0094 12.7977V13.2248L25.0628 13.2782H25.8635V12.7444H25.0628C25.0628 12.7444 25.0294 12.7777 25.0094 12.7977ZM26.5041 13.0113C26.4841 13.2048 26.4707 13.405 26.4507 13.5985C26.4707 13.6185 26.4841 13.6318 26.5041 13.6519H27.0379C27.0379 13.6519 27.0713 13.6185 27.0913 13.5985C27.0579 13.405 27.0179 13.2048 26.9845 13.0113H26.5041Z" fill="#F58F22"/>
<path fill-rule="evenodd" clip-rule="evenodd" d="M12.5314 0.987305H14.3998V10.2224C14.3998 10.7029 14.3798 11.27 14.4532 11.6637C14.7534 11.7705 15.2939 11.7171 15.681 11.7171H18.2433C18.3901 12.1041 18.2967 12.8315 18.2967 13.3186C17.8963 13.4654 16.9955 13.372 16.4817 13.372H12.5314C12.5114 13.3186 12.498 13.2652 12.478 13.2118C12.5981 13.0784 12.5314 12.5912 12.5314 12.3577V3.9767C12.5314 3.03584 12.4513 1.748 12.5314 0.987305Z" fill="#1D7CB8"/>
</g>
<defs>
<clipPath id="clip0_687_16995">
<rect width="40.11" height="23.1745" fill="white" transform="translate(0 0.413086)"/>
</clipPath>
</defs>
</svg>
