<svg width="208" height="154" viewBox="0 0 208 154" fill="none" xmlns="http://www.w3.org/2000/svg">
<path d="M104 153.941C148.246 153.941 184.115 151.846 184.115 149.263C184.115 146.68 148.246 144.586 104 144.586C59.7539 144.586 23.8854 146.68 23.8854 149.263C23.8854 151.846 59.7539 153.941 104 153.941Z" fill="#F5F5F5"/>
<path d="M111.769 105.087C128.767 88.0886 128.767 60.5294 111.769 43.5314C94.7707 26.5334 67.2115 26.5334 50.2135 43.5314C33.2155 60.5294 33.2155 88.0886 50.2135 105.087C67.2115 122.085 94.7707 122.085 111.769 105.087Z" fill="#05338F" fill-opacity="0.75"/>
<path opacity="0.4" d="M110.016 103.334C126.045 87.3038 126.045 61.3143 110.016 45.2845C93.9859 29.2546 67.9964 29.2547 51.9666 45.2845C35.9368 61.3143 35.9368 87.3038 51.9666 103.334C67.9964 119.363 93.9859 119.363 110.016 103.334Z" fill="white"/>
<path opacity="0.7" d="M121.044 74.3094C121.051 83.1079 118.163 91.6642 112.824 98.6582C107.486 105.652 99.9945 110.695 91.5058 113.009C83.0171 115.323 74.0027 114.78 65.8535 111.463C57.7043 108.146 50.873 102.239 46.4136 94.6545C41.9542 87.0698 40.1145 78.2285 41.1782 69.4946C42.242 60.7606 46.1502 52.6194 52.2998 46.3269C58.4494 40.0344 66.4988 35.9402 75.206 34.6762C83.9132 33.4121 92.7944 35.0483 100.479 39.3323C106.708 42.8069 111.897 47.8798 115.512 54.028C119.127 60.1762 121.037 67.1773 121.044 74.3094Z" fill="white"/>
<path opacity="0.2" d="M80.9891 30.7833C72.3807 30.7841 63.9658 33.3375 56.8085 38.1207C49.6512 42.9039 44.073 49.7021 40.7792 57.6555C37.4855 65.6089 36.6241 74.3604 38.304 82.8034C39.984 91.2464 44.1297 99.0016 50.2171 105.088C56.3045 111.175 64.0602 115.32 72.5033 116.999C80.9464 118.679 89.6978 117.816 97.6509 114.522C105.604 111.227 112.402 105.648 117.184 98.4907C121.967 91.333 124.519 82.9178 124.519 74.3094C124.519 68.5931 123.393 62.9328 121.206 57.6517C119.018 52.3706 115.812 47.5721 111.769 43.5303C107.727 39.4885 102.928 36.2825 97.6471 34.0953C92.3658 31.9082 86.7054 30.7827 80.9891 30.7833ZM80.9891 116.964C72.5519 116.964 64.3042 114.462 57.289 109.774C50.2738 105.087 44.8061 98.424 41.5775 90.6289C38.349 82.8339 37.5044 74.2565 39.1507 65.9815C40.7971 57.7064 44.8603 50.1054 50.8266 44.1397C56.7929 38.174 64.3943 34.1115 72.6694 32.466C80.9446 30.8205 89.5219 31.6659 97.3167 34.8952C105.111 38.1246 111.773 43.5928 116.46 50.6085C121.147 57.6242 123.648 65.8721 123.648 74.3094C123.648 79.9111 122.544 85.4581 120.4 90.6334C118.256 95.8087 115.114 100.511 111.153 104.472C107.192 108.433 102.489 111.575 97.3135 113.718C92.138 115.861 86.5909 116.964 80.9891 116.964Z" fill="black"/>
<path d="M100.479 39.3323L80.989 74.611V34.2582C87.8138 34.2474 94.5263 35.9949 100.479 39.3323Z" fill="#05338F" fill-opacity="0.75"/>
<path opacity="0.5" d="M100.479 39.3323L80.989 74.611V34.2582C87.8138 34.2474 94.5263 35.9949 100.479 39.3323Z" fill="white"/>
<g opacity="0.7">
<path d="M82.2825 36.7454L82.9271 36.7743L82.7453 39.6998L84.5592 39.8113L84.522 40.3568L82.0676 40.2039L82.2825 36.7454Z" fill="white"/>
<path d="M84.6046 38.8403L84.8856 36.8983L85.526 36.9933L85.245 38.9064C85.1417 39.613 85.4145 39.9642 85.9723 40.0468C86.5301 40.1294 86.8854 39.8691 86.9887 39.1626L87.2697 37.2453L87.8978 37.3404L87.6127 39.2783C87.468 40.2782 86.8235 40.741 85.8855 40.6046C84.9475 40.4683 84.4558 39.8485 84.6046 38.8403Z" fill="white"/>
<path d="M91.5503 38.2165L90.7239 41.5881L90.2074 41.4601L88.9141 38.7164L88.3481 40.9973L87.7283 40.8444L88.5547 37.4727L89.0712 37.6008L90.3645 40.3444L90.9305 38.0595L91.5503 38.2165Z" fill="white"/>
<path d="M91.4058 39.9848C91.5448 39.6444 91.7806 39.3523 92.0839 39.1445C92.3873 38.9368 92.7449 38.8225 93.1125 38.8159C93.4801 38.8093 93.8416 38.9107 94.1522 39.1074C94.4628 39.3041 94.709 39.5876 94.8601 39.9228L94.3353 40.1542C94.2675 39.9936 94.1666 39.8492 94.0391 39.7303C93.9117 39.6114 93.7606 39.5207 93.5957 39.4642C93.4386 39.3763 93.2642 39.3236 93.0847 39.31C92.9051 39.2963 92.7248 39.3219 92.5562 39.385C92.3875 39.4481 92.2347 39.5471 92.1082 39.6753C91.9817 39.8034 91.8847 39.9576 91.8239 40.1271C91.763 40.2965 91.7398 40.4772 91.7559 40.6565C91.7719 40.8359 91.8268 41.0095 91.9168 41.1655C92.0068 41.3214 92.1297 41.4559 92.2769 41.5596C92.4241 41.6632 92.5922 41.7335 92.7693 41.7657C92.9337 41.8267 93.1093 41.8512 93.2841 41.8377C93.4589 41.8241 93.6287 41.7728 93.7817 41.6872L94.0461 42.1995C93.718 42.3641 93.349 42.4292 92.9844 42.387C92.6198 42.3447 92.2755 42.1969 91.9938 41.9617C91.712 41.7265 91.5051 41.4141 91.3984 41.0629C91.2918 40.7117 91.29 40.337 91.3934 39.9848H91.4058Z" fill="white"/>
<path d="M98.1863 40.8733L96.7236 44.0219L96.1368 43.7492L96.7649 42.4022L95.1369 41.646L94.4964 42.993L93.9138 42.7203L95.3765 39.5718L95.9591 39.8445L95.3559 41.1461L96.9839 41.9022L97.5871 40.6006L98.1863 40.8733Z" fill="white"/>
</g>
<path d="M80.9932 75.7967C80.9409 75.8008 80.8884 75.8008 80.8362 75.7967C80.4439 75.7561 80.0838 75.5613 79.8351 75.2552C79.5864 74.9492 79.4694 74.5569 79.5098 74.1646L82.1005 49.129C82.1181 48.9326 82.1746 48.7416 82.2667 48.5671C82.3587 48.3927 82.4846 48.2383 82.6369 48.113C82.7892 47.9877 82.9649 47.8939 83.1538 47.8371C83.3426 47.7803 83.5409 47.7616 83.7371 47.7821C83.9333 47.8027 84.1234 47.862 84.2964 47.9568C84.4694 48.0515 84.6219 48.1796 84.7449 48.3338C84.8679 48.488 84.959 48.6651 85.0129 48.8548C85.0669 49.0445 85.0825 49.2431 85.059 49.4389L82.46 74.4621C82.4216 74.8256 82.2509 75.1624 81.9805 75.4085C81.7101 75.6545 81.3587 75.7927 80.9932 75.7967Z" fill="#263238"/>
<path d="M83.0756 54.7363H83.0261C82.9612 54.7296 82.8983 54.7102 82.8409 54.6791C82.7836 54.6481 82.7329 54.606 82.6918 54.5553C82.6508 54.5047 82.6201 54.4464 82.6016 54.3839C82.5831 54.3213 82.5771 54.2557 82.5839 54.1909L83.0963 49.2325C83.11 49.1016 83.1752 48.9814 83.2774 48.8985C83.3797 48.8156 83.5108 48.7767 83.6417 48.7904C83.7727 48.8041 83.8928 48.8693 83.9757 48.9716C84.0586 49.0738 84.0975 49.2049 84.0838 49.3358L83.5715 54.2942C83.5573 54.4158 83.499 54.528 83.4076 54.6095C83.3162 54.691 83.1981 54.7361 83.0756 54.7363Z" fill="#05338F" fill-opacity="0.75"/>
<g opacity="0.2">
<path d="M80.9933 75.7966C80.941 75.8008 80.8885 75.8008 80.8363 75.7966C80.444 75.756 80.0839 75.5612 79.8352 75.2552C79.5865 74.9491 79.4695 74.5568 79.5099 74.1645L82.1007 49.129C82.1182 48.9325 82.1747 48.7415 82.2668 48.5671C82.3589 48.3927 82.4847 48.2383 82.637 48.1129C82.7893 47.9876 82.965 47.8938 83.1539 47.837C83.3428 47.7802 83.5411 47.7615 83.7372 47.7821C83.9334 47.8026 84.1235 47.862 84.2965 47.9567C84.4695 48.0514 84.622 48.1796 84.745 48.3338C84.868 48.4879 84.9591 48.665 85.0131 48.8548C85.067 49.0445 85.0827 49.243 85.0592 49.4389L82.4601 74.462C82.4217 74.8256 82.251 75.1624 81.9806 75.4084C81.7102 75.6544 81.3589 75.7926 80.9933 75.7966Z" fill="white"/>
<path d="M83.0758 54.7359H83.0262C82.9613 54.7292 82.8984 54.7098 82.841 54.6788C82.7837 54.6477 82.733 54.6056 82.692 54.555C82.6509 54.5043 82.6202 54.446 82.6017 54.3835C82.5832 54.321 82.5772 54.2554 82.5841 54.1905L83.0964 49.2322C83.1101 49.1012 83.1753 48.9811 83.2776 48.8981C83.3798 48.8152 83.5109 48.7764 83.6418 48.79C83.7728 48.8037 83.8929 48.8689 83.9759 48.9712C84.0588 49.0735 84.0977 49.2045 84.084 49.3355L83.5716 54.2938C83.5574 54.4154 83.4991 54.5276 83.4077 54.6091C83.3163 54.6906 83.1982 54.7358 83.0758 54.7359Z" fill="white"/>
</g>
<path d="M80.9891 41.0634C80.9343 41.0634 80.8817 41.0416 80.843 41.0029C80.8042 40.9641 80.7825 40.9116 80.7825 40.8568V36.2786C80.7835 36.2241 80.8056 36.1722 80.8442 36.1336C80.8827 36.0951 80.9346 36.073 80.9891 36.072C81.0439 36.072 81.0964 36.0937 81.1352 36.1325C81.1739 36.1712 81.1957 36.2238 81.1957 36.2786V40.8568C81.1957 40.9116 81.1739 40.9641 81.1352 41.0029C81.0964 41.0416 81.0439 41.0634 80.9891 41.0634Z" fill="#263238"/>
<path d="M80.9891 112.546C80.9346 112.545 80.8827 112.523 80.8442 112.485C80.8056 112.446 80.7835 112.394 80.7825 112.34V107.758C80.7835 107.703 80.8056 107.651 80.8442 107.613C80.8827 107.574 80.9346 107.552 80.9891 107.551C81.0439 107.551 81.0964 107.573 81.1352 107.611C81.1739 107.65 81.1957 107.703 81.1957 107.758V112.34C81.1957 112.395 81.1739 112.447 81.1352 112.486C81.0964 112.525 81.0439 112.546 80.9891 112.546Z" fill="#263238"/>
<path d="M119.02 74.5159H114.441C114.387 74.5159 114.334 74.4942 114.295 74.4554C114.257 74.4167 114.235 74.3641 114.235 74.3093C114.235 74.2545 114.257 74.202 114.295 74.1632C114.334 74.1245 114.387 74.1027 114.441 74.1027H119.02C119.074 74.1027 119.127 74.1245 119.166 74.1632C119.204 74.202 119.226 74.2545 119.226 74.3093C119.226 74.3641 119.204 74.4167 119.166 74.4554C119.127 74.4942 119.074 74.5159 119.02 74.5159Z" fill="#263238"/>
<path d="M47.5408 74.5159H42.9626C42.9078 74.5159 42.8552 74.4942 42.8165 74.4554C42.7777 74.4167 42.756 74.3641 42.756 74.3093C42.756 74.2545 42.7777 74.202 42.8165 74.1632C42.8552 74.1245 42.9078 74.1027 42.9626 74.1027H47.5408C47.5956 74.1027 47.6481 74.1245 47.6869 74.1632C47.7256 74.202 47.7474 74.2545 47.7474 74.3093C47.7474 74.3641 47.7256 74.4167 47.6869 74.4554C47.6481 74.4942 47.5956 74.5159 47.5408 74.5159Z" fill="#263238"/>
<path d="M64.7009 45.2988C64.6643 45.2986 64.6285 45.2885 64.5972 45.2696C64.5659 45.2507 64.5404 45.2237 64.5232 45.1914L62.2919 41.1917C62.2652 41.144 62.2584 41.0876 62.2731 41.035C62.2878 40.9823 62.3228 40.9376 62.3704 40.9107C62.4189 40.8853 62.4752 40.8798 62.5276 40.8952C62.5801 40.9106 62.6244 40.9458 62.6514 40.9933L64.8827 44.9931C64.9084 45.041 64.9145 45.097 64.8999 45.1493C64.8853 45.2017 64.851 45.2464 64.8042 45.274C64.7722 45.2905 64.7368 45.299 64.7009 45.2988Z" fill="#263238"/>
<path d="M99.5085 107.733C99.4716 107.732 99.4356 107.721 99.4038 107.702C99.372 107.683 99.3455 107.657 99.3267 107.625L97.0996 103.625C97.0728 103.578 97.066 103.521 97.0807 103.469C97.0955 103.416 97.1305 103.371 97.1781 103.344C97.2258 103.318 97.2821 103.311 97.3348 103.326C97.3874 103.34 97.4321 103.375 97.459 103.423L99.6903 107.423C99.7034 107.447 99.7116 107.473 99.7146 107.5C99.7175 107.527 99.715 107.554 99.7074 107.58C99.6997 107.607 99.6869 107.631 99.6698 107.652C99.6527 107.673 99.6316 107.691 99.6077 107.704C99.5783 107.723 99.5437 107.733 99.5085 107.733Z" fill="#263238"/>
<path d="M47.7763 93.0354C47.7392 93.0351 47.7029 93.025 47.671 93.0061C47.6391 92.9873 47.6127 92.9603 47.5945 92.928C47.5807 92.9045 47.5718 92.8785 47.5682 92.8515C47.5647 92.8245 47.5667 92.797 47.574 92.7708C47.5813 92.7446 47.5939 92.7201 47.6109 92.6988C47.6279 92.6775 47.649 92.6599 47.673 92.647L51.6728 90.4158C51.7212 90.3904 51.7775 90.3849 51.8299 90.4003C51.8824 90.4157 51.9267 90.4509 51.9537 90.4984C51.9805 90.5461 51.9873 90.6024 51.9725 90.6551C51.9578 90.7078 51.9228 90.7525 51.8752 90.7794L47.8755 93.0065C47.8459 93.0255 47.8115 93.0356 47.7763 93.0354Z" fill="#263238"/>
<path d="M110.198 58.2276C110.161 58.2274 110.126 58.2173 110.094 58.1984C110.063 58.1795 110.037 58.1525 110.02 58.1202C109.993 58.0725 109.987 58.0161 110.001 57.9635C110.016 57.9108 110.051 57.8661 110.099 57.8392L114.098 55.6121C114.146 55.5853 114.203 55.5785 114.255 55.5933C114.308 55.608 114.353 55.643 114.379 55.6906C114.405 55.7385 114.411 55.7945 114.397 55.8468C114.382 55.8992 114.348 55.9439 114.301 55.9716L110.301 58.1987C110.27 58.2178 110.234 58.2278 110.198 58.2276Z" fill="#263238"/>
<path d="M97.2772 45.2988C97.2427 45.2985 97.2087 45.29 97.1781 45.274C97.1305 45.2471 97.0955 45.2025 97.0807 45.1498C97.066 45.0971 97.0728 45.0408 97.0996 44.9931L99.3267 40.9933C99.3537 40.9458 99.398 40.9106 99.4505 40.8952C99.5029 40.8798 99.5592 40.8853 99.6077 40.9107C99.6316 40.9237 99.6527 40.9412 99.6698 40.9624C99.6869 40.9836 99.6997 41.0079 99.7074 41.034C99.715 41.0601 99.7175 41.0875 99.7146 41.1145C99.7116 41.1416 99.7034 41.1678 99.6903 41.1917L97.459 45.1914C97.4415 45.2243 97.4153 45.2517 97.3832 45.2707C97.3512 45.2897 97.3145 45.2994 97.2772 45.2988Z" fill="#263238"/>
<path d="M62.4737 107.733C62.4372 107.733 62.4012 107.723 62.3704 107.704C62.3464 107.691 62.3253 107.673 62.3083 107.652C62.2913 107.631 62.2787 107.606 62.2714 107.58C62.2641 107.554 62.2621 107.526 62.2656 107.499C62.2691 107.472 62.2781 107.446 62.2919 107.423L64.5232 103.423C64.5516 103.379 64.596 103.347 64.6472 103.334C64.6985 103.321 64.7527 103.328 64.7987 103.354C64.8448 103.38 64.8791 103.423 64.8947 103.473C64.9103 103.524 64.906 103.578 64.8826 103.626L62.6514 107.625C62.6336 107.657 62.6078 107.684 62.5767 107.702C62.5456 107.721 62.5101 107.732 62.4737 107.733Z" fill="#263238"/>
<path d="M114.206 93.0353C114.171 93.0355 114.136 93.0254 114.107 93.0064L110.107 90.7793C110.059 90.7524 110.024 90.7077 110.01 90.655C109.995 90.6023 110.002 90.546 110.029 90.4983C110.041 90.4744 110.059 90.4532 110.08 90.4361C110.101 90.419 110.126 90.4063 110.152 90.3986C110.178 90.3909 110.205 90.3885 110.232 90.3914C110.259 90.3943 110.286 90.4026 110.309 90.4157L114.309 92.6469C114.357 92.6738 114.392 92.7185 114.407 92.7712C114.421 92.8238 114.415 92.8802 114.388 92.9279C114.37 92.9602 114.343 92.9872 114.311 93.006C114.279 93.0249 114.243 93.035 114.206 93.0353Z" fill="#263238"/>
<path d="M51.772 58.2277C51.7369 58.2278 51.7024 58.2178 51.6729 58.1987L47.6731 55.9716C47.6286 55.9432 47.5966 55.8988 47.5838 55.8475C47.571 55.7963 47.5783 55.7421 47.6042 55.696C47.6302 55.65 47.6727 55.6156 47.7232 55.6C47.7737 55.5844 47.8282 55.5888 47.8756 55.6121L51.8753 57.8393C51.923 57.8662 51.958 57.9108 51.9727 57.9635C51.9874 58.0162 51.9806 58.0725 51.9539 58.1202C51.9364 58.1531 51.9101 58.1806 51.8781 58.1995C51.846 58.2185 51.8093 58.2282 51.772 58.2277Z" fill="#263238"/>
<path d="M80.9892 75.7969C80.7298 75.7977 80.4748 75.7305 80.2495 75.602C80.0242 75.4734 79.8366 75.2881 79.7053 75.0644C79.574 74.8407 79.5037 74.5865 79.5013 74.3272C79.4989 74.0678 79.5646 73.8124 79.6917 73.5863L94.8519 46.3154C94.9443 46.1401 95.0709 45.9851 95.224 45.8594C95.3772 45.7338 95.554 45.6399 95.7439 45.5835C95.9338 45.5271 96.1331 45.5092 96.3301 45.5308C96.527 45.5525 96.7177 45.6133 96.8908 45.7096C97.064 45.8059 97.2161 45.9359 97.3383 46.0919C97.4606 46.2478 97.5504 46.4266 97.6026 46.6177C97.6547 46.8089 97.6682 47.0085 97.6422 47.205C97.6161 47.4014 97.5511 47.5906 97.4509 47.7616L82.2907 75.0325C82.1614 75.2642 81.9726 75.4571 81.7438 75.5915C81.515 75.7259 81.2545 75.7968 80.9892 75.7969Z" fill="#263238"/>
<path d="M83.2244 74.3092C83.2244 74.7513 83.0933 75.1835 82.8477 75.5511C82.6021 75.9187 82.253 76.2052 81.8445 76.3744C81.436 76.5436 80.9866 76.5879 80.553 76.5016C80.1193 76.4154 79.721 76.2025 79.4084 75.8898C79.0958 75.5772 78.8829 75.1789 78.7966 74.7453C78.7104 74.3117 78.7546 73.8622 78.9238 73.4537C79.093 73.0453 79.3795 72.6962 79.7471 72.4505C80.1147 72.2049 80.5469 72.0738 80.9891 72.0738C81.5819 72.0738 82.1505 72.3093 82.5697 72.7285C82.9889 73.1477 83.2244 73.7163 83.2244 74.3092Z" fill="#263238"/>
<path opacity="0.2" d="M80.9891 75.5532C80.7439 75.5532 80.5043 75.4805 80.3004 75.3442C80.0966 75.208 79.9377 75.0144 79.8439 74.7879C79.75 74.5614 79.7255 74.3122 79.7733 74.0717C79.8212 73.8313 79.9392 73.6104 80.1126 73.437C80.2859 73.2637 80.5068 73.1456 80.7473 73.0978C80.9877 73.05 81.237 73.0745 81.4635 73.1683C81.69 73.2622 81.8836 73.421 82.0198 73.6249C82.156 73.8287 82.2287 74.0684 82.2287 74.3136C82.2287 74.6423 82.0981 74.9576 81.8656 75.1901C81.6332 75.4226 81.3179 75.5532 80.9891 75.5532Z" fill="white"/>
<path d="M93.5337 52.2569C93.4499 52.256 93.3677 52.2347 93.294 52.195C93.179 52.1314 93.0939 52.0247 93.0575 51.8984C93.0211 51.7721 93.0363 51.6365 93.0998 51.5215L95.736 46.8193C95.7639 46.7563 95.8046 46.6999 95.8555 46.6535C95.9064 46.6071 95.9664 46.5719 96.0317 46.55C96.097 46.5281 96.1661 46.52 96.2347 46.5263C96.3033 46.5326 96.3698 46.5531 96.43 46.5865C96.4902 46.6199 96.5428 46.6655 96.5844 46.7204C96.626 46.7753 96.6558 46.8382 96.6717 46.9052C96.6877 46.9722 96.6895 47.0417 96.6771 47.1095C96.6647 47.1772 96.6383 47.2416 96.5996 47.2986L93.984 52.0049C93.9394 52.0842 93.8737 52.1497 93.7942 52.1941C93.7148 52.2386 93.6246 52.2603 93.5337 52.2569Z" fill="#05338F" fill-opacity="0.75"/>
<path d="M50.838 138.272H50.5157C50.5157 137.793 50.9289 126.5 52.8792 124.591C54.8295 122.682 57.2715 124.562 57.2963 124.591L57.0897 124.839C57.0029 124.765 54.9163 123.071 53.1024 124.839C51.2884 126.608 50.8422 138.157 50.838 138.272Z" fill="#05338F" fill-opacity="0.75"/>
<path d="M50.6975 140.537L50.3752 140.508C50.3752 140.371 51.6437 126.798 46.7267 121.154L46.9705 120.939C51.9578 126.69 50.6975 140.4 50.6975 140.537Z" fill="#05338F" fill-opacity="0.75"/>
<path d="M50.8339 139.086C50.7926 138.446 49.8464 123.36 53.623 119.885L53.842 120.121C50.1769 123.492 51.1438 138.913 51.1562 139.066L50.8339 139.086Z" fill="#05338F" fill-opacity="0.75"/>
<path d="M50.3546 139.078C50.3546 138.975 50.2347 128.839 47.5489 127.298C47.3198 127.148 47.058 127.055 46.7855 127.027C46.5131 126.999 46.2379 127.036 45.9829 127.137C44.4087 127.789 43.5699 130.798 43.5616 130.826L43.2517 130.744C43.2848 130.612 44.1401 127.55 45.8631 126.839C46.1628 126.719 46.4869 126.672 46.8082 126.703C47.1296 126.734 47.4388 126.842 47.7101 127.017C50.557 128.67 50.6727 138.652 50.6768 139.074L50.3546 139.078Z" fill="#05338F" fill-opacity="0.75"/>
<path d="M51.462 139.086C51.462 138.76 51.024 131.074 53.2057 128.227C53.7841 127.475 54.4453 127.116 55.1229 127.165C56.6724 127.273 57.8748 129.372 57.9244 129.459L57.6434 129.62C57.6434 129.599 56.4782 127.583 55.1022 127.488C54.5196 127.446 53.9701 127.76 53.4494 128.426C51.3421 131.178 51.7677 138.991 51.7719 139.07L51.462 139.086Z" fill="#05338F" fill-opacity="0.75"/>
<path d="M51.0282 140.148L50.7059 140.128C50.7059 139.942 52.0777 121.629 49.8175 118.575L50.0778 118.381C52.4082 121.534 51.086 139.392 51.0282 140.148Z" fill="#05338F" fill-opacity="0.75"/>
<path d="M45.235 128.661C45.235 128.661 46.6275 129.174 46.2143 130.389C45.8011 131.603 41.3881 133.603 41.3881 133.603C41.3881 133.603 39.5412 131.909 41.2353 129.153C42.9294 126.397 45.1978 127.79 45.235 128.661Z" fill="#05338F" fill-opacity="0.75"/>
<path opacity="0.2" d="M45.235 128.661C45.235 128.661 46.6275 129.174 46.2143 130.389C45.8011 131.603 41.3881 133.603 41.3881 133.603C41.3881 133.603 39.5412 131.909 41.2353 129.153C42.9294 126.397 45.1978 127.79 45.235 128.661Z" fill="white"/>
<path d="M51.3009 126.347C51.3009 126.347 49.8134 126.285 49.7308 127.587C49.6481 128.889 52.9496 132.413 52.9496 132.413C52.9496 132.413 55.3048 131.558 54.8007 128.364C54.2966 125.17 51.6687 125.562 51.3009 126.347Z" fill="#05338F" fill-opacity="0.75"/>
<path opacity="0.2" d="M51.3009 126.347C51.3009 126.347 49.8134 126.285 49.7308 127.587C49.6481 128.889 52.9496 132.413 52.9496 132.413C52.9496 132.413 55.3048 131.558 54.8007 128.364C54.2966 125.17 51.6687 125.562 51.3009 126.347Z" fill="white"/>
<path d="M52.5569 120.24C52.5569 120.24 51.5694 120.133 51.6479 119.53C51.7264 118.926 55.4989 117.373 57.7219 119.885C57.7219 119.885 56.3005 122.331 54.2386 122.364C52.1768 122.397 52.5569 120.24 52.5569 120.24Z" fill="#05338F" fill-opacity="0.75"/>
<path opacity="0.2" d="M52.5569 120.24C52.5569 120.24 51.5694 120.133 51.6479 119.53C51.7264 118.926 55.4989 117.373 57.7219 119.885C57.7219 119.885 56.3005 122.331 54.2386 122.364C52.1768 122.397 52.5569 120.24 52.5569 120.24Z" fill="white"/>
<path d="M50.6977 118.753C50.6977 118.753 51.5943 119.187 51.8422 118.633C52.0902 118.079 49.7184 114.766 46.4996 115.72C46.4996 115.72 46.4128 118.55 48.1524 119.666C49.892 120.782 50.6977 118.753 50.6977 118.753Z" fill="#05338F" fill-opacity="0.75"/>
<path opacity="0.2" d="M50.6977 118.753C50.6977 118.753 51.5943 119.187 51.8422 118.633C52.0902 118.079 49.7184 114.766 46.4996 115.72C46.4996 115.72 46.4128 118.55 48.1524 119.666C49.892 120.782 50.6977 118.753 50.6977 118.753Z" fill="white"/>
<path d="M55.4039 128.174C55.4039 128.174 54.718 127.62 55.4576 127.347C56.1972 127.075 59.8168 127.153 59.854 130.74C59.854 130.74 55.6352 131.442 55.1146 130.074C54.594 128.707 55.4039 128.174 55.4039 128.174Z" fill="#05338F" fill-opacity="0.75"/>
<path opacity="0.2" d="M55.4039 128.174C55.4039 128.174 54.718 127.62 55.4576 127.347C56.1972 127.075 59.8168 127.153 59.854 130.74C59.854 130.74 55.6352 131.442 55.1146 130.074C54.594 128.707 55.4039 128.174 55.4039 128.174Z" fill="white"/>
<path d="M46.8052 120.129C46.8052 120.129 47.487 119.575 46.7515 119.303C46.016 119.03 42.3923 119.112 42.3551 122.695C42.3551 122.695 46.5697 123.397 47.0945 122.03C47.6192 120.662 46.8052 120.129 46.8052 120.129Z" fill="#05338F" fill-opacity="0.75"/>
<path opacity="0.2" d="M46.8052 120.129C46.8052 120.129 47.487 119.575 46.7515 119.303C46.016 119.03 42.3923 119.112 42.3551 122.695C42.3551 122.695 46.5697 123.397 47.0945 122.03C47.6192 120.662 46.8052 120.129 46.8052 120.129Z" fill="white"/>
<path d="M49.0447 123.017C49.0447 123.017 49.1066 122.348 48.5654 122.604C48.0241 122.86 46.1358 124.905 48.0902 126.839C48.0902 126.839 50.7264 124.885 50.2512 123.872C49.776 122.86 49.0447 123.017 49.0447 123.017Z" fill="#05338F" fill-opacity="0.75"/>
<path opacity="0.2" d="M49.0447 123.017C49.0447 123.017 49.1066 122.348 48.5654 122.604C48.0241 122.86 46.1358 124.905 48.0902 126.839C48.0902 126.839 50.7264 124.885 50.2512 123.872C49.776 122.86 49.0447 123.017 49.0447 123.017Z" fill="white"/>
<path d="M56.0155 123.959C56.0155 123.959 55.6023 123.422 56.2055 123.356C56.8088 123.29 59.4863 124.005 58.8583 126.682C58.8583 126.682 55.594 126.438 55.4535 125.327C55.313 124.215 56.0155 123.959 56.0155 123.959Z" fill="#05338F" fill-opacity="0.75"/>
<path opacity="0.2" d="M56.0155 123.959C56.0155 123.959 55.6023 123.422 56.2055 123.356C56.8088 123.29 59.4863 124.005 58.8583 126.682C58.8583 126.682 55.594 126.438 55.4535 125.327C55.313 124.215 56.0155 123.959 56.0155 123.959Z" fill="white"/>
<path d="M44.9747 149.019H56.1847L57.3954 136.743H43.764L44.9747 149.019Z" fill="#05338F" fill-opacity="0.75"/>
<path opacity="0.5" d="M44.9747 149.019H56.1847L57.3954 136.743H43.764L44.9747 149.019Z" fill="white"/>
<path d="M43.165 138.095H57.9946V135.384H43.165V138.095Z" fill="#05338F" fill-opacity="0.75"/>
<path opacity="0.2" d="M43.165 138.095H57.9946V135.384H43.165V138.095Z" fill="white"/>
<path d="M145.77 34.4769H136.436C135.585 34.4769 134.768 34.8152 134.166 35.4173C133.564 36.0194 133.225 36.836 133.225 37.6875V46.7778C133.227 47.6286 133.565 48.4441 134.167 49.0453C134.769 49.6465 135.585 49.9842 136.436 49.9842H140.155L141.142 53.3724L142.312 49.9842H145.77C146.62 49.9842 147.436 49.6464 148.037 49.045C148.639 48.4437 148.977 47.6282 148.977 46.7778V37.6875C148.977 37.266 148.895 36.8487 148.734 36.4592C148.573 36.0697 148.337 35.7157 148.039 35.4175C147.741 35.1193 147.387 34.8828 146.998 34.7214C146.609 34.56 146.192 34.4769 145.77 34.4769Z" fill="#05338F" fill-opacity="0.75"/>
<path opacity="0.7" d="M145.77 34.4769H136.436C135.585 34.4769 134.768 34.8152 134.166 35.4173C133.564 36.0194 133.225 36.836 133.225 37.6875V46.7778C133.227 47.6286 133.565 48.4441 134.167 49.0453C134.769 49.6465 135.585 49.9842 136.436 49.9842H140.155L141.142 53.3724L142.312 49.9842H145.77C146.62 49.9842 147.436 49.6464 148.037 49.045C148.639 48.4437 148.977 47.6282 148.977 46.7778V37.6875C148.977 37.266 148.895 36.8487 148.734 36.4592C148.573 36.0697 148.337 35.7157 148.039 35.4175C147.741 35.1193 147.387 34.8828 146.998 34.7214C146.609 34.56 146.192 34.4769 145.77 34.4769Z" fill="white"/>
<path d="M137.857 40.4061C138.684 39.0508 140.258 39.5467 141.089 40.5797C141.89 39.526 143.464 38.9888 144.312 40.3235C145.737 42.5713 142.886 44.7075 141.539 45.5463C141.386 45.6454 141.262 45.7239 141.155 45.7859L140.766 45.5587C139.394 44.7529 136.494 42.6911 137.857 40.4061Z" fill="#05338F" fill-opacity="0.75"/>
<path d="M165.19 83.6313H163.409L158.451 112.729H160.232L165.19 83.6313Z" fill="#263238"/>
<path d="M158.579 83.6313H156.798L151.84 112.729H153.621L158.579 83.6313Z" fill="#263238"/>
<path d="M151.968 83.6313H150.187L145.229 112.729H147.01L151.968 83.6313Z" fill="#263238"/>
<path opacity="0.4" d="M165.19 83.6313H163.409L158.451 112.729H160.232L165.19 83.6313Z" fill="white"/>
<path opacity="0.4" d="M158.579 83.6313H156.798L151.84 112.729H153.621L158.579 83.6313Z" fill="white"/>
<path opacity="0.4" d="M151.968 83.6313H150.187L145.229 112.729H147.01L151.968 83.6313Z" fill="white"/>
<path d="M162.112 86.9906C159.244 85.2552 155.265 85.2552 151.46 86.9906C149.538 87.817 147.262 88.0732 146.258 86.8584C144.543 85.0734 147.551 79.7804 153.327 78.1028C157.459 76.9169 161.554 76.9169 165.046 78.1028C169.917 79.7804 170.066 85.0734 167.389 86.8584C165.723 88.0732 163.579 87.8336 162.112 86.9906Z" fill="#05338F" fill-opacity="0.75"/>
<path opacity="0.4" d="M162.112 86.9906C159.244 85.2552 155.265 85.2552 151.46 86.9906C149.538 87.817 147.262 88.0732 146.258 86.8584C144.543 85.0734 147.551 79.7804 153.327 78.1028C157.459 76.9169 161.554 76.9169 165.046 78.1028C169.917 79.7804 170.066 85.0734 167.389 86.8584C165.723 88.0732 163.579 87.8336 162.112 86.9906Z" fill="white"/>
<path d="M136.267 110.324H159.782C160.329 110.324 160.855 110.541 161.242 110.929C161.63 111.316 161.848 111.842 161.848 112.39V115.154H134.201V112.39C134.201 111.842 134.418 111.316 134.806 110.929C135.193 110.541 135.719 110.324 136.267 110.324Z" fill="#05338F" fill-opacity="0.75"/>
<path opacity="0.4" d="M136.267 110.324H159.782C160.329 110.324 160.855 110.541 161.242 110.929C161.63 111.316 161.848 111.842 161.848 112.39V115.154H134.201V112.39C134.201 111.842 134.418 111.316 134.806 110.929C135.193 110.541 135.719 110.324 136.267 110.324Z" fill="white"/>
<path d="M149.968 113.485L149.819 119.918L149.142 149.02H146.906L146.233 119.918L146.084 113.485H149.968Z" fill="#263238"/>
<path opacity="0.4" d="M149.968 113.485L149.819 119.918L149.142 149.02H146.906L146.233 119.918L146.084 113.485H149.968Z" fill="white"/>
<path opacity="0.2" d="M149.968 113.485L149.819 120.096H146.233L146.084 113.485H149.968Z" fill="black"/>
<path d="M162.108 148.916L160.042 113.939H156.666L159.558 148.916H162.108Z" fill="#263238"/>
<path opacity="0.4" d="M159.554 148.916H162.104L160.232 117.08L160.046 113.898H156.67L156.93 117.08L159.554 148.916Z" fill="white"/>
<path opacity="0.2" d="M156.67 113.898L156.93 117.203H160.232L160.046 113.898H156.67Z" fill="black"/>
<path d="M136.494 148.916L139.386 113.939H136.01L133.944 148.916H136.494Z" fill="#263238"/>
<path opacity="0.4" d="M136.498 148.916L139.122 117.08L139.382 113.898H136.006L135.82 117.08L133.948 148.916H136.498Z" fill="white"/>
<path opacity="0.2" d="M139.382 113.898L139.122 117.203H135.82L136.006 113.898H139.382Z" fill="black"/>
<path d="M162.343 112.729H133.705C133.246 112.729 132.874 113.1 132.874 113.559V114.311C132.874 114.77 133.246 115.142 133.705 115.142H162.343C162.802 115.142 163.174 114.77 163.174 114.311V113.559C163.174 113.1 162.802 112.729 162.343 112.729Z" fill="#263238"/>
<path opacity="0.6" d="M162.343 112.729H133.705C133.246 112.729 132.874 113.1 132.874 113.559V114.311C132.874 114.77 133.246 115.142 133.705 115.142H162.343C162.802 115.142 163.174 114.77 163.174 114.311V113.559C163.174 113.1 162.802 112.729 162.343 112.729Z" fill="white"/>
<path d="M145.406 58.6991C148.129 62.6079 148.613 67.9505 147.96 69.1529C147.307 70.3553 135.895 71.0082 135.895 71.0082C135.895 71.0082 136.866 69.6777 136.225 62.9302C135.585 56.1827 145.406 58.6991 145.406 58.6991Z" fill="#263238"/>
<path d="M140.25 78.1853C139.076 80.5033 137.87 82.8172 135.919 84.6394C135.394 85.044 134.793 85.3391 134.151 85.5071C131.394 86.3073 128.572 86.8604 125.718 87.1599C125.474 87.1791 125.232 87.1118 125.033 86.9699C124.834 86.828 124.692 86.6205 124.631 86.384C124.571 86.1475 124.595 85.8971 124.701 85.677C124.807 85.4569 124.987 85.2812 125.209 85.1807C127.689 84.1229 130.44 83.2015 132.874 82.1479C133.095 82.0552 133.308 81.9446 133.51 81.8173L133.457 81.8504C133.415 81.8834 133.432 81.8504 133.436 81.8504C134.333 80.6562 135.816 77.6688 136.576 76.3135C137.907 73.9996 141.336 75.7516 140.25 78.1894V78.1853Z" fill="#E9B376"/>
<path d="M133.899 79.3838C134.318 80.2306 134.886 80.9949 135.577 81.6399C136.212 82.245 136.985 82.6873 137.828 82.929C138.052 82.9885 138.28 83.0327 138.51 83.0613C141.626 83.429 138.923 73.942 138.923 73.942C136.597 74.7271 135.903 76.3179 133.899 79.3838Z" fill="#05338F" fill-opacity="0.75"/>
<path opacity="0.2" d="M135.576 81.6399C136.212 82.245 136.985 82.6873 137.828 82.929L138.576 76.5865C138.576 76.541 138.75 74.7643 138.729 74.7147C138.708 74.6651 136.519 75.8303 135.576 81.6399Z" fill="black"/>
<path d="M137.353 66.5457C135.746 65.2194 133.076 61.0295 136.626 58.1041C141.051 54.4515 144.539 56.8439 146.175 59.8933C147.811 62.9426 146.906 66.0457 143.456 67.0581C140.006 68.0704 138.465 67.463 137.353 66.5457Z" fill="#263238"/>
<path d="M111.024 136.07L113.309 136.504C113.309 136.504 125.788 106.597 127.771 106.51C129.754 106.423 149.993 115.729 155.063 110.568C160.133 105.407 152.798 92.9697 152.798 92.9697C152.798 92.9697 140.601 91.2301 139.679 93.9862C139.454 94.8005 139.281 95.6287 139.163 96.4653C139.026 97.2917 138.931 98.0148 138.931 98.0148C138.551 97.9198 126.308 94.7588 121.482 98.0148C116.573 101.337 111.024 136.07 111.024 136.07Z" fill="#EBB376"/>
<path d="M146.299 111.811C146.299 111.811 145.472 111.811 132.663 111.233C132.663 111.233 135.035 133.207 136.08 145.181L133.411 145.33C133.411 145.33 122.668 114.212 122.751 110.142C122.833 106.072 127.552 104.874 127.552 104.874C127.552 104.874 136.642 110.142 146.299 111.811Z" fill="#EBB376"/>
<path d="M146.287 111.811C146.154 111.811 144.857 111.811 134.874 111.336L135.068 108.464C138.681 109.969 142.441 111.09 146.287 111.811Z" fill="#263238"/>
<path opacity="0.2" d="M126.404 123.546C124.309 115.129 123.259 110.758 124.309 108.721C125.015 107.455 126.135 106.471 127.482 105.936C130.209 110.175 138.704 111.477 138.927 111.514C145.233 111.791 146.175 111.803 146.287 111.803C142.441 111.08 138.681 109.958 135.068 108.456C132.492 107.417 129.982 106.221 127.552 104.874C127.552 104.874 122.883 106.068 122.784 110.142C122.743 111.795 124.519 117.993 126.631 124.732C126.576 124.333 126.5 123.937 126.404 123.546Z" fill="black"/>
<path d="M108.545 134.702C108.501 134.642 108.478 134.57 108.478 134.496C108.478 134.422 108.501 134.349 108.545 134.289C108.57 134.241 108.606 134.199 108.648 134.165C108.691 134.132 108.74 134.108 108.793 134.095C109.073 134.051 109.36 134.088 109.619 134.202C109.367 133.979 109.161 133.731 109.206 133.541C109.227 133.417 109.33 133.339 109.512 133.302C109.591 133.283 109.673 133.281 109.752 133.298C109.831 133.314 109.906 133.348 109.971 133.397C110.404 133.711 110.504 134.607 110.508 134.636C110.512 134.651 110.512 134.667 110.508 134.682C110.508 134.682 110.508 134.682 110.508 134.702C110.502 134.713 110.493 134.721 110.483 134.727C110.472 134.731 110.461 134.731 110.45 134.727C110.074 134.808 109.69 134.854 109.305 134.863C109.175 134.893 109.039 134.894 108.908 134.866C108.776 134.838 108.653 134.782 108.545 134.702ZM108.851 134.289C108.823 134.294 108.796 134.306 108.773 134.323C108.75 134.34 108.732 134.363 108.719 134.388C108.648 134.516 108.686 134.566 108.698 134.583C108.83 134.756 109.524 134.719 110.099 134.624C109.735 134.454 109.148 134.215 108.859 134.289H108.851ZM109.529 133.496C109.475 133.496 109.384 133.533 109.376 133.583C109.347 133.744 109.789 134.145 110.26 134.467C110.224 134.128 110.079 133.811 109.847 133.562C109.784 133.514 109.707 133.488 109.628 133.488L109.529 133.496Z" fill="#263238"/>
<path d="M130.763 145.247C130.71 145.199 130.673 145.137 130.657 145.067C130.64 144.998 130.646 144.925 130.672 144.859C130.7 144.754 130.768 144.665 130.862 144.611C131.122 144.5 131.409 144.466 131.688 144.512C131.391 144.359 131.126 144.169 131.114 143.979C131.114 143.852 131.192 143.749 131.349 143.669C131.422 143.631 131.501 143.609 131.583 143.606C131.664 143.602 131.745 143.617 131.82 143.648C132.316 143.846 132.647 144.694 132.647 144.731C132.651 144.746 132.651 144.761 132.647 144.776C132.649 144.783 132.649 144.79 132.647 144.797C132.642 144.809 132.635 144.82 132.626 144.83H132.601C132.129 145.079 131.615 145.241 131.085 145.309C130.974 145.325 130.86 145.303 130.763 145.247ZM130.961 144.776C130.935 144.789 130.913 144.807 130.895 144.829C130.877 144.851 130.864 144.877 130.858 144.904C130.825 145.049 130.858 145.082 130.887 145.094C131.056 145.235 131.713 145.028 132.258 144.793C131.849 144.706 131.221 144.619 130.961 144.776ZM131.424 143.838C131.374 143.863 131.296 143.913 131.296 143.962C131.296 144.127 131.833 144.404 132.374 144.603C132.252 144.283 132.031 144.01 131.742 143.826C131.696 143.809 131.647 143.799 131.597 143.797C131.537 143.799 131.478 143.813 131.424 143.838Z" fill="#263238"/>
<path d="M114.454 135.326C114.52 135.037 110.925 134.413 110.925 134.413C110.925 134.413 108.215 136.103 105.967 136.091C103.719 136.078 104.607 137.632 106.971 138.202L112.818 139.611C114.512 140.016 113.805 138.33 114.454 135.326Z" fill="#263238"/>
<path d="M136.642 144.396C136.642 144.098 132.994 144.396 132.994 144.396C132.994 144.396 130.783 146.702 128.614 147.239C126.445 147.776 127.676 149.069 130.106 149.04L136.122 148.966C137.845 148.925 136.75 147.466 136.642 144.396Z" fill="#263238"/>
<path d="M152.798 92.9697C152.798 92.9697 140.601 91.2301 139.68 93.9862C139.454 94.8005 139.281 95.6287 139.163 96.4653C139.027 97.2917 138.932 98.0148 138.932 98.0148L137.911 97.771L136.353 109.931C143.093 112.097 152.026 113.65 155.067 110.564C160.129 105.415 152.798 92.9697 152.798 92.9697Z" fill="#263238"/>
<path opacity="0.3" d="M138.932 98.0229L146.063 99.5104C146.063 99.5104 142.121 97.3329 139.163 96.4734C139.027 97.3164 138.932 98.0229 138.932 98.0229Z" fill="black"/>
<path d="M152.228 91.0895L152.794 92.9902L139.679 93.9984L139.332 91.7547L152.228 91.0895Z" fill="#263238"/>
<path opacity="0.2" d="M152.228 91.0895L152.794 92.9902L139.679 93.9984L139.332 91.7547L152.228 91.0895Z" fill="black"/>
<path d="M148.365 94.2672L149.014 94.2004L148.675 90.8999L148.026 90.9666L148.365 94.2672Z" fill="#263238"/>
<path d="M142.536 93.9405L145.41 93.7557L145.27 91.5785L142.396 91.7633L142.536 93.9405Z" fill="white"/>
<path d="M140.32 94.6149L140.969 94.5481L140.63 91.2475L139.981 91.3143L140.32 94.6149Z" fill="#263238"/>
<path d="M137.2 97.0934L138.374 97.4446L137.2 110.407H135.626L137.2 97.0934Z" fill="#263238"/>
<path opacity="0.4" d="M137.2 97.0934L138.374 97.4446L137.2 110.407H135.626L137.2 97.0934Z" fill="white"/>
<path d="M134.527 108.237V111.795L135.626 111.94L135.82 108.762L134.527 108.237Z" fill="#263238"/>
<path opacity="0.3" d="M134.527 108.237V111.795L135.626 111.94L135.82 108.762L134.527 108.237Z" fill="white"/>
<path d="M136.366 79.615C136.333 82.1768 138.394 87.7922 139.411 92.1307L152.22 91.0895C151.951 89.7177 151.807 87.6806 152.001 84.3627C152.104 82.4206 152.327 80.0365 152.699 77.0904C152.753 76.6524 152.811 76.2062 152.873 75.7434C152.954 75.2747 152.93 74.7937 152.8 74.3359C152.671 73.878 152.441 73.455 152.126 73.0981C151.812 72.7412 151.421 72.4594 150.983 72.2736C150.545 72.0878 150.071 72.0027 149.596 72.0246C149.055 72.0453 148.481 72.0825 147.898 72.1403C145.838 72.2867 143.792 72.5808 141.774 73.0204C141.117 73.1733 140.44 73.3592 139.791 73.5452C137.469 74.2311 136.395 77.2143 136.366 79.615Z" fill="#05338F" fill-opacity="0.75"/>
<path d="M144.382 65.6985C144.464 67.7645 144.923 71.4378 146.551 72.3097C146.551 72.3097 144.671 72.6031 141.593 76.1607C139.989 74.9211 140.655 74.1567 140.655 74.1567C142.65 72.9749 142.221 71.3841 141.502 69.9917L144.382 65.6985Z" fill="#EBB376"/>
<path opacity="0.2" d="M143.204 67.4466L141.498 69.9919C141.672 70.3171 141.817 70.6573 141.931 71.0084C142.712 70.6365 143.609 69.3762 143.493 68.4837C143.46 68.1233 143.362 67.7719 143.204 67.4466Z" fill="black"/>
<path d="M144.328 61.2197C145.097 64.3971 145.489 65.7276 144.402 67.8308C142.774 70.967 138.704 71.2149 137.002 68.3308C135.469 65.7318 134.473 60.9717 137.142 58.7901C137.728 58.3068 138.428 57.981 139.175 57.8437C139.922 57.7064 140.692 57.762 141.411 58.0053C142.131 58.2486 142.776 58.6715 143.287 59.234C143.797 59.7965 144.156 60.4799 144.328 61.2197Z" fill="#FFB573"/>
<path d="M140.948 58.8519C140.316 60.1618 143.121 63.1946 144.84 63.426C147.695 61.7113 142.84 54.9555 140.948 58.8519Z" fill="#263238"/>
<path d="M136.832 58.2239C135.779 59.0089 135.18 61.4633 135.221 62.3186C136.994 62.0542 141.031 59.0131 141.031 59.0131C141.031 59.0131 144.336 58.8767 142.299 57.8313C140.262 56.7859 136.832 58.2239 136.832 58.2239Z" fill="#263238"/>
<path d="M136.923 64.9467C137.002 65.2029 136.923 65.4466 136.762 65.5004C136.601 65.5541 136.399 65.3847 136.324 65.1326C136.25 64.8806 136.324 64.6326 136.481 64.5789C136.638 64.5252 136.845 64.6946 136.923 64.9467Z" fill="#263238"/>
<path d="M136.56 64.5705H135.895C135.895 64.5705 136.353 64.963 136.56 64.5705Z" fill="#263238"/>
<path d="M137.762 64.6448C137.713 65.2944 137.574 65.9341 137.349 66.5455C137.507 66.5988 137.675 66.6167 137.84 66.5982C138.006 66.5796 138.165 66.525 138.308 66.4381L137.762 64.6448Z" fill="#ED893E"/>
<path d="M146.051 63.8227C146.034 64.1372 145.955 64.4452 145.818 64.7289C145.681 65.0126 145.489 65.2663 145.254 65.4755C144.621 66.025 143.948 65.5499 143.82 64.7648C143.708 64.0582 143.898 62.9219 144.679 62.674C144.849 62.6228 145.029 62.6146 145.203 62.6503C145.377 62.6859 145.539 62.7642 145.675 62.8781C145.811 62.9921 145.917 63.1381 145.982 63.3029C146.048 63.4678 146.072 63.6464 146.051 63.8227Z" fill="#FFB573"/>
<path d="M140.58 62.6409C140.55 62.6553 140.517 62.6599 140.484 62.6539C140.451 62.648 140.421 62.6319 140.398 62.6078C140.2 62.4475 139.971 62.3305 139.724 62.2643C139.478 62.1982 139.221 62.1843 138.969 62.2236C138.929 62.2265 138.89 62.2143 138.859 62.1895C138.828 62.1646 138.808 62.129 138.802 62.0898C138.796 62.0505 138.806 62.0105 138.828 61.9778C138.851 61.9452 138.885 61.9222 138.923 61.9137C138.965 61.9137 140.014 61.7566 140.626 62.3888C140.641 62.4034 140.652 62.4208 140.66 62.44C140.668 62.4591 140.672 62.4796 140.672 62.5004C140.672 62.5211 140.668 62.5417 140.66 62.5608C140.652 62.58 140.641 62.5974 140.626 62.612C140.613 62.6247 140.597 62.6346 140.58 62.6409Z" fill="#263238"/>
<path d="M135.465 63.4013C135.434 63.4157 135.399 63.4196 135.366 63.4126C135.333 63.4055 135.303 63.3878 135.28 63.3622C135.258 63.3366 135.245 63.3044 135.242 63.2704C135.24 63.2365 135.248 63.2027 135.267 63.1741C135.4 62.9622 135.582 62.7855 135.798 62.659C136.013 62.5324 136.256 62.4596 136.506 62.4468C136.547 62.4479 136.586 62.4649 136.615 62.4943C136.643 62.5236 136.659 62.5629 136.659 62.6038C136.659 62.6448 136.643 62.6841 136.615 62.7134C136.586 62.7428 136.547 62.7598 136.506 62.7609C136.31 62.7745 136.121 62.8344 135.953 62.9357C135.785 63.037 135.643 63.1768 135.539 63.3435C135.521 63.3696 135.495 63.3897 135.465 63.4013Z" fill="#263238"/>
<path d="M139.795 64.0666C139.874 64.3186 139.795 64.5665 139.634 64.6161C139.473 64.6657 139.27 64.5046 139.192 64.2484C139.113 63.9922 139.192 63.7484 139.353 63.6988C139.514 63.6492 139.717 63.8104 139.795 64.0666Z" fill="#263238"/>
<path d="M139.431 63.6904H138.766C138.766 63.6904 139.225 64.0788 139.431 63.6904Z" fill="#263238"/>
<path d="M139.064 67.6531C139.511 67.9106 139.939 68.1992 140.345 68.5167L140.547 68.3308C141.444 67.4837 141.58 66.7937 141.46 66.2648C141.394 66.0182 141.271 65.7905 141.101 65.5995C141.008 65.4882 140.899 65.3908 140.779 65.3103C140.572 66.0458 139.795 66.9011 139.365 67.3391C139.184 67.5457 139.064 67.6531 139.064 67.6531Z" fill="#263238"/>
<path d="M139.365 67.3514L139.75 67.5952C140.576 66.7977 141.08 66.1201 141.101 65.6119C141.008 65.5006 140.899 65.4032 140.778 65.3226C140.572 66.0664 139.795 66.9382 139.365 67.3514Z" fill="white"/>
<path d="M140.547 68.3307C141.444 67.4836 141.58 66.7936 141.46 66.2647C141.117 66.589 140.837 66.9743 140.634 67.401C140.508 67.6939 140.477 68.0194 140.547 68.3307Z" fill="#DE5753"/>
<path d="M125.994 85.2097L122.515 84.7634L122.619 87.8293C122.619 87.8293 125.007 88.4822 126.222 86.8418L125.994 85.2097Z" fill="#FFB573"/>
<path d="M120.181 85.6477L120.805 87.9161L122.619 87.8293L122.515 84.7634L120.181 85.6477Z" fill="#FFB573"/>
<path opacity="0.2" d="M146.146 80.1274C147.423 82.3422 149.832 83.7057 152.009 84.3627C152.113 82.4207 152.336 80.0365 152.708 77.0905C151.129 75.6071 149.154 74.7228 147.018 75.4914C147.018 75.4914 144.853 77.8838 146.146 80.1274Z" fill="black"/>
<path d="M152.629 75.9376C151.158 78.9787 147.32 87.0526 143.704 87.4286C139.254 87.4782 137.977 80.8174 137.725 77.4458C137.705 77.1924 137.78 76.9406 137.935 76.7391C138.09 76.5376 138.314 76.4005 138.564 76.3543C138.814 76.3081 139.072 76.3561 139.289 76.489C139.505 76.6218 139.665 76.8302 139.737 77.0739C140.318 78.7906 141.055 80.4504 141.94 82.0322C142.272 82.6559 142.733 83.2023 143.291 83.6354C143.415 83.7015 143.477 83.7387 143.564 83.7305C143.65 83.7222 143.382 83.685 143.291 83.7057C143.084 83.7263 143.088 83.7594 143.15 83.7057C143.831 83.0526 144.421 82.3104 144.902 81.4992C146.364 79.1276 147.701 76.6809 148.906 74.1691C150.146 71.7932 153.679 73.4625 152.625 75.9417L152.629 75.9376Z" fill="#E9B376"/>
<path d="M149.604 72.0411C151.257 71.6279 155.22 73.9831 152.542 81.2719C152.542 81.2719 146.708 79.7844 146.187 78.082C145.667 76.3797 149.604 72.0411 149.604 72.0411Z" fill="#05338F" fill-opacity="0.75"/>
<path d="M138.126 71.3345C138.132 71.4096 138.153 71.4827 138.188 71.5494C138.224 71.6164 138.274 71.6754 138.333 71.723C138.393 71.7705 138.461 71.8057 138.535 71.8262C138.589 71.8425 138.644 71.8522 138.7 71.8552L138.523 75.9871C138.523 76.0364 138.542 76.0837 138.577 76.1186C138.612 76.1535 138.659 76.1731 138.708 76.1731C138.758 76.1731 138.805 76.1535 138.84 76.1186C138.875 76.0837 138.894 76.0364 138.894 75.9871L139.068 71.8552C139.124 71.863 139.181 71.863 139.237 71.8552C139.388 71.822 139.52 71.7316 139.605 71.6031C139.645 71.54 139.673 71.4699 139.688 71.3965C139.69 71.3607 139.69 71.3249 139.688 71.2891V71.2106V70.9007C139.688 70.4875 139.646 70.0743 139.605 69.6611C139.527 70.0743 139.469 70.4875 139.415 70.9007L139.382 71.2106V71.285C139.384 71.3 139.384 71.3154 139.382 71.3304C139.37 71.3581 139.354 71.3834 139.332 71.4048C139.275 71.4709 139.213 71.4792 139.101 71.475C139.099 71.4669 139.099 71.4584 139.101 71.4502L139.014 69.6446L138.77 71.4378C138.655 71.4378 138.597 71.4378 138.543 71.3469C138.523 71.3262 138.509 71.3005 138.502 71.2726C138.502 71.2726 138.502 71.2436 138.502 71.2271V71.1486V70.8387C138.502 70.4255 138.461 70.0123 138.419 69.5991C138.341 70.0123 138.283 70.4255 138.229 70.8387L138.196 71.1486V71.2271C138.17 71.2613 138.147 71.2972 138.126 71.3345Z" fill="#263238"/>
<path opacity="0.4" d="M138.126 71.3345C138.132 71.4096 138.153 71.4827 138.188 71.5494C138.224 71.6164 138.274 71.6754 138.333 71.723C138.393 71.7705 138.461 71.8057 138.535 71.8262C138.589 71.8425 138.644 71.8522 138.7 71.8552L138.523 75.9871C138.523 76.0364 138.542 76.0837 138.577 76.1186C138.612 76.1535 138.659 76.1731 138.708 76.1731C138.758 76.1731 138.805 76.1535 138.84 76.1186C138.875 76.0837 138.894 76.0364 138.894 75.9871L139.068 71.8552C139.124 71.863 139.181 71.863 139.237 71.8552C139.388 71.822 139.52 71.7316 139.605 71.6031C139.645 71.54 139.673 71.4699 139.688 71.3965C139.69 71.3607 139.69 71.3249 139.688 71.2891V71.2106V70.9007C139.688 70.4875 139.646 70.0743 139.605 69.6611C139.527 70.0743 139.469 70.4875 139.415 70.9007L139.382 71.2106V71.285C139.384 71.3 139.384 71.3154 139.382 71.3304C139.37 71.3581 139.354 71.3834 139.332 71.4048C139.275 71.4709 139.213 71.4792 139.101 71.475C139.099 71.4669 139.099 71.4584 139.101 71.4502L139.014 69.6446L138.77 71.4378C138.655 71.4378 138.597 71.4378 138.543 71.3469C138.523 71.3262 138.509 71.3005 138.502 71.2726C138.502 71.2726 138.502 71.2436 138.502 71.2271V71.1486V70.8387C138.502 70.4255 138.461 70.0123 138.419 69.5991C138.341 70.0123 138.283 70.4255 138.229 70.8387L138.196 71.1486V71.2271C138.17 71.2613 138.147 71.2972 138.126 71.3345Z" fill="white"/>
<path d="M137.531 69.8512C137.531 69.8512 139.229 70.5825 140.167 70.0991C141.105 69.6157 140.369 68.3843 139.506 68.0662C139.48 68.056 139.454 68.0478 139.427 68.0414C139.366 68.1184 139.289 68.1812 139.201 68.2254C139.114 68.2697 139.017 68.2943 138.919 68.2976C138.638 68.2645 138.328 68.6694 138.349 68.7108C138.37 68.7521 137.981 68.8843 137.758 68.9587C137.535 69.0331 137.531 69.8512 137.531 69.8512Z" fill="#05338F" fill-opacity="0.75"/>
<path opacity="0.4" d="M137.531 69.8512C137.531 69.8512 139.229 70.5825 140.167 70.0991C140.245 69.9331 140.298 69.7562 140.324 69.5743C140.357 69.3347 140.208 69.4132 140.183 69.2644C140.136 69.0983 140.047 68.9473 139.923 68.8265C139.812 68.7359 139.695 68.6531 139.572 68.5785C139.494 68.481 139.45 68.3604 139.448 68.2356C139.464 68.1779 139.483 68.1213 139.506 68.0662C139.48 68.056 139.454 68.0478 139.427 68.0414C139.366 68.1184 139.289 68.1812 139.201 68.2254C139.114 68.2697 139.017 68.2943 138.919 68.2976C138.638 68.2645 138.328 68.6694 138.349 68.7108C138.37 68.7521 137.981 68.8843 137.758 68.9587C137.535 69.0331 137.531 69.8512 137.531 69.8512Z" fill="white"/>
<path opacity="0.2" d="M137.531 69.8512C137.704 69.8429 137.875 69.8109 138.039 69.7562C138.109 69.7024 138.192 69.7562 138.308 69.6859C138.454 69.6522 138.604 69.6315 138.754 69.6239C138.853 69.5991 138.754 69.3264 138.808 69.2107C138.861 69.095 139.043 69.281 139.105 69.2479C139.249 69.1534 139.361 69.0182 139.427 68.8595C139.493 68.6736 139.518 68.5827 139.382 68.4463C139.246 68.31 139.551 68.1034 139.427 68.0579C139.366 68.1349 139.289 68.1977 139.201 68.242C139.114 68.2862 139.017 68.3108 138.919 68.3141C138.638 68.281 138.328 68.686 138.349 68.7273C138.37 68.7686 137.981 68.9008 137.758 68.9752C137.535 69.0496 137.531 69.8512 137.531 69.8512Z" fill="black"/>
<path d="M136.469 74.2724L136.11 75.2228C136.043 75.3992 136.019 75.589 136.039 75.7765C136.06 75.964 136.125 76.1438 136.229 76.3012L137.221 77.7887C137.417 78.0808 137.679 78.3221 137.987 78.4924C138.294 78.6627 138.638 78.7572 138.99 78.768H139.432C140.138 77.2351 139.77 75.0493 139.77 75.0493L139.737 74.4171C139.733 74.287 139.703 74.159 139.649 74.0406C139.595 73.9221 139.519 73.8155 139.423 73.7268C139.328 73.6381 139.216 73.5691 139.094 73.5237C138.972 73.4784 138.843 73.4576 138.713 73.4626L137.473 73.5163C137.25 73.5296 137.036 73.6084 136.857 73.7429C136.678 73.8774 136.543 74.0616 136.469 74.2724Z" fill="#EBB376"/>
<path d="M119.094 82.9001C117.635 80.987 117.635 79.7474 117.635 79.7474L120.272 83.0529L123.833 87.5237C123.857 87.5466 123.875 87.5743 123.888 87.605C123.9 87.6356 123.905 87.6685 123.903 87.7014C123.902 87.7343 123.893 87.7665 123.878 87.7957C123.863 87.825 123.842 87.8508 123.816 87.8713C123.79 87.8917 123.76 87.9064 123.729 87.9144C123.697 87.9224 123.663 87.9235 123.631 87.9176C123.598 87.9117 123.568 87.8989 123.541 87.8802C123.514 87.8614 123.491 87.8371 123.474 87.8088L121.106 84.8338C120.321 84.3205 119.638 83.6646 119.094 82.9001Z" fill="#263238"/>
<path opacity="0.4" d="M119.094 82.9001C117.635 80.987 117.635 79.7474 117.635 79.7474L120.272 83.0529L123.833 87.5237C123.857 87.5466 123.875 87.5743 123.888 87.605C123.9 87.6356 123.905 87.6685 123.903 87.7014C123.902 87.7343 123.893 87.7665 123.878 87.7957C123.863 87.825 123.842 87.8508 123.816 87.8713C123.79 87.8917 123.76 87.9064 123.729 87.9144C123.697 87.9224 123.663 87.9235 123.631 87.9176C123.598 87.9117 123.568 87.8989 123.541 87.8802C123.514 87.8614 123.491 87.8371 123.474 87.8088L121.106 84.8338C120.321 84.3205 119.638 83.6646 119.094 82.9001Z" fill="white"/>
<path d="M116.371 79.9745H119.14C119.14 79.9745 119.032 82.7016 118.846 83.2801C118.66 83.8586 118.433 84.8048 118.433 87.1394H115.764C115.764 84.8048 115.532 83.8627 115.351 83.2801C115.169 82.6975 115.061 79.9745 115.061 79.9745H116.371Z" fill="#05338F" fill-opacity="0.75"/>
<path opacity="0.4" d="M116.371 79.9745H119.14C119.14 79.9745 119.032 82.7016 118.846 83.2801C118.66 83.8586 118.433 84.8048 118.433 87.1394H115.764C115.764 84.8048 115.532 83.8627 115.351 83.2801C115.169 82.6975 115.061 79.9745 115.061 79.9745H116.371Z" fill="white"/>
<path opacity="0.4" d="M118.759 82.4289C118.743 82.6909 118.703 82.9509 118.639 83.2057C118.433 83.8503 118.226 84.7924 118.226 86.9245H115.983C115.983 84.8048 115.755 83.8627 115.549 83.2057C115.49 82.95 115.45 82.6904 115.429 82.4289H118.759Z" fill="white"/>
<path d="M111.885 86.7095L112.736 86.5403L112.178 83.7318L111.327 83.9009L111.885 86.7095Z" fill="#05338F" fill-opacity="0.75"/>
<path d="M110.907 86.6956L111.723 86.403L110.758 83.7073L109.941 83.9999L110.907 86.6956Z" fill="#05338F" fill-opacity="0.75"/>
<path d="M109.906 86.7119L110.638 86.2458L109.1 83.8306L108.368 84.2967L109.906 86.7119Z" fill="#05338F" fill-opacity="0.75"/>
<path d="M108.933 86.7147L109.464 86.028L107.198 84.2777L106.667 84.9644L108.933 86.7147Z" fill="#05338F" fill-opacity="0.75"/>
<path d="M107.669 87.0938H111.743C112.356 87.093 112.952 86.8902 113.438 86.5167C113.925 86.1433 114.274 85.62 114.433 85.0279V85.0072H104.967V85.0279C105.128 85.6213 105.479 86.1453 105.968 86.5188C106.456 86.8922 107.054 87.0943 107.669 87.0938Z" fill="#263238"/>
<path d="M116.586 149.02L116.202 90.0568H119.557L119.173 149.02H116.586Z" fill="#263238"/>
<path opacity="0.4" d="M119.177 149.02H116.586L116.268 100.374L116.202 90.16H119.561L119.495 100.374L119.177 149.02Z" fill="white"/>
<path opacity="0.2" d="M119.561 90.16L119.495 100.49H116.268L116.202 90.16H119.561Z" fill="black"/>
<path d="M143.175 149.02L138.94 90.0568H142.299L145.762 149.02H143.175Z" fill="#263238"/>
<path opacity="0.5" d="M143.175 149.02L139.163 93.2011L138.94 90.16H142.299L142.481 93.2011L145.766 149.02H143.175Z" fill="white"/>
<path opacity="0.2" d="M142.481 93.0523H139.163L138.94 90.16H142.299L142.481 93.0523Z" fill="black"/>
<path d="M89.9968 149.02L93.4594 90.0568H96.8187L92.5834 149.02H89.9968Z" fill="#263238"/>
<path opacity="0.5" d="M92.5834 149.02H89.9968L93.2776 93.2011L93.4594 90.16H96.8187L96.5956 93.2011L92.5834 149.02Z" fill="white"/>
<path opacity="0.2" d="M93.4594 90.16H96.8187L96.5956 93.0523H93.2776L93.4594 90.16Z" fill="black"/>
<path d="M90.7777 88.4697H144.96V90.7464C144.96 90.8636 144.937 90.9797 144.892 91.088C144.847 91.1963 144.782 91.2947 144.699 91.3775C144.616 91.4604 144.517 91.5262 144.409 91.571C144.301 91.6159 144.185 91.6389 144.068 91.6389H91.6909C91.5737 91.6389 91.4576 91.6159 91.3493 91.571C91.241 91.5262 91.1427 91.4604 91.0598 91.3775C90.9769 91.2947 90.9112 91.1963 90.8663 91.088C90.8215 90.9797 90.7984 90.8636 90.7984 90.7464V88.4697H90.7777Z" fill="#263238"/>
<path opacity="0.6" d="M90.7777 88.4697H144.96V90.7464C144.96 90.8636 144.937 90.9797 144.892 91.088C144.847 91.1963 144.782 91.2947 144.699 91.3775C144.616 91.4604 144.517 91.5262 144.409 91.571C144.301 91.6159 144.185 91.6389 144.068 91.6389H91.6909C91.5737 91.6389 91.4576 91.6159 91.3493 91.571C91.241 91.5262 91.1427 91.4604 91.0598 91.3775C90.9769 91.2947 90.9112 91.1963 90.8663 91.088C90.8215 90.9797 90.7984 90.8636 90.7984 90.7464V88.4697H90.7777Z" fill="white"/>
<path opacity="0.2" d="M144.96 88.4697H90.7983V90.0564H144.96V88.4697Z" fill="black"/>
<path d="M146.53 88.883H89.2282C89.111 88.883 88.9949 88.8599 88.8867 88.815C88.7784 88.7702 88.68 88.7044 88.5971 88.6216C88.5142 88.5387 88.4485 88.4403 88.4036 88.332C88.3588 88.2237 88.3357 88.1077 88.3357 87.9905C88.3357 87.8733 88.3588 87.7572 88.4036 87.6489C88.4485 87.5406 88.5142 87.4422 88.5971 87.3594C88.68 87.2765 88.7784 87.2107 88.8867 87.1659C88.9949 87.121 89.111 87.098 89.2282 87.098H146.53C146.647 87.098 146.764 87.121 146.872 87.1659C146.98 87.2107 147.078 87.2765 147.161 87.3594C147.244 87.4422 147.31 87.5406 147.355 87.6489C147.4 87.7572 147.423 87.8733 147.423 87.9905C147.423 88.1077 147.4 88.2237 147.355 88.332C147.31 88.4403 147.244 88.5387 147.161 88.6216C147.078 88.7044 146.98 88.7702 146.872 88.815C146.764 88.8599 146.647 88.883 146.53 88.883Z" fill="#263238"/>
<path opacity="0.6" d="M146.53 88.883H89.2282C89.111 88.883 88.9949 88.8599 88.8867 88.815C88.7784 88.7702 88.68 88.7044 88.5971 88.6216C88.5142 88.5387 88.4485 88.4403 88.4036 88.332C88.3588 88.2237 88.3357 88.1077 88.3357 87.9905C88.3357 87.8733 88.3588 87.7572 88.4036 87.6489C88.4485 87.5406 88.5142 87.4422 88.5971 87.3594C88.68 87.2765 88.7784 87.2107 88.8867 87.1659C88.9949 87.121 89.111 87.098 89.2282 87.098H146.53C146.647 87.098 146.764 87.121 146.872 87.1659C146.98 87.2107 147.078 87.2765 147.161 87.3594C147.244 87.4422 147.31 87.5406 147.355 87.6489C147.4 87.7572 147.423 87.8733 147.423 87.9905C147.423 88.1077 147.4 88.2237 147.355 88.332C147.31 88.4403 147.244 88.5387 147.161 88.6216C147.078 88.7044 146.98 88.7702 146.872 88.815C146.764 88.8599 146.647 88.883 146.53 88.883Z" fill="white"/>
<path d="M123.66 86.6931C124.486 87.3046 126.726 87.16 129.321 85.1106C129.479 85.0106 129.599 84.8596 129.661 84.6824C129.723 84.5052 129.722 84.3123 129.659 84.1354C129.511 83.7511 129.04 83.4082 128.201 83.309C126.639 83.1355 123.747 84.5486 123.362 85.8543C123.313 86.0074 123.316 86.1723 123.37 86.3238C123.424 86.4753 123.525 86.605 123.66 86.6931Z" fill="#05338F" fill-opacity="0.75"/>
<path opacity="0.2" d="M123.66 86.6931C124.486 87.3046 126.726 87.16 129.321 85.1106C129.479 85.0106 129.599 84.8596 129.661 84.6824C129.723 84.5052 129.722 84.3123 129.659 84.1354C129.511 83.7511 129.04 83.4082 128.201 83.309C126.639 83.1355 123.747 84.5486 123.362 85.8543C123.313 86.0074 123.316 86.1723 123.37 86.3238C123.424 86.4753 123.525 86.605 123.66 86.6931Z" fill="white"/>
<path opacity="0.2" d="M128.081 84.8751C127.498 84.652 125.796 85.3337 125.466 86.1642C125.135 86.9948 128.461 85.0197 128.081 84.8751Z" fill="black"/>
<path opacity="0.4" d="M123.66 86.6933C123.751 86.4843 123.801 86.2599 123.809 86.0322C123.809 85.7016 124.073 85.5239 124.449 85.619C124.825 85.714 124.668 85.2058 124.759 85.0488C124.974 84.8173 125.27 84.6769 125.585 84.6562C125.941 84.6562 125.916 84.5281 126.028 84.2182C126.139 83.9083 126.561 83.805 126.784 83.805C127.007 83.805 127.395 83.9497 127.61 83.71C127.825 83.4703 128.023 83.4621 128.569 83.71C128.908 83.9194 129.277 84.0768 129.664 84.1769C129.515 83.7926 129.044 83.4497 128.205 83.3505C126.643 83.177 123.751 84.5901 123.367 85.8958C123.327 86.0428 123.334 86.1984 123.386 86.3412C123.439 86.484 123.535 86.607 123.66 86.6933Z" fill="black"/>
<path d="M128.589 86.8129C129.556 86.8419 131.027 86.7881 132.093 86.7303C132.825 86.6931 133.366 86.6559 133.411 86.6435C133.448 86.5774 133.196 86.2964 133.411 85.9494C133.626 85.6023 133.411 85.375 133.3 85.3213C133.188 85.2676 132.973 85.3585 132.949 85.1891C132.915 85.0604 132.859 84.9386 132.783 84.8296C132.54 84.7995 132.302 84.7356 132.077 84.6395H131.812C130.599 84.6621 129.392 84.8004 128.205 85.0527C128.006 85.0834 127.817 85.1623 127.655 85.2825C127.493 85.4028 127.362 85.5608 127.275 85.7428C127.094 86.2262 127.552 86.7716 128.589 86.8129Z" fill="#05338F" fill-opacity="0.75"/>
<path opacity="0.4" d="M128.589 86.8129C129.556 86.8419 131.027 86.7881 132.093 86.7303C132.825 86.6931 133.366 86.6559 133.411 86.6435C133.448 86.5774 133.196 86.2964 133.411 85.9494C133.626 85.6023 133.411 85.375 133.3 85.3213C133.188 85.2676 132.973 85.3585 132.949 85.1891C132.915 85.0604 132.859 84.9386 132.783 84.8296C132.54 84.7995 132.302 84.7356 132.077 84.6395H131.812C131.655 84.6685 131.502 84.9866 131.502 84.9866C131.502 84.9866 131.804 85.0816 131.668 85.1849C131.531 85.2882 131.449 85.4907 131.312 85.5981C131.176 85.7056 130.792 85.5072 130.548 85.5981C130.304 85.689 129.54 85.9411 129.379 85.8419C129.217 85.7428 128.424 85.6064 128.18 85.7965C128.037 85.863 127.88 85.8937 127.722 85.8858C127.564 85.8778 127.411 85.8316 127.275 85.751C127.094 86.2262 127.552 86.7716 128.589 86.8129Z" fill="white"/>
<path opacity="0.2" d="M131.531 85.8833C131.614 86.0733 131.721 85.9907 131.787 86.2097C131.855 86.3716 131.953 86.5189 132.077 86.6435C132.072 86.6723 132.072 86.7015 132.077 86.7303C132.13 86.9204 132.366 87.2881 133.395 86.6435C133.432 86.5774 133.18 86.2964 133.395 85.9494C133.61 85.6023 133.395 85.375 133.283 85.3213C133.172 85.2676 132.957 85.3585 132.932 85.1891C132.899 85.0604 132.843 84.9386 132.767 84.8296C132.523 84.7995 132.286 84.7356 132.06 84.6395C131.465 84.9536 131.787 85.1602 131.758 85.3213C131.73 85.4824 131.849 85.7345 131.692 85.7345C131.535 85.7345 131.449 85.689 131.531 85.8833Z" fill="black"/>
<path d="M121.639 87.131H134.196C134.747 87.0944 135.269 86.8714 135.676 86.4988H120.16C120.567 86.8714 121.089 87.0944 121.639 87.131Z" fill="#263238"/>
</svg>
